<?xml version="1.0" encoding="utf-8" standalone="no"?>
<!DOCTYPE svg PUBLIC "-//W3C//DTD SVG 1.1//EN"
  "http://www.w3.org/Graphics/SVG/1.1/DTD/svg11.dtd">
<svg xmlns:xlink="http://www.w3.org/1999/xlink" width="752.840163pt" height="330.894125pt" viewBox="0 0 752.840163 330.894125" xmlns="http://www.w3.org/2000/svg" version="1.1">
 <metadata>
  <rdf:RDF xmlns:dc="http://purl.org/dc/elements/1.1/" xmlns:cc="http://creativecommons.org/ns#" xmlns:rdf="http://www.w3.org/1999/02/22-rdf-syntax-ns#">
   <cc:Work>
    <dc:type rdf:resource="http://purl.org/dc/dcmitype/StillImage"/>
    <dc:date>2026-04-26T22:34:53.893225</dc:date>
    <dc:format>image/svg+xml</dc:format>
    <dc:creator>
     <cc:Agent>
      <dc:title>Matplotlib v3.10.8, https://matplotlib.org/</dc:title>
     </cc:Agent>
    </dc:creator>
   </cc:Work>
  </rdf:RDF>
 </metadata>
 <defs>
  <style type="text/css">*{stroke-linejoin: round; stroke-linecap: butt}</style>
 </defs>
 <g id="figure_1">
  <g id="patch_1">
   <path d="M 0 330.894125 
L 752.840163 330.894125 
L 752.840163 0 
L 0 0 
z
" style="fill: #ffffff"/>
  </g>
  <g id="axes_1">
   <g id="patch_2">
    <path d="M 13.413326 109.363029 
L 101.953227 109.363029 
Q 105.836556 109.363029 105.836556 105.4797 
L 105.836556 86.063056 
Q 105.836556 82.179727 101.953227 82.179727 
L 13.413326 82.179727 
Q 9.529997 82.179727 9.529997 86.063056 
L 9.529997 105.4797 
Q 9.529997 109.363029 13.413326 109.363029 
z
" clip-path="url(#p93df3c2527)" style="fill: #e6eef7; stroke: #1f4e7a; stroke-linejoin: miter"/>
   </g>
   <g id="patch_3">
    <path d="M 13.413326 149.749651 
L 101.953227 149.749651 
Q 105.836556 149.749651 105.836556 145.866322 
L 105.836556 126.449677 
Q 105.836556 122.566348 101.953227 122.566348 
L 13.413326 122.566348 
Q 9.529997 122.566348 9.529997 126.449677 
L 9.529997 145.866322 
Q 9.529997 149.749651 13.413326 149.749651 
z
" clip-path="url(#p93df3c2527)" style="fill: #e6eef7; stroke: #1f4e7a; stroke-linejoin: miter"/>
   </g>
   <g id="patch_4">
    <path d="M 13.413326 190.136272 
L 101.953227 190.136272 
Q 105.836556 190.136272 105.836556 186.252943 
L 105.836556 166.836298 
Q 105.836556 162.952969 101.953227 162.952969 
L 13.413326 162.952969 
Q 9.529997 162.952969 9.529997 166.836298 
L 9.529997 186.252943 
Q 9.529997 190.136272 13.413326 190.136272 
z
" clip-path="url(#p93df3c2527)" style="fill: #e6eef7; stroke: #1f4e7a; stroke-linejoin: miter"/>
   </g>
   <g id="patch_5">
    <path d="M 162.533159 187.417942 
L 183.503135 187.417942 
L 183.503135 166.447965 
L 162.533159 166.447965 
z
" clip-path="url(#p93df3c2527)" style="fill: #d6d6d6; stroke: #ffffff; stroke-width: 0.8; stroke-linejoin: miter"/>
   </g>
   <g id="patch_6">
    <path d="M 162.533159 166.447965 
L 183.503135 166.447965 
L 183.503135 145.477989 
L 162.533159 145.477989 
z
" clip-path="url(#p93df3c2527)" style="fill: #d6d6d6; stroke: #ffffff; stroke-width: 0.8; stroke-linejoin: miter"/>
   </g>
   <g id="patch_7">
    <path d="M 162.533159 145.477989 
L 183.503135 145.477989 
L 183.503135 124.508012 
L 162.533159 124.508012 
z
" clip-path="url(#p93df3c2527)" style="fill: #d6d6d6; stroke: #ffffff; stroke-width: 0.8; stroke-linejoin: miter"/>
   </g>
   <g id="patch_8">
    <path d="M 162.533159 124.508012 
L 183.503135 124.508012 
L 183.503135 103.538036 
L 162.533159 103.538036 
z
" clip-path="url(#p93df3c2527)" style="fill: #d6d6d6; stroke: #ffffff; stroke-width: 0.8; stroke-linejoin: miter"/>
   </g>
   <g id="patch_9">
    <path d="M 162.533159 103.538036 
L 183.503135 103.538036 
L 183.503135 82.568059 
L 162.533159 82.568059 
z
" clip-path="url(#p93df3c2527)" style="fill: #d6d6d6; stroke: #ffffff; stroke-width: 0.8; stroke-linejoin: miter"/>
   </g>
   <g id="patch_10">
    <path d="M 183.503135 187.417942 
L 204.473111 187.417942 
L 204.473111 166.447965 
L 183.503135 166.447965 
z
" clip-path="url(#p93df3c2527)" style="fill: #d6d6d6; stroke: #ffffff; stroke-width: 0.8; stroke-linejoin: miter"/>
   </g>
   <g id="patch_11">
    <path d="M 183.503135 166.447965 
L 204.473111 166.447965 
L 204.473111 145.477989 
L 183.503135 145.477989 
z
" clip-path="url(#p93df3c2527)" style="fill: #d6d6d6; stroke: #ffffff; stroke-width: 0.8; stroke-linejoin: miter"/>
   </g>
   <g id="patch_12">
    <path d="M 183.503135 145.477989 
L 204.473111 145.477989 
L 204.473111 124.508012 
L 183.503135 124.508012 
z
" clip-path="url(#p93df3c2527)" style="fill: #e07a3c; stroke: #ffffff; stroke-width: 0.8; stroke-linejoin: miter"/>
   </g>
   <g id="patch_13">
    <path d="M 183.503135 124.508012 
L 204.473111 124.508012 
L 204.473111 103.538036 
L 183.503135 103.538036 
z
" clip-path="url(#p93df3c2527)" style="fill: #8e44ad; stroke: #ffffff; stroke-width: 0.8; stroke-linejoin: miter"/>
   </g>
   <g id="patch_14">
    <path d="M 183.503135 103.538036 
L 204.473111 103.538036 
L 204.473111 82.568059 
L 183.503135 82.568059 
z
" clip-path="url(#p93df3c2527)" style="fill: #e07a3c; stroke: #ffffff; stroke-width: 0.8; stroke-linejoin: miter"/>
   </g>
   <g id="patch_15">
    <path d="M 204.473111 187.417942 
L 225.443088 187.417942 
L 225.443088 166.447965 
L 204.473111 166.447965 
z
" clip-path="url(#p93df3c2527)" style="fill: #d6d6d6; stroke: #ffffff; stroke-width: 0.8; stroke-linejoin: miter"/>
   </g>
   <g id="patch_16">
    <path d="M 204.473111 166.447965 
L 225.443088 166.447965 
L 225.443088 145.477989 
L 204.473111 145.477989 
z
" clip-path="url(#p93df3c2527)" style="fill: #1f4e7a; stroke: #ffffff; stroke-width: 0.8; stroke-linejoin: miter"/>
   </g>
   <g id="patch_17">
    <path d="M 204.473111 145.477989 
L 225.443088 145.477989 
L 225.443088 124.508012 
L 204.473111 124.508012 
z
" clip-path="url(#p93df3c2527)" style="fill: #3d8e5f; stroke: #ffffff; stroke-width: 0.8; stroke-linejoin: miter"/>
   </g>
   <g id="patch_18">
    <path d="M 204.473111 124.508012 
L 225.443088 124.508012 
L 225.443088 103.538036 
L 204.473111 103.538036 
z
" clip-path="url(#p93df3c2527)" style="fill: #1f4e7a; stroke: #ffffff; stroke-width: 0.8; stroke-linejoin: miter"/>
   </g>
   <g id="patch_19">
    <path d="M 204.473111 103.538036 
L 225.443088 103.538036 
L 225.443088 82.568059 
L 204.473111 82.568059 
z
" clip-path="url(#p93df3c2527)" style="fill: #3d8e5f; stroke: #ffffff; stroke-width: 0.8; stroke-linejoin: miter"/>
   </g>
   <g id="patch_20">
    <path d="M 225.443088 187.417942 
L 246.413064 187.417942 
L 246.413064 166.447965 
L 225.443088 166.447965 
z
" clip-path="url(#p93df3c2527)" style="fill: #8e44ad; stroke: #ffffff; stroke-width: 0.8; stroke-linejoin: miter"/>
   </g>
   <g id="patch_21">
    <path d="M 225.443088 166.447965 
L 246.413064 166.447965 
L 246.413064 145.477989 
L 225.443088 145.477989 
z
" clip-path="url(#p93df3c2527)" style="fill: #e07a3c; stroke: #ffffff; stroke-width: 0.8; stroke-linejoin: miter"/>
   </g>
   <g id="patch_22">
    <path d="M 225.443088 145.477989 
L 246.413064 145.477989 
L 246.413064 124.508012 
L 225.443088 124.508012 
z
" clip-path="url(#p93df3c2527)" style="fill: #8e44ad; stroke: #ffffff; stroke-width: 0.8; stroke-linejoin: miter"/>
   </g>
   <g id="patch_23">
    <path d="M 225.443088 124.508012 
L 246.413064 124.508012 
L 246.413064 103.538036 
L 225.443088 103.538036 
z
" clip-path="url(#p93df3c2527)" style="fill: #e07a3c; stroke: #ffffff; stroke-width: 0.8; stroke-linejoin: miter"/>
   </g>
   <g id="patch_24">
    <path d="M 225.443088 103.538036 
L 246.413064 103.538036 
L 246.413064 82.568059 
L 225.443088 82.568059 
z
" clip-path="url(#p93df3c2527)" style="fill: #8e44ad; stroke: #ffffff; stroke-width: 0.8; stroke-linejoin: miter"/>
   </g>
   <g id="patch_25">
    <path d="M 246.413064 187.417942 
L 267.383041 187.417942 
L 267.383041 166.447965 
L 246.413064 166.447965 
z
" clip-path="url(#p93df3c2527)" style="fill: #1f4e7a; stroke: #ffffff; stroke-width: 0.8; stroke-linejoin: miter"/>
   </g>
   <g id="patch_26">
    <path d="M 246.413064 166.447965 
L 267.383041 166.447965 
L 267.383041 145.477989 
L 246.413064 145.477989 
z
" clip-path="url(#p93df3c2527)" style="fill: #3d8e5f; stroke: #ffffff; stroke-width: 0.8; stroke-linejoin: miter"/>
   </g>
   <g id="patch_27">
    <path d="M 246.413064 145.477989 
L 267.383041 145.477989 
L 267.383041 124.508012 
L 246.413064 124.508012 
z
" clip-path="url(#p93df3c2527)" style="fill: #1f4e7a; stroke: #ffffff; stroke-width: 0.8; stroke-linejoin: miter"/>
   </g>
   <g id="patch_28">
    <path d="M 246.413064 124.508012 
L 267.383041 124.508012 
L 267.383041 103.538036 
L 246.413064 103.538036 
z
" clip-path="url(#p93df3c2527)" style="fill: #3d8e5f; stroke: #ffffff; stroke-width: 0.8; stroke-linejoin: miter"/>
   </g>
   <g id="patch_29">
    <path d="M 246.413064 103.538036 
L 267.383041 103.538036 
L 267.383041 82.568059 
L 246.413064 82.568059 
z
" clip-path="url(#p93df3c2527)" style="fill: #1f4e7a; stroke: #ffffff; stroke-width: 0.8; stroke-linejoin: miter"/>
   </g>
   <g id="patch_30">
    <path d="M 298.449672 88.781386 
L 315.924653 88.781386 
L 315.924653 69.364741 
L 298.449672 69.364741 
z
" clip-path="url(#p93df3c2527)" style="fill: #1f4e7a"/>
   </g>
   <g id="patch_31">
    <path d="M 298.449672 116.741354 
L 315.924653 116.741354 
L 315.924653 97.32471 
L 298.449672 97.32471 
z
" clip-path="url(#p93df3c2527)" style="fill: #e07a3c"/>
   </g>
   <g id="patch_32">
    <path d="M 298.449672 144.701323 
L 315.924653 144.701323 
L 315.924653 125.284678 
L 298.449672 125.284678 
z
" clip-path="url(#p93df3c2527)" style="fill: #3d8e5f"/>
   </g>
   <g id="patch_33">
    <path d="M 298.449672 172.661291 
L 315.924653 172.661291 
L 315.924653 153.244647 
L 298.449672 153.244647 
z
" clip-path="url(#p93df3c2527)" style="fill: #8e44ad"/>
   </g>
   <g id="patch_34">
    <path d="M 298.449672 200.62126 
L 315.924653 200.62126 
L 315.924653 181.204615 
L 298.449672 181.204615 
z
" clip-path="url(#p93df3c2527)" style="fill: #d6d6d6"/>
   </g>
   <g id="text_1">
    <!-- fault classes -->
    <g style="fill: #1a2433" transform="translate(22.359058 53.443092) scale(0.1 -0.1)">
     <defs>
      <path id="DejaVuSans-Bold-66" d="M 2841 4863 
L 2841 4128 
L 2222 4128 
Q 1984 4128 1890 4042 
Q 1797 3956 1797 3744 
L 1797 3500 
L 2753 3500 
L 2753 2700 
L 1797 2700 
L 1797 0 
L 678 0 
L 678 2700 
L 122 2700 
L 122 3500 
L 678 3500 
L 678 3744 
Q 678 4316 997 4589 
Q 1316 4863 1984 4863 
L 2841 4863 
z
" transform="scale(0.015625)"/>
      <path id="DejaVuSans-Bold-61" d="M 2106 1575 
Q 1756 1575 1579 1456 
Q 1403 1338 1403 1106 
Q 1403 894 1545 773 
Q 1688 653 1941 653 
Q 2256 653 2472 879 
Q 2688 1106 2688 1447 
L 2688 1575 
L 2106 1575 
z
M 3816 1997 
L 3816 0 
L 2688 0 
L 2688 519 
Q 2463 200 2181 54 
Q 1900 -91 1497 -91 
Q 953 -91 614 226 
Q 275 544 275 1050 
Q 275 1666 698 1953 
Q 1122 2241 2028 2241 
L 2688 2241 
L 2688 2328 
Q 2688 2594 2478 2717 
Q 2269 2841 1825 2841 
Q 1466 2841 1156 2769 
Q 847 2697 581 2553 
L 581 3406 
Q 941 3494 1303 3539 
Q 1666 3584 2028 3584 
Q 2975 3584 3395 3211 
Q 3816 2838 3816 1997 
z
" transform="scale(0.015625)"/>
      <path id="DejaVuSans-Bold-75" d="M 500 1363 
L 500 3500 
L 1625 3500 
L 1625 3150 
Q 1625 2866 1622 2436 
Q 1619 2006 1619 1863 
Q 1619 1441 1641 1255 
Q 1663 1069 1716 984 
Q 1784 875 1895 815 
Q 2006 756 2150 756 
Q 2500 756 2700 1025 
Q 2900 1294 2900 1772 
L 2900 3500 
L 4019 3500 
L 4019 0 
L 2900 0 
L 2900 506 
Q 2647 200 2364 54 
Q 2081 -91 1741 -91 
Q 1134 -91 817 281 
Q 500 653 500 1363 
z
" transform="scale(0.015625)"/>
      <path id="DejaVuSans-Bold-6c" d="M 538 4863 
L 1656 4863 
L 1656 0 
L 538 0 
L 538 4863 
z
" transform="scale(0.015625)"/>
      <path id="DejaVuSans-Bold-74" d="M 1759 4494 
L 1759 3500 
L 2913 3500 
L 2913 2700 
L 1759 2700 
L 1759 1216 
Q 1759 972 1856 886 
Q 1953 800 2241 800 
L 2816 800 
L 2816 0 
L 1856 0 
Q 1194 0 917 276 
Q 641 553 641 1216 
L 641 2700 
L 84 2700 
L 84 3500 
L 641 3500 
L 641 4494 
L 1759 4494 
z
" transform="scale(0.015625)"/>
      <path id="DejaVuSans-Bold-20" transform="scale(0.015625)"/>
      <path id="DejaVuSans-Bold-63" d="M 3366 3391 
L 3366 2478 
Q 3138 2634 2908 2709 
Q 2678 2784 2431 2784 
Q 1963 2784 1702 2511 
Q 1441 2238 1441 1747 
Q 1441 1256 1702 982 
Q 1963 709 2431 709 
Q 2694 709 2930 787 
Q 3166 866 3366 1019 
L 3366 103 
Q 3103 6 2833 -42 
Q 2563 -91 2291 -91 
Q 1344 -91 809 395 
Q 275 881 275 1747 
Q 275 2613 809 3098 
Q 1344 3584 2291 3584 
Q 2566 3584 2833 3536 
Q 3100 3488 3366 3391 
z
" transform="scale(0.015625)"/>
      <path id="DejaVuSans-Bold-73" d="M 3272 3391 
L 3272 2541 
Q 2913 2691 2578 2766 
Q 2244 2841 1947 2841 
Q 1628 2841 1473 2761 
Q 1319 2681 1319 2516 
Q 1319 2381 1436 2309 
Q 1553 2238 1856 2203 
L 2053 2175 
Q 2913 2066 3209 1816 
Q 3506 1566 3506 1031 
Q 3506 472 3093 190 
Q 2681 -91 1863 -91 
Q 1516 -91 1145 -36 
Q 775 19 384 128 
L 384 978 
Q 719 816 1070 734 
Q 1422 653 1784 653 
Q 2113 653 2278 743 
Q 2444 834 2444 1013 
Q 2444 1163 2330 1236 
Q 2216 1309 1875 1350 
L 1678 1375 
Q 931 1469 631 1722 
Q 331 1975 331 2491 
Q 331 3047 712 3315 
Q 1094 3584 1881 3584 
Q 2191 3584 2531 3537 
Q 2872 3491 3272 3391 
z
" transform="scale(0.015625)"/>
      <path id="DejaVuSans-Bold-65" d="M 4031 1759 
L 4031 1441 
L 1416 1441 
Q 1456 1047 1700 850 
Q 1944 653 2381 653 
Q 2734 653 3104 758 
Q 3475 863 3866 1075 
L 3866 213 
Q 3469 63 3072 -14 
Q 2675 -91 2278 -91 
Q 1328 -91 801 392 
Q 275 875 275 1747 
Q 275 2603 792 3093 
Q 1309 3584 2216 3584 
Q 3041 3584 3536 3087 
Q 4031 2591 4031 1759 
z
M 2881 2131 
Q 2881 2450 2695 2645 
Q 2509 2841 2209 2841 
Q 1884 2841 1681 2658 
Q 1478 2475 1428 2131 
L 2881 2131 
z
" transform="scale(0.015625)"/>
     </defs>
     <use xlink:href="#DejaVuSans-Bold-66"/>
     <use xlink:href="#DejaVuSans-Bold-61" transform="translate(43.505859 0)"/>
     <use xlink:href="#DejaVuSans-Bold-75" transform="translate(110.986328 0)"/>
     <use xlink:href="#DejaVuSans-Bold-6c" transform="translate(182.177734 0)"/>
     <use xlink:href="#DejaVuSans-Bold-74" transform="translate(216.455078 0)"/>
     <use xlink:href="#DejaVuSans-Bold-20" transform="translate(264.257812 0)"/>
     <use xlink:href="#DejaVuSans-Bold-63" transform="translate(299.072266 0)"/>
     <use xlink:href="#DejaVuSans-Bold-6c" transform="translate(358.349609 0)"/>
     <use xlink:href="#DejaVuSans-Bold-61" transform="translate(392.626953 0)"/>
     <use xlink:href="#DejaVuSans-Bold-73" transform="translate(460.107422 0)"/>
     <use xlink:href="#DejaVuSans-Bold-73" transform="translate(519.628906 0)"/>
     <use xlink:href="#DejaVuSans-Bold-65" transform="translate(579.150391 0)"/>
     <use xlink:href="#DejaVuSans-Bold-73" transform="translate(646.972656 0)"/>
    </g>
   </g>
   <g id="text_2">
    <!-- $f_1$: motor-1 fail -->
    <g style="fill: #1a2433" transform="translate(24.743277 97.866483) scale(0.09 -0.09)">
     <defs>
      <path id="DejaVuSans-Oblique-66" d="M 3059 4863 
L 2969 4384 
L 2419 4384 
Q 2106 4384 1964 4261 
Q 1822 4138 1753 3809 
L 1691 3500 
L 2638 3500 
L 2553 3053 
L 1606 3053 
L 1013 0 
L 434 0 
L 1031 3053 
L 481 3053 
L 563 3500 
L 1113 3500 
L 1159 3744 
Q 1278 4363 1576 4613 
Q 1875 4863 2516 4863 
L 3059 4863 
z
" transform="scale(0.015625)"/>
      <path id="DejaVuSans-31" d="M 794 531 
L 1825 531 
L 1825 4091 
L 703 3866 
L 703 4441 
L 1819 4666 
L 2450 4666 
L 2450 531 
L 3481 531 
L 3481 0 
L 794 0 
L 794 531 
z
" transform="scale(0.015625)"/>
      <path id="DejaVuSans-3a" d="M 750 794 
L 1409 794 
L 1409 0 
L 750 0 
L 750 794 
z
M 750 3309 
L 1409 3309 
L 1409 2516 
L 750 2516 
L 750 3309 
z
" transform="scale(0.015625)"/>
      <path id="DejaVuSans-20" transform="scale(0.015625)"/>
      <path id="DejaVuSans-6d" d="M 3328 2828 
Q 3544 3216 3844 3400 
Q 4144 3584 4550 3584 
Q 5097 3584 5394 3201 
Q 5691 2819 5691 2113 
L 5691 0 
L 5113 0 
L 5113 2094 
Q 5113 2597 4934 2840 
Q 4756 3084 4391 3084 
Q 3944 3084 3684 2787 
Q 3425 2491 3425 1978 
L 3425 0 
L 2847 0 
L 2847 2094 
Q 2847 2600 2669 2842 
Q 2491 3084 2119 3084 
Q 1678 3084 1418 2786 
Q 1159 2488 1159 1978 
L 1159 0 
L 581 0 
L 581 3500 
L 1159 3500 
L 1159 2956 
Q 1356 3278 1631 3431 
Q 1906 3584 2284 3584 
Q 2666 3584 2933 3390 
Q 3200 3197 3328 2828 
z
" transform="scale(0.015625)"/>
      <path id="DejaVuSans-6f" d="M 1959 3097 
Q 1497 3097 1228 2736 
Q 959 2375 959 1747 
Q 959 1119 1226 758 
Q 1494 397 1959 397 
Q 2419 397 2687 759 
Q 2956 1122 2956 1747 
Q 2956 2369 2687 2733 
Q 2419 3097 1959 3097 
z
M 1959 3584 
Q 2709 3584 3137 3096 
Q 3566 2609 3566 1747 
Q 3566 888 3137 398 
Q 2709 -91 1959 -91 
Q 1206 -91 779 398 
Q 353 888 353 1747 
Q 353 2609 779 3096 
Q 1206 3584 1959 3584 
z
" transform="scale(0.015625)"/>
      <path id="DejaVuSans-74" d="M 1172 4494 
L 1172 3500 
L 2356 3500 
L 2356 3053 
L 1172 3053 
L 1172 1153 
Q 1172 725 1289 603 
Q 1406 481 1766 481 
L 2356 481 
L 2356 0 
L 1766 0 
Q 1100 0 847 248 
Q 594 497 594 1153 
L 594 3053 
L 172 3053 
L 172 3500 
L 594 3500 
L 594 4494 
L 1172 4494 
z
" transform="scale(0.015625)"/>
      <path id="DejaVuSans-72" d="M 2631 2963 
Q 2534 3019 2420 3045 
Q 2306 3072 2169 3072 
Q 1681 3072 1420 2755 
Q 1159 2438 1159 1844 
L 1159 0 
L 581 0 
L 581 3500 
L 1159 3500 
L 1159 2956 
Q 1341 3275 1631 3429 
Q 1922 3584 2338 3584 
Q 2397 3584 2469 3576 
Q 2541 3569 2628 3553 
L 2631 2963 
z
" transform="scale(0.015625)"/>
      <path id="DejaVuSans-2d" d="M 313 2009 
L 1997 2009 
L 1997 1497 
L 313 1497 
L 313 2009 
z
" transform="scale(0.015625)"/>
      <path id="DejaVuSans-66" d="M 2375 4863 
L 2375 4384 
L 1825 4384 
Q 1516 4384 1395 4259 
Q 1275 4134 1275 3809 
L 1275 3500 
L 2222 3500 
L 2222 3053 
L 1275 3053 
L 1275 0 
L 697 0 
L 697 3053 
L 147 3053 
L 147 3500 
L 697 3500 
L 697 3744 
Q 697 4328 969 4595 
Q 1241 4863 1831 4863 
L 2375 4863 
z
" transform="scale(0.015625)"/>
      <path id="DejaVuSans-61" d="M 2194 1759 
Q 1497 1759 1228 1600 
Q 959 1441 959 1056 
Q 959 750 1161 570 
Q 1363 391 1709 391 
Q 2188 391 2477 730 
Q 2766 1069 2766 1631 
L 2766 1759 
L 2194 1759 
z
M 3341 1997 
L 3341 0 
L 2766 0 
L 2766 531 
Q 2569 213 2275 61 
Q 1981 -91 1556 -91 
Q 1019 -91 701 211 
Q 384 513 384 1019 
Q 384 1609 779 1909 
Q 1175 2209 1959 2209 
L 2766 2209 
L 2766 2266 
Q 2766 2663 2505 2880 
Q 2244 3097 1772 3097 
Q 1472 3097 1187 3025 
Q 903 2953 641 2809 
L 641 3341 
Q 956 3463 1253 3523 
Q 1550 3584 1831 3584 
Q 2591 3584 2966 3190 
Q 3341 2797 3341 1997 
z
" transform="scale(0.015625)"/>
      <path id="DejaVuSans-69" d="M 603 3500 
L 1178 3500 
L 1178 0 
L 603 0 
L 603 3500 
z
M 603 4863 
L 1178 4863 
L 1178 4134 
L 603 4134 
L 603 4863 
z
" transform="scale(0.015625)"/>
      <path id="DejaVuSans-6c" d="M 603 4863 
L 1178 4863 
L 1178 0 
L 603 0 
L 603 4863 
z
" transform="scale(0.015625)"/>
     </defs>
     <use xlink:href="#DejaVuSans-Oblique-66" transform="translate(0 0.015625)"/>
     <use xlink:href="#DejaVuSans-31" transform="translate(35.205078 -16.390625) scale(0.7)"/>
     <use xlink:href="#DejaVuSans-3a" transform="translate(82.475586 0.015625)"/>
     <use xlink:href="#DejaVuSans-20" transform="translate(116.166992 0.015625)"/>
     <use xlink:href="#DejaVuSans-6d" transform="translate(147.954102 0.015625)"/>
     <use xlink:href="#DejaVuSans-6f" transform="translate(245.366211 0.015625)"/>
     <use xlink:href="#DejaVuSans-74" transform="translate(306.547852 0.015625)"/>
     <use xlink:href="#DejaVuSans-6f" transform="translate(345.756836 0.015625)"/>
     <use xlink:href="#DejaVuSans-72" transform="translate(406.938477 0.015625)"/>
     <use xlink:href="#DejaVuSans-2d" transform="translate(448.051758 0.015625)"/>
     <use xlink:href="#DejaVuSans-31" transform="translate(484.135742 0.015625)"/>
     <use xlink:href="#DejaVuSans-20" transform="translate(547.758789 0.015625)"/>
     <use xlink:href="#DejaVuSans-66" transform="translate(579.545898 0.015625)"/>
     <use xlink:href="#DejaVuSans-61" transform="translate(614.750977 0.015625)"/>
     <use xlink:href="#DejaVuSans-69" transform="translate(676.030273 0.015625)"/>
     <use xlink:href="#DejaVuSans-6c" transform="translate(703.813477 0.015625)"/>
    </g>
   </g>
   <g id="text_3">
    <!-- $f_2$: GPS loss -->
    <g style="fill: #1a2433" transform="translate(31.808277 138.253104) scale(0.09 -0.09)">
     <defs>
      <path id="DejaVuSans-32" d="M 1228 531 
L 3431 531 
L 3431 0 
L 469 0 
L 469 531 
Q 828 903 1448 1529 
Q 2069 2156 2228 2338 
Q 2531 2678 2651 2914 
Q 2772 3150 2772 3378 
Q 2772 3750 2511 3984 
Q 2250 4219 1831 4219 
Q 1534 4219 1204 4116 
Q 875 4013 500 3803 
L 500 4441 
Q 881 4594 1212 4672 
Q 1544 4750 1819 4750 
Q 2544 4750 2975 4387 
Q 3406 4025 3406 3419 
Q 3406 3131 3298 2873 
Q 3191 2616 2906 2266 
Q 2828 2175 2409 1742 
Q 1991 1309 1228 531 
z
" transform="scale(0.015625)"/>
      <path id="DejaVuSans-47" d="M 3809 666 
L 3809 1919 
L 2778 1919 
L 2778 2438 
L 4434 2438 
L 4434 434 
Q 4069 175 3628 42 
Q 3188 -91 2688 -91 
Q 1594 -91 976 548 
Q 359 1188 359 2328 
Q 359 3472 976 4111 
Q 1594 4750 2688 4750 
Q 3144 4750 3555 4637 
Q 3966 4525 4313 4306 
L 4313 3634 
Q 3963 3931 3569 4081 
Q 3175 4231 2741 4231 
Q 1884 4231 1454 3753 
Q 1025 3275 1025 2328 
Q 1025 1384 1454 906 
Q 1884 428 2741 428 
Q 3075 428 3337 486 
Q 3600 544 3809 666 
z
" transform="scale(0.015625)"/>
      <path id="DejaVuSans-50" d="M 1259 4147 
L 1259 2394 
L 2053 2394 
Q 2494 2394 2734 2622 
Q 2975 2850 2975 3272 
Q 2975 3691 2734 3919 
Q 2494 4147 2053 4147 
L 1259 4147 
z
M 628 4666 
L 2053 4666 
Q 2838 4666 3239 4311 
Q 3641 3956 3641 3272 
Q 3641 2581 3239 2228 
Q 2838 1875 2053 1875 
L 1259 1875 
L 1259 0 
L 628 0 
L 628 4666 
z
" transform="scale(0.015625)"/>
      <path id="DejaVuSans-53" d="M 3425 4513 
L 3425 3897 
Q 3066 4069 2747 4153 
Q 2428 4238 2131 4238 
Q 1616 4238 1336 4038 
Q 1056 3838 1056 3469 
Q 1056 3159 1242 3001 
Q 1428 2844 1947 2747 
L 2328 2669 
Q 3034 2534 3370 2195 
Q 3706 1856 3706 1288 
Q 3706 609 3251 259 
Q 2797 -91 1919 -91 
Q 1588 -91 1214 -16 
Q 841 59 441 206 
L 441 856 
Q 825 641 1194 531 
Q 1563 422 1919 422 
Q 2459 422 2753 634 
Q 3047 847 3047 1241 
Q 3047 1584 2836 1778 
Q 2625 1972 2144 2069 
L 1759 2144 
Q 1053 2284 737 2584 
Q 422 2884 422 3419 
Q 422 4038 858 4394 
Q 1294 4750 2059 4750 
Q 2388 4750 2728 4690 
Q 3069 4631 3425 4513 
z
" transform="scale(0.015625)"/>
      <path id="DejaVuSans-73" d="M 2834 3397 
L 2834 2853 
Q 2591 2978 2328 3040 
Q 2066 3103 1784 3103 
Q 1356 3103 1142 2972 
Q 928 2841 928 2578 
Q 928 2378 1081 2264 
Q 1234 2150 1697 2047 
L 1894 2003 
Q 2506 1872 2764 1633 
Q 3022 1394 3022 966 
Q 3022 478 2636 193 
Q 2250 -91 1575 -91 
Q 1294 -91 989 -36 
Q 684 19 347 128 
L 347 722 
Q 666 556 975 473 
Q 1284 391 1588 391 
Q 1994 391 2212 530 
Q 2431 669 2431 922 
Q 2431 1156 2273 1281 
Q 2116 1406 1581 1522 
L 1381 1569 
Q 847 1681 609 1914 
Q 372 2147 372 2553 
Q 372 3047 722 3315 
Q 1072 3584 1716 3584 
Q 2034 3584 2315 3537 
Q 2597 3491 2834 3397 
z
" transform="scale(0.015625)"/>
     </defs>
     <use xlink:href="#DejaVuSans-Oblique-66" transform="translate(0 0.015625)"/>
     <use xlink:href="#DejaVuSans-32" transform="translate(35.205078 -16.390625) scale(0.7)"/>
     <use xlink:href="#DejaVuSans-3a" transform="translate(82.475586 0.015625)"/>
     <use xlink:href="#DejaVuSans-20" transform="translate(116.166992 0.015625)"/>
     <use xlink:href="#DejaVuSans-47" transform="translate(147.954102 0.015625)"/>
     <use xlink:href="#DejaVuSans-50" transform="translate(225.444336 0.015625)"/>
     <use xlink:href="#DejaVuSans-53" transform="translate(285.74707 0.015625)"/>
     <use xlink:href="#DejaVuSans-20" transform="translate(349.223633 0.015625)"/>
     <use xlink:href="#DejaVuSans-6c" transform="translate(381.010742 0.015625)"/>
     <use xlink:href="#DejaVuSans-6f" transform="translate(408.793945 0.015625)"/>
     <use xlink:href="#DejaVuSans-73" transform="translate(469.975586 0.015625)"/>
     <use xlink:href="#DejaVuSans-73" transform="translate(522.075195 0.015625)"/>
    </g>
   </g>
   <g id="text_4">
    <!-- $f_3$: wind &gt; 12 m/s -->
    <g style="fill: #1a2433" transform="translate(18.353277 178.639725) scale(0.09 -0.09)">
     <defs>
      <path id="DejaVuSans-33" d="M 2597 2516 
Q 3050 2419 3304 2112 
Q 3559 1806 3559 1356 
Q 3559 666 3084 287 
Q 2609 -91 1734 -91 
Q 1441 -91 1130 -33 
Q 819 25 488 141 
L 488 750 
Q 750 597 1062 519 
Q 1375 441 1716 441 
Q 2309 441 2620 675 
Q 2931 909 2931 1356 
Q 2931 1769 2642 2001 
Q 2353 2234 1838 2234 
L 1294 2234 
L 1294 2753 
L 1863 2753 
Q 2328 2753 2575 2939 
Q 2822 3125 2822 3475 
Q 2822 3834 2567 4026 
Q 2313 4219 1838 4219 
Q 1578 4219 1281 4162 
Q 984 4106 628 3988 
L 628 4550 
Q 988 4650 1302 4700 
Q 1616 4750 1894 4750 
Q 2613 4750 3031 4423 
Q 3450 4097 3450 3541 
Q 3450 3153 3228 2886 
Q 3006 2619 2597 2516 
z
" transform="scale(0.015625)"/>
      <path id="DejaVuSans-77" d="M 269 3500 
L 844 3500 
L 1563 769 
L 2278 3500 
L 2956 3500 
L 3675 769 
L 4391 3500 
L 4966 3500 
L 4050 0 
L 3372 0 
L 2619 2869 
L 1863 0 
L 1184 0 
L 269 3500 
z
" transform="scale(0.015625)"/>
      <path id="DejaVuSans-6e" d="M 3513 2113 
L 3513 0 
L 2938 0 
L 2938 2094 
Q 2938 2591 2744 2837 
Q 2550 3084 2163 3084 
Q 1697 3084 1428 2787 
Q 1159 2491 1159 1978 
L 1159 0 
L 581 0 
L 581 3500 
L 1159 3500 
L 1159 2956 
Q 1366 3272 1645 3428 
Q 1925 3584 2291 3584 
Q 2894 3584 3203 3211 
Q 3513 2838 3513 2113 
z
" transform="scale(0.015625)"/>
      <path id="DejaVuSans-64" d="M 2906 2969 
L 2906 4863 
L 3481 4863 
L 3481 0 
L 2906 0 
L 2906 525 
Q 2725 213 2448 61 
Q 2172 -91 1784 -91 
Q 1150 -91 751 415 
Q 353 922 353 1747 
Q 353 2572 751 3078 
Q 1150 3584 1784 3584 
Q 2172 3584 2448 3432 
Q 2725 3281 2906 2969 
z
M 947 1747 
Q 947 1113 1208 752 
Q 1469 391 1925 391 
Q 2381 391 2643 752 
Q 2906 1113 2906 1747 
Q 2906 2381 2643 2742 
Q 2381 3103 1925 3103 
Q 1469 3103 1208 2742 
Q 947 2381 947 1747 
z
" transform="scale(0.015625)"/>
      <path id="DejaVuSans-3e" d="M 678 3150 
L 678 3719 
L 4684 2266 
L 4684 1747 
L 678 294 
L 678 863 
L 3897 2003 
L 678 3150 
z
" transform="scale(0.015625)"/>
      <path id="DejaVuSans-2f" d="M 1625 4666 
L 2156 4666 
L 531 -594 
L 0 -594 
L 1625 4666 
z
" transform="scale(0.015625)"/>
     </defs>
     <use xlink:href="#DejaVuSans-Oblique-66" transform="translate(0 0.015625)"/>
     <use xlink:href="#DejaVuSans-33" transform="translate(35.205078 -16.390625) scale(0.7)"/>
     <use xlink:href="#DejaVuSans-3a" transform="translate(82.475586 0.015625)"/>
     <use xlink:href="#DejaVuSans-20" transform="translate(116.166992 0.015625)"/>
     <use xlink:href="#DejaVuSans-77" transform="translate(147.954102 0.015625)"/>
     <use xlink:href="#DejaVuSans-69" transform="translate(229.741211 0.015625)"/>
     <use xlink:href="#DejaVuSans-6e" transform="translate(257.524414 0.015625)"/>
     <use xlink:href="#DejaVuSans-64" transform="translate(320.90332 0.015625)"/>
     <use xlink:href="#DejaVuSans-20" transform="translate(384.379883 0.015625)"/>
     <use xlink:href="#DejaVuSans-3e" transform="translate(416.166992 0.015625)"/>
     <use xlink:href="#DejaVuSans-20" transform="translate(499.956055 0.015625)"/>
     <use xlink:href="#DejaVuSans-31" transform="translate(531.743164 0.015625)"/>
     <use xlink:href="#DejaVuSans-32" transform="translate(595.366211 0.015625)"/>
     <use xlink:href="#DejaVuSans-20" transform="translate(658.989258 0.015625)"/>
     <use xlink:href="#DejaVuSans-6d" transform="translate(690.776367 0.015625)"/>
     <use xlink:href="#DejaVuSans-2f" transform="translate(788.188477 0.015625)"/>
     <use xlink:href="#DejaVuSans-73" transform="translate(821.879883 0.015625)"/>
    </g>
   </g>
   <g id="text_5">
    <!-- parameters $\mathcal{P}$ -->
    <g style="fill: #1a2433" transform="translate(177.2581 53.443092) scale(0.1 -0.1)">
     <defs>
      <path id="DejaVuSans-Bold-70" d="M 1656 506 
L 1656 -1331 
L 538 -1331 
L 538 3500 
L 1656 3500 
L 1656 2988 
Q 1888 3294 2169 3439 
Q 2450 3584 2816 3584 
Q 3463 3584 3878 3070 
Q 4294 2556 4294 1747 
Q 4294 938 3878 423 
Q 3463 -91 2816 -91 
Q 2450 -91 2169 54 
Q 1888 200 1656 506 
z
M 2400 2772 
Q 2041 2772 1848 2508 
Q 1656 2244 1656 1747 
Q 1656 1250 1848 986 
Q 2041 722 2400 722 
Q 2759 722 2948 984 
Q 3138 1247 3138 1747 
Q 3138 2247 2948 2509 
Q 2759 2772 2400 2772 
z
" transform="scale(0.015625)"/>
      <path id="DejaVuSans-Bold-72" d="M 3138 2547 
Q 2991 2616 2845 2648 
Q 2700 2681 2553 2681 
Q 2122 2681 1889 2404 
Q 1656 2128 1656 1613 
L 1656 0 
L 538 0 
L 538 3500 
L 1656 3500 
L 1656 2925 
Q 1872 3269 2151 3426 
Q 2431 3584 2822 3584 
Q 2878 3584 2943 3579 
Q 3009 3575 3134 3559 
L 3138 2547 
z
" transform="scale(0.015625)"/>
      <path id="DejaVuSans-Bold-6d" d="M 3781 2919 
Q 3994 3244 4286 3414 
Q 4578 3584 4928 3584 
Q 5531 3584 5847 3212 
Q 6163 2841 6163 2131 
L 6163 0 
L 5038 0 
L 5038 1825 
Q 5041 1866 5042 1909 
Q 5044 1953 5044 2034 
Q 5044 2406 4934 2573 
Q 4825 2741 4581 2741 
Q 4263 2741 4089 2478 
Q 3916 2216 3909 1719 
L 3909 0 
L 2784 0 
L 2784 1825 
Q 2784 2406 2684 2573 
Q 2584 2741 2328 2741 
Q 2006 2741 1831 2477 
Q 1656 2213 1656 1722 
L 1656 0 
L 531 0 
L 531 3500 
L 1656 3500 
L 1656 2988 
Q 1863 3284 2130 3434 
Q 2397 3584 2719 3584 
Q 3081 3584 3359 3409 
Q 3638 3234 3781 2919 
z
" transform="scale(0.015625)"/>
      <path id="STIXNonUnicode-Italic-e23c" d="M 1856 4237 
L 2490 4237 
Q 3014 4237 3385 4189 
Q 3757 4141 3981 4057 
Q 4205 3974 4329 3840 
Q 4454 3706 4496 3562 
Q 4538 3418 4538 3213 
Q 4538 3008 4480 2800 
Q 4422 2592 4249 2342 
Q 4077 2093 3808 1904 
Q 3539 1715 3075 1587 
Q 2611 1459 2010 1459 
L 2067 1613 
Q 2912 1696 3395 2121 
Q 3878 2547 3878 3187 
Q 3878 3622 3622 3801 
Q 3366 3981 2739 3981 
Q 2579 3981 2512 3904 
Q 2445 3827 2381 3597 
L 1574 762 
Q 1357 0 352 0 
L 403 154 
Q 595 154 700 317 
Q 806 480 928 902 
L 1498 2854 
Q 1690 3533 1690 3661 
Q 1690 3770 1626 3824 
Q 1562 3878 1395 3878 
Q 1203 3878 1017 3817 
Q 832 3757 739 3699 
Q 646 3642 508 3533 
Q 371 3424 358 3418 
L 243 3539 
Q 973 4237 1856 4237 
z
" transform="scale(0.015625)"/>
     </defs>
     <use xlink:href="#DejaVuSans-Bold-70" transform="translate(0 0.78125)"/>
     <use xlink:href="#DejaVuSans-Bold-61" transform="translate(71.582031 0.78125)"/>
     <use xlink:href="#DejaVuSans-Bold-72" transform="translate(139.0625 0.78125)"/>
     <use xlink:href="#DejaVuSans-Bold-61" transform="translate(188.378906 0.78125)"/>
     <use xlink:href="#DejaVuSans-Bold-6d" transform="translate(255.859375 0.78125)"/>
     <use xlink:href="#DejaVuSans-Bold-65" transform="translate(360.058594 0.78125)"/>
     <use xlink:href="#DejaVuSans-Bold-74" transform="translate(427.880859 0.78125)"/>
     <use xlink:href="#DejaVuSans-Bold-65" transform="translate(475.683594 0.78125)"/>
     <use xlink:href="#DejaVuSans-Bold-72" transform="translate(543.505859 0.78125)"/>
     <use xlink:href="#DejaVuSans-Bold-73" transform="translate(592.822266 0.78125)"/>
     <use xlink:href="#DejaVuSans-Bold-20" transform="translate(652.34375 0.78125)"/>
     <use xlink:href="#STIXNonUnicode-Italic-e23c" transform="translate(687.158203 0.78125)"/>
    </g>
   </g>
   <g id="patch_35">
    <path d="M 155.543166 185.420163 
Q 155.543166 134.02267 155.543166 83.631408 
" style="fill: none; stroke: #9aa3ad; stroke-width: 0.9; stroke-linecap: round"/>
    <path d="M 153.543166 87.631408 
L 155.543166 83.631408 
L 157.543166 87.631408 
" style="fill: none; stroke: #9aa3ad; stroke-width: 0.9; stroke-linecap: round"/>
   </g>
   <g id="text_6">
    <!-- altitude -->
    <g style="fill: #9aa3ad" transform="translate(145.461983 151.297727) rotate(-90) scale(0.085 -0.085)">
     <defs>
      <path id="DejaVuSans-75" d="M 544 1381 
L 544 3500 
L 1119 3500 
L 1119 1403 
Q 1119 906 1312 657 
Q 1506 409 1894 409 
Q 2359 409 2629 706 
Q 2900 1003 2900 1516 
L 2900 3500 
L 3475 3500 
L 3475 0 
L 2900 0 
L 2900 538 
Q 2691 219 2414 64 
Q 2138 -91 1772 -91 
Q 1169 -91 856 284 
Q 544 659 544 1381 
z
M 1991 3584 
L 1991 3584 
z
" transform="scale(0.015625)"/>
      <path id="DejaVuSans-65" d="M 3597 1894 
L 3597 1613 
L 953 1613 
Q 991 1019 1311 708 
Q 1631 397 2203 397 
Q 2534 397 2845 478 
Q 3156 559 3463 722 
L 3463 178 
Q 3153 47 2828 -22 
Q 2503 -91 2169 -91 
Q 1331 -91 842 396 
Q 353 884 353 1716 
Q 353 2575 817 3079 
Q 1281 3584 2069 3584 
Q 2775 3584 3186 3129 
Q 3597 2675 3597 1894 
z
M 3022 2063 
Q 3016 2534 2758 2815 
Q 2500 3097 2075 3097 
Q 1594 3097 1305 2825 
Q 1016 2553 972 2059 
L 3022 2063 
z
" transform="scale(0.015625)"/>
     </defs>
     <use xlink:href="#DejaVuSans-61"/>
     <use xlink:href="#DejaVuSans-6c" transform="translate(61.279297 0)"/>
     <use xlink:href="#DejaVuSans-74" transform="translate(89.0625 0)"/>
     <use xlink:href="#DejaVuSans-69" transform="translate(128.271484 0)"/>
     <use xlink:href="#DejaVuSans-74" transform="translate(156.054688 0)"/>
     <use xlink:href="#DejaVuSans-75" transform="translate(195.263672 0)"/>
     <use xlink:href="#DejaVuSans-64" transform="translate(258.642578 0)"/>
     <use xlink:href="#DejaVuSans-65" transform="translate(322.119141 0)"/>
    </g>
   </g>
   <g id="patch_36">
    <path d="M 164.530937 194.407934 
Q 215.92843 194.407934 266.319692 194.407934 
" style="fill: none; stroke: #9aa3ad; stroke-width: 0.9; stroke-linecap: round"/>
    <path d="M 262.319692 192.407934 
L 266.319692 194.407934 
L 262.319692 196.407934 
" style="fill: none; stroke: #9aa3ad; stroke-width: 0.9; stroke-linecap: round"/>
   </g>
   <g id="text_7">
    <!-- speed -->
    <g style="fill: #9aa3ad" transform="translate(202.117787 209.180055) scale(0.085 -0.085)">
     <defs>
      <path id="DejaVuSans-70" d="M 1159 525 
L 1159 -1331 
L 581 -1331 
L 581 3500 
L 1159 3500 
L 1159 2969 
Q 1341 3281 1617 3432 
Q 1894 3584 2278 3584 
Q 2916 3584 3314 3078 
Q 3713 2572 3713 1747 
Q 3713 922 3314 415 
Q 2916 -91 2278 -91 
Q 1894 -91 1617 61 
Q 1341 213 1159 525 
z
M 3116 1747 
Q 3116 2381 2855 2742 
Q 2594 3103 2138 3103 
Q 1681 3103 1420 2742 
Q 1159 2381 1159 1747 
Q 1159 1113 1420 752 
Q 1681 391 2138 391 
Q 2594 391 2855 752 
Q 3116 1113 3116 1747 
z
" transform="scale(0.015625)"/>
     </defs>
     <use xlink:href="#DejaVuSans-73"/>
     <use xlink:href="#DejaVuSans-70" transform="translate(52.099609 0)"/>
     <use xlink:href="#DejaVuSans-65" transform="translate(115.576172 0)"/>
     <use xlink:href="#DejaVuSans-65" transform="translate(177.099609 0)"/>
     <use xlink:href="#DejaVuSans-64" transform="translate(238.623047 0)"/>
    </g>
   </g>
   <g id="text_8">
    <!-- strategies $\Sigma_f$ -->
    <g style="fill: #1a2433" transform="translate(310.04962 53.443092) scale(0.1 -0.1)">
     <defs>
      <path id="DejaVuSans-Bold-67" d="M 2919 594 
Q 2688 288 2409 144 
Q 2131 0 1766 0 
Q 1125 0 706 504 
Q 288 1009 288 1791 
Q 288 2575 706 3076 
Q 1125 3578 1766 3578 
Q 2131 3578 2409 3434 
Q 2688 3291 2919 2981 
L 2919 3500 
L 4044 3500 
L 4044 353 
Q 4044 -491 3511 -936 
Q 2978 -1381 1966 -1381 
Q 1638 -1381 1331 -1331 
Q 1025 -1281 716 -1178 
L 716 -306 
Q 1009 -475 1290 -558 
Q 1572 -641 1856 -641 
Q 2406 -641 2662 -400 
Q 2919 -159 2919 353 
L 2919 594 
z
M 2181 2772 
Q 1834 2772 1640 2515 
Q 1447 2259 1447 1791 
Q 1447 1309 1634 1061 
Q 1822 813 2181 813 
Q 2531 813 2725 1069 
Q 2919 1325 2919 1791 
Q 2919 2259 2725 2515 
Q 2531 2772 2181 2772 
z
" transform="scale(0.015625)"/>
      <path id="DejaVuSans-Bold-69" d="M 538 3500 
L 1656 3500 
L 1656 0 
L 538 0 
L 538 3500 
z
M 538 4863 
L 1656 4863 
L 1656 3950 
L 538 3950 
L 538 4863 
z
" transform="scale(0.015625)"/>
      <path id="DejaVuSans-3a3" d="M 1353 531 
L 3634 531 
L 3634 0 
L 628 0 
L 628 531 
L 2125 2481 
L 628 4134 
L 628 4666 
L 3578 4666 
L 3578 4134 
L 1353 4134 
L 2850 2494 
L 1353 531 
z
" transform="scale(0.015625)"/>
     </defs>
     <use xlink:href="#DejaVuSans-Bold-73" transform="translate(0 0.015625)"/>
     <use xlink:href="#DejaVuSans-Bold-74" transform="translate(59.521484 0.015625)"/>
     <use xlink:href="#DejaVuSans-Bold-72" transform="translate(107.324219 0.015625)"/>
     <use xlink:href="#DejaVuSans-Bold-61" transform="translate(156.640625 0.015625)"/>
     <use xlink:href="#DejaVuSans-Bold-74" transform="translate(224.121094 0.015625)"/>
     <use xlink:href="#DejaVuSans-Bold-65" transform="translate(271.923828 0.015625)"/>
     <use xlink:href="#DejaVuSans-Bold-67" transform="translate(339.746094 0.015625)"/>
     <use xlink:href="#DejaVuSans-Bold-69" transform="translate(411.328125 0.015625)"/>
     <use xlink:href="#DejaVuSans-Bold-65" transform="translate(445.605469 0.015625)"/>
     <use xlink:href="#DejaVuSans-Bold-73" transform="translate(513.427734 0.015625)"/>
     <use xlink:href="#DejaVuSans-Bold-20" transform="translate(572.949219 0.015625)"/>
     <use xlink:href="#DejaVuSans-3a3" transform="translate(607.763672 0.015625)"/>
     <use xlink:href="#DejaVuSans-Oblique-66" transform="translate(671.904297 -16.390625) scale(0.7)"/>
    </g>
   </g>
   <g id="text_9">
    <!-- Strategy A -->
    <g style="fill: #1a2433" transform="translate(323.691311 81.69447) scale(0.095 -0.095)">
     <defs>
      <path id="DejaVuSans-67" d="M 2906 1791 
Q 2906 2416 2648 2759 
Q 2391 3103 1925 3103 
Q 1463 3103 1205 2759 
Q 947 2416 947 1791 
Q 947 1169 1205 825 
Q 1463 481 1925 481 
Q 2391 481 2648 825 
Q 2906 1169 2906 1791 
z
M 3481 434 
Q 3481 -459 3084 -895 
Q 2688 -1331 1869 -1331 
Q 1566 -1331 1297 -1286 
Q 1028 -1241 775 -1147 
L 775 -588 
Q 1028 -725 1275 -790 
Q 1522 -856 1778 -856 
Q 2344 -856 2625 -561 
Q 2906 -266 2906 331 
L 2906 616 
Q 2728 306 2450 153 
Q 2172 0 1784 0 
Q 1141 0 747 490 
Q 353 981 353 1791 
Q 353 2603 747 3093 
Q 1141 3584 1784 3584 
Q 2172 3584 2450 3431 
Q 2728 3278 2906 2969 
L 2906 3500 
L 3481 3500 
L 3481 434 
z
" transform="scale(0.015625)"/>
      <path id="DejaVuSans-79" d="M 2059 -325 
Q 1816 -950 1584 -1140 
Q 1353 -1331 966 -1331 
L 506 -1331 
L 506 -850 
L 844 -850 
Q 1081 -850 1212 -737 
Q 1344 -625 1503 -206 
L 1606 56 
L 191 3500 
L 800 3500 
L 1894 763 
L 2988 3500 
L 3597 3500 
L 2059 -325 
z
" transform="scale(0.015625)"/>
      <path id="DejaVuSans-41" d="M 2188 4044 
L 1331 1722 
L 3047 1722 
L 2188 4044 
z
M 1831 4666 
L 2547 4666 
L 4325 0 
L 3669 0 
L 3244 1197 
L 1141 1197 
L 716 0 
L 50 0 
L 1831 4666 
z
" transform="scale(0.015625)"/>
     </defs>
     <use xlink:href="#DejaVuSans-53"/>
     <use xlink:href="#DejaVuSans-74" transform="translate(63.476562 0)"/>
     <use xlink:href="#DejaVuSans-72" transform="translate(102.685547 0)"/>
     <use xlink:href="#DejaVuSans-61" transform="translate(143.798828 0)"/>
     <use xlink:href="#DejaVuSans-74" transform="translate(205.078125 0)"/>
     <use xlink:href="#DejaVuSans-65" transform="translate(244.287109 0)"/>
     <use xlink:href="#DejaVuSans-67" transform="translate(305.810547 0)"/>
     <use xlink:href="#DejaVuSans-79" transform="translate(369.287109 0)"/>
     <use xlink:href="#DejaVuSans-20" transform="translate(428.466797 0)"/>
     <use xlink:href="#DejaVuSans-41" transform="translate(460.253906 0)"/>
    </g>
   </g>
   <g id="text_10">
    <!-- Strategy B -->
    <g style="fill: #1a2433" transform="translate(323.691311 109.654438) scale(0.095 -0.095)">
     <defs>
      <path id="DejaVuSans-42" d="M 1259 2228 
L 1259 519 
L 2272 519 
Q 2781 519 3026 730 
Q 3272 941 3272 1375 
Q 3272 1813 3026 2020 
Q 2781 2228 2272 2228 
L 1259 2228 
z
M 1259 4147 
L 1259 2741 
L 2194 2741 
Q 2656 2741 2882 2914 
Q 3109 3088 3109 3444 
Q 3109 3797 2882 3972 
Q 2656 4147 2194 4147 
L 1259 4147 
z
M 628 4666 
L 2241 4666 
Q 2963 4666 3353 4366 
Q 3744 4066 3744 3513 
Q 3744 3084 3544 2831 
Q 3344 2578 2956 2516 
Q 3422 2416 3680 2098 
Q 3938 1781 3938 1306 
Q 3938 681 3513 340 
Q 3088 0 2303 0 
L 628 0 
L 628 4666 
z
" transform="scale(0.015625)"/>
     </defs>
     <use xlink:href="#DejaVuSans-53"/>
     <use xlink:href="#DejaVuSans-74" transform="translate(63.476562 0)"/>
     <use xlink:href="#DejaVuSans-72" transform="translate(102.685547 0)"/>
     <use xlink:href="#DejaVuSans-61" transform="translate(143.798828 0)"/>
     <use xlink:href="#DejaVuSans-74" transform="translate(205.078125 0)"/>
     <use xlink:href="#DejaVuSans-65" transform="translate(244.287109 0)"/>
     <use xlink:href="#DejaVuSans-67" transform="translate(305.810547 0)"/>
     <use xlink:href="#DejaVuSans-79" transform="translate(369.287109 0)"/>
     <use xlink:href="#DejaVuSans-20" transform="translate(428.466797 0)"/>
     <use xlink:href="#DejaVuSans-42" transform="translate(460.253906 0)"/>
    </g>
   </g>
   <g id="text_11">
    <!-- Strategy C -->
    <g style="fill: #1a2433" transform="translate(323.691311 137.614407) scale(0.095 -0.095)">
     <defs>
      <path id="DejaVuSans-43" d="M 4122 4306 
L 4122 3641 
Q 3803 3938 3442 4084 
Q 3081 4231 2675 4231 
Q 1875 4231 1450 3742 
Q 1025 3253 1025 2328 
Q 1025 1406 1450 917 
Q 1875 428 2675 428 
Q 3081 428 3442 575 
Q 3803 722 4122 1019 
L 4122 359 
Q 3791 134 3420 21 
Q 3050 -91 2638 -91 
Q 1578 -91 968 557 
Q 359 1206 359 2328 
Q 359 3453 968 4101 
Q 1578 4750 2638 4750 
Q 3056 4750 3426 4639 
Q 3797 4528 4122 4306 
z
" transform="scale(0.015625)"/>
     </defs>
     <use xlink:href="#DejaVuSans-53"/>
     <use xlink:href="#DejaVuSans-74" transform="translate(63.476562 0)"/>
     <use xlink:href="#DejaVuSans-72" transform="translate(102.685547 0)"/>
     <use xlink:href="#DejaVuSans-61" transform="translate(143.798828 0)"/>
     <use xlink:href="#DejaVuSans-74" transform="translate(205.078125 0)"/>
     <use xlink:href="#DejaVuSans-65" transform="translate(244.287109 0)"/>
     <use xlink:href="#DejaVuSans-67" transform="translate(305.810547 0)"/>
     <use xlink:href="#DejaVuSans-79" transform="translate(369.287109 0)"/>
     <use xlink:href="#DejaVuSans-20" transform="translate(428.466797 0)"/>
     <use xlink:href="#DejaVuSans-43" transform="translate(460.253906 0)"/>
    </g>
   </g>
   <g id="text_12">
    <!-- Strategy D -->
    <g style="fill: #1a2433" transform="translate(323.691311 165.574375) scale(0.095 -0.095)">
     <defs>
      <path id="DejaVuSans-44" d="M 1259 4147 
L 1259 519 
L 2022 519 
Q 2988 519 3436 956 
Q 3884 1394 3884 2338 
Q 3884 3275 3436 3711 
Q 2988 4147 2022 4147 
L 1259 4147 
z
M 628 4666 
L 1925 4666 
Q 3281 4666 3915 4102 
Q 4550 3538 4550 2338 
Q 4550 1131 3912 565 
Q 3275 0 1925 0 
L 628 0 
L 628 4666 
z
" transform="scale(0.015625)"/>
     </defs>
     <use xlink:href="#DejaVuSans-53"/>
     <use xlink:href="#DejaVuSans-74" transform="translate(63.476562 0)"/>
     <use xlink:href="#DejaVuSans-72" transform="translate(102.685547 0)"/>
     <use xlink:href="#DejaVuSans-61" transform="translate(143.798828 0)"/>
     <use xlink:href="#DejaVuSans-74" transform="translate(205.078125 0)"/>
     <use xlink:href="#DejaVuSans-65" transform="translate(244.287109 0)"/>
     <use xlink:href="#DejaVuSans-67" transform="translate(305.810547 0)"/>
     <use xlink:href="#DejaVuSans-79" transform="translate(369.287109 0)"/>
     <use xlink:href="#DejaVuSans-20" transform="translate(428.466797 0)"/>
     <use xlink:href="#DejaVuSans-44" transform="translate(460.253906 0)"/>
    </g>
   </g>
   <g id="text_13">
    <!-- Unrecoverable -->
    <g style="fill: #1a2433" transform="translate(323.691311 193.534344) scale(0.095 -0.095)">
     <defs>
      <path id="DejaVuSans-Oblique-55" d="M 991 4666 
L 1625 4666 
L 1075 1831 
Q 1041 1641 1027 1517 
Q 1013 1394 1013 1300 
Q 1013 869 1253 645 
Q 1494 422 1959 422 
Q 2563 422 2898 753 
Q 3234 1084 3378 1831 
L 3928 4666 
L 4563 4666 
L 4000 1753 
Q 3816 809 3300 359 
Q 2784 -91 1888 -91 
Q 1188 -91 780 261 
Q 372 613 372 1216 
Q 372 1325 387 1461 
Q 403 1597 434 1753 
L 991 4666 
z
" transform="scale(0.015625)"/>
      <path id="DejaVuSans-Oblique-6e" d="M 3566 2113 
L 3156 0 
L 2578 0 
L 2988 2091 
Q 3016 2238 3031 2350 
Q 3047 2463 3047 2528 
Q 3047 2791 2881 2937 
Q 2716 3084 2419 3084 
Q 1956 3084 1622 2776 
Q 1288 2469 1184 1941 
L 800 0 
L 225 0 
L 903 3500 
L 1478 3500 
L 1363 2950 
Q 1603 3253 1940 3418 
Q 2278 3584 2650 3584 
Q 3113 3584 3367 3334 
Q 3622 3084 3622 2631 
Q 3622 2519 3608 2391 
Q 3594 2263 3566 2113 
z
" transform="scale(0.015625)"/>
      <path id="DejaVuSans-Oblique-72" d="M 2853 2969 
Q 2766 3016 2653 3041 
Q 2541 3066 2413 3066 
Q 1953 3066 1609 2717 
Q 1266 2369 1153 1784 
L 800 0 
L 225 0 
L 909 3500 
L 1484 3500 
L 1375 2956 
Q 1603 3259 1920 3421 
Q 2238 3584 2597 3584 
Q 2691 3584 2781 3573 
Q 2872 3563 2963 3538 
L 2853 2969 
z
" transform="scale(0.015625)"/>
      <path id="DejaVuSans-Oblique-65" d="M 3078 2063 
Q 3088 2113 3092 2166 
Q 3097 2219 3097 2272 
Q 3097 2653 2873 2875 
Q 2650 3097 2266 3097 
Q 1838 3097 1509 2826 
Q 1181 2556 1013 2059 
L 3078 2063 
z
M 3578 1613 
L 903 1613 
Q 884 1494 878 1425 
Q 872 1356 872 1306 
Q 872 872 1139 634 
Q 1406 397 1894 397 
Q 2269 397 2603 481 
Q 2938 566 3225 728 
L 3116 159 
Q 2806 34 2476 -28 
Q 2147 -91 1806 -91 
Q 1078 -91 686 257 
Q 294 606 294 1247 
Q 294 1794 489 2264 
Q 684 2734 1063 3103 
Q 1306 3334 1642 3459 
Q 1978 3584 2356 3584 
Q 2950 3584 3301 3228 
Q 3653 2872 3653 2272 
Q 3653 2128 3634 1964 
Q 3616 1800 3578 1613 
z
" transform="scale(0.015625)"/>
      <path id="DejaVuSans-Oblique-63" d="M 3431 3366 
L 3316 2797 
Q 3109 2947 2876 3022 
Q 2644 3097 2394 3097 
Q 2119 3097 1870 3000 
Q 1622 2903 1453 2725 
Q 1184 2453 1037 2087 
Q 891 1722 891 1331 
Q 891 859 1127 628 
Q 1363 397 1844 397 
Q 2081 397 2348 469 
Q 2616 541 2906 684 
L 2797 116 
Q 2547 13 2283 -39 
Q 2019 -91 1741 -91 
Q 1044 -91 669 257 
Q 294 606 294 1253 
Q 294 1797 489 2255 
Q 684 2713 1069 3078 
Q 1331 3328 1684 3456 
Q 2038 3584 2456 3584 
Q 2700 3584 2940 3529 
Q 3181 3475 3431 3366 
z
" transform="scale(0.015625)"/>
      <path id="DejaVuSans-Oblique-6f" d="M 1625 -91 
Q 1009 -91 651 289 
Q 294 669 294 1325 
Q 294 1706 417 2101 
Q 541 2497 738 2766 
Q 1047 3184 1428 3384 
Q 1809 3584 2291 3584 
Q 2888 3584 3255 3212 
Q 3622 2841 3622 2241 
Q 3622 1825 3500 1412 
Q 3378 1000 3181 728 
Q 2875 309 2494 109 
Q 2113 -91 1625 -91 
z
M 891 1344 
Q 891 869 1089 633 
Q 1288 397 1691 397 
Q 2269 397 2648 901 
Q 3028 1406 3028 2181 
Q 3028 2634 2825 2865 
Q 2622 3097 2228 3097 
Q 1903 3097 1650 2945 
Q 1397 2794 1197 2484 
Q 1050 2253 970 1956 
Q 891 1659 891 1344 
z
" transform="scale(0.015625)"/>
      <path id="DejaVuSans-Oblique-76" d="M 459 3500 
L 1069 3500 
L 1581 525 
L 3256 3500 
L 3866 3500 
L 1875 0 
L 1100 0 
L 459 3500 
z
" transform="scale(0.015625)"/>
      <path id="DejaVuSans-Oblique-61" d="M 3438 1997 
L 3047 0 
L 2472 0 
L 2578 531 
Q 2325 219 2001 64 
Q 1678 -91 1281 -91 
Q 834 -91 548 182 
Q 263 456 263 884 
Q 263 1497 752 1853 
Q 1241 2209 2100 2209 
L 2900 2209 
L 2931 2363 
Q 2938 2388 2941 2417 
Q 2944 2447 2944 2509 
Q 2944 2788 2717 2942 
Q 2491 3097 2081 3097 
Q 1800 3097 1504 3025 
Q 1209 2953 897 2809 
L 997 3341 
Q 1322 3463 1633 3523 
Q 1944 3584 2234 3584 
Q 2853 3584 3176 3315 
Q 3500 3047 3500 2534 
Q 3500 2431 3484 2292 
Q 3469 2153 3438 1997 
z
M 2816 1759 
L 2241 1759 
Q 1534 1759 1195 1570 
Q 856 1381 856 984 
Q 856 709 1029 553 
Q 1203 397 1509 397 
Q 1978 397 2328 733 
Q 2678 1069 2791 1631 
L 2816 1759 
z
" transform="scale(0.015625)"/>
      <path id="DejaVuSans-Oblique-62" d="M 3169 2138 
Q 3169 2591 2961 2847 
Q 2753 3103 2388 3103 
Q 2122 3103 1889 2973 
Q 1656 2844 1484 2597 
Q 1303 2338 1198 1995 
Q 1094 1653 1094 1313 
Q 1094 881 1298 636 
Q 1503 391 1863 391 
Q 2134 391 2365 517 
Q 2597 644 2772 891 
Q 2950 1147 3059 1487 
Q 3169 1828 3169 2138 
z
M 1381 2969 
Q 1594 3256 1914 3420 
Q 2234 3584 2584 3584 
Q 3122 3584 3439 3221 
Q 3756 2859 3756 2241 
Q 3756 1734 3570 1259 
Q 3384 784 3041 416 
Q 2816 172 2522 40 
Q 2228 -91 1906 -91 
Q 1566 -91 1316 65 
Q 1066 222 909 531 
L 806 0 
L 231 0 
L 1178 4863 
L 1753 4863 
L 1381 2969 
z
" transform="scale(0.015625)"/>
      <path id="DejaVuSans-Oblique-6c" d="M 1172 4863 
L 1747 4863 
L 800 0 
L 225 0 
L 1172 4863 
z
" transform="scale(0.015625)"/>
     </defs>
     <use xlink:href="#DejaVuSans-Oblique-55"/>
     <use xlink:href="#DejaVuSans-Oblique-6e" transform="translate(73.193359 0)"/>
     <use xlink:href="#DejaVuSans-Oblique-72" transform="translate(136.572266 0)"/>
     <use xlink:href="#DejaVuSans-Oblique-65" transform="translate(177.685547 0)"/>
     <use xlink:href="#DejaVuSans-Oblique-63" transform="translate(239.208984 0)"/>
     <use xlink:href="#DejaVuSans-Oblique-6f" transform="translate(294.189453 0)"/>
     <use xlink:href="#DejaVuSans-Oblique-76" transform="translate(355.371094 0)"/>
     <use xlink:href="#DejaVuSans-Oblique-65" transform="translate(414.550781 0)"/>
     <use xlink:href="#DejaVuSans-Oblique-72" transform="translate(476.074219 0)"/>
     <use xlink:href="#DejaVuSans-Oblique-61" transform="translate(517.1875 0)"/>
     <use xlink:href="#DejaVuSans-Oblique-62" transform="translate(578.466797 0)"/>
     <use xlink:href="#DejaVuSans-Oblique-6c" transform="translate(641.943359 0)"/>
     <use xlink:href="#DejaVuSans-Oblique-65" transform="translate(669.726562 0)"/>
    </g>
   </g>
   <g id="patch_37">
    <path d="M 108.226519 134.993 
Q 120.786624 134.993 131.781481 134.993 
" style="fill: none; stroke: #3a78b3; stroke-width: 1.4; stroke-linecap: round"/>
    <path d="M 127.781481 132.993 
L 131.781481 134.993 
L 127.781481 136.993 
" style="fill: none; stroke: #3a78b3; stroke-width: 1.4; stroke-linecap: round"/>
   </g>
   <g id="patch_38">
    <path d="M 271.325624 134.993 
Q 282.916222 134.993 292.941572 134.993 
" style="fill: none; stroke: #3a78b3; stroke-width: 1.4; stroke-linecap: round"/>
    <path d="M 288.941572 132.993 
L 292.941572 134.993 
L 288.941572 136.993 
" style="fill: none; stroke: #3a78b3; stroke-width: 1.4; stroke-linecap: round"/>
   </g>
   <g id="text_14">
    <!-- verify each cell -->
    <g style="fill: #1f4e7a" transform="translate(176.421225 70.918073) scale(0.09 -0.09)">
     <defs>
      <path id="DejaVuSans-BoldOblique-76" d="M 403 3500 
L 1434 3500 
L 1888 1056 
L 3206 3500 
L 4341 3500 
L 2284 0 
L 1100 0 
L 403 3500 
z
" transform="scale(0.015625)"/>
      <path id="DejaVuSans-BoldOblique-65" d="M 4025 1619 
L 3988 1441 
L 1369 1441 
Q 1369 1422 1366 1386 
Q 1363 1350 1363 1331 
Q 1363 991 1567 822 
Q 1772 653 2181 653 
Q 2534 653 2926 759 
Q 3319 866 3750 1075 
L 3578 206 
Q 3169 56 2764 -17 
Q 2359 -91 1941 -91 
Q 1122 -91 676 287 
Q 231 666 231 1356 
Q 231 1756 373 2132 
Q 516 2509 788 2822 
Q 1109 3197 1557 3390 
Q 2006 3584 2553 3584 
Q 3263 3584 3680 3206 
Q 4097 2828 4097 2188 
Q 4097 2063 4080 1923 
Q 4063 1784 4025 1619 
z
M 2969 2131 
Q 2978 2172 2983 2214 
Q 2988 2256 2988 2297 
Q 2988 2547 2838 2694 
Q 2688 2841 2431 2841 
Q 2103 2841 1873 2661 
Q 1644 2481 1522 2131 
L 2969 2131 
z
" transform="scale(0.015625)"/>
      <path id="DejaVuSans-BoldOblique-72" d="M 3291 2547 
Q 3175 2613 3034 2647 
Q 2894 2681 2731 2681 
Q 2303 2681 2020 2406 
Q 1738 2131 1638 1613 
L 1319 0 
L 197 0 
L 878 3500 
L 2003 3500 
L 1881 2900 
Q 2103 3231 2436 3407 
Q 2769 3584 3175 3584 
Q 3234 3584 3309 3578 
Q 3384 3572 3488 3559 
L 3291 2547 
z
" transform="scale(0.015625)"/>
      <path id="DejaVuSans-BoldOblique-69" d="M 878 3500 
L 2003 3500 
L 1319 0 
L 197 0 
L 878 3500 
z
M 1141 4863 
L 2266 4863 
L 2088 3950 
L 959 3950 
L 1141 4863 
z
" transform="scale(0.015625)"/>
      <path id="DejaVuSans-BoldOblique-66" d="M 3456 4863 
L 3309 4128 
L 2694 4128 
Q 2459 4128 2351 4042 
Q 2244 3956 2203 3747 
L 2150 3500 
L 3097 3500 
L 2944 2700 
L 1997 2700 
L 1472 0 
L 347 0 
L 872 2700 
L 319 2700 
L 475 3500 
L 1025 3500 
L 1075 3744 
Q 1191 4325 1556 4594 
Q 1922 4863 2597 4863 
L 3456 4863 
z
" transform="scale(0.015625)"/>
      <path id="DejaVuSans-BoldOblique-79" d="M 422 3500 
L 1478 3500 
L 1959 1075 
L 3200 3500 
L 4397 3500 
L 2181 -331 
Q 1809 -978 1493 -1179 
Q 1178 -1381 678 -1381 
L 0 -1381 
L 116 -647 
L 469 -647 
Q 744 -647 895 -555 
Q 1047 -463 1166 -231 
L 1269 -44 
L 422 3500 
z
" transform="scale(0.015625)"/>
      <path id="DejaVuSans-BoldOblique-20" transform="scale(0.015625)"/>
      <path id="DejaVuSans-BoldOblique-61" d="M 2106 1575 
Q 1688 1575 1473 1445 
Q 1259 1316 1259 1063 
Q 1259 872 1386 762 
Q 1513 653 1734 653 
Q 2078 653 2309 861 
Q 2541 1069 2619 1447 
L 2644 1575 
L 2106 1575 
z
M 3853 1997 
L 3463 0 
L 2344 0 
L 2438 519 
Q 2163 206 1856 57 
Q 1550 -91 1191 -91 
Q 694 -91 401 167 
Q 109 425 109 863 
Q 109 1531 626 1886 
Q 1144 2241 2119 2241 
L 2778 2241 
L 2791 2328 
Q 2800 2372 2801 2390 
Q 2803 2409 2803 2425 
Q 2803 2631 2608 2736 
Q 2413 2841 2028 2841 
Q 1681 2841 1356 2769 
Q 1031 2697 728 2553 
L 897 3406 
Q 1247 3494 1614 3539 
Q 1981 3584 2375 3584 
Q 3153 3584 3531 3317 
Q 3909 3050 3909 2503 
Q 3909 2397 3895 2270 
Q 3881 2144 3853 1997 
z
" transform="scale(0.015625)"/>
      <path id="DejaVuSans-BoldOblique-63" d="M 3719 3391 
L 3541 2478 
Q 3316 2628 3097 2706 
Q 2878 2784 2669 2784 
Q 2122 2784 1775 2417 
Q 1428 2050 1428 1478 
Q 1428 1113 1643 911 
Q 1859 709 2253 709 
Q 2516 709 2769 787 
Q 3022 866 3250 1019 
L 3078 103 
Q 2800 6 2519 -42 
Q 2238 -91 1953 -91 
Q 1128 -91 683 279 
Q 238 650 238 1331 
Q 238 1759 402 2162 
Q 566 2566 872 2888 
Q 1213 3241 1653 3412 
Q 2094 3584 2669 3584 
Q 2934 3584 3196 3536 
Q 3459 3488 3719 3391 
z
" transform="scale(0.015625)"/>
      <path id="DejaVuSans-BoldOblique-68" d="M 4128 2131 
L 3713 0 
L 2591 0 
L 2944 1825 
Q 2981 2003 3001 2126 
Q 3022 2250 3022 2322 
Q 3022 2522 2911 2631 
Q 2800 2741 2597 2741 
Q 2250 2741 2001 2470 
Q 1753 2200 1656 1722 
L 1319 0 
L 197 0 
L 1141 4863 
L 2266 4863 
L 1900 2988 
Q 2209 3291 2521 3437 
Q 2834 3584 3175 3584 
Q 3659 3584 3921 3331 
Q 4184 3078 4184 2619 
Q 4184 2519 4170 2397 
Q 4156 2275 4128 2131 
z
" transform="scale(0.015625)"/>
      <path id="DejaVuSans-BoldOblique-6c" d="M 1141 4863 
L 2266 4863 
L 1319 0 
L 197 0 
L 1141 4863 
z
" transform="scale(0.015625)"/>
     </defs>
     <use xlink:href="#DejaVuSans-BoldOblique-76"/>
     <use xlink:href="#DejaVuSans-BoldOblique-65" transform="translate(65.185547 0)"/>
     <use xlink:href="#DejaVuSans-BoldOblique-72" transform="translate(133.007812 0)"/>
     <use xlink:href="#DejaVuSans-BoldOblique-69" transform="translate(182.324219 0)"/>
     <use xlink:href="#DejaVuSans-BoldOblique-66" transform="translate(216.601562 0)"/>
     <use xlink:href="#DejaVuSans-BoldOblique-79" transform="translate(260.107422 0)"/>
     <use xlink:href="#DejaVuSans-BoldOblique-20" transform="translate(325.292969 0)"/>
     <use xlink:href="#DejaVuSans-BoldOblique-65" transform="translate(360.107422 0)"/>
     <use xlink:href="#DejaVuSans-BoldOblique-61" transform="translate(427.929688 0)"/>
     <use xlink:href="#DejaVuSans-BoldOblique-63" transform="translate(495.410156 0)"/>
     <use xlink:href="#DejaVuSans-BoldOblique-68" transform="translate(554.6875 0)"/>
     <use xlink:href="#DejaVuSans-BoldOblique-20" transform="translate(625.878906 0)"/>
     <use xlink:href="#DejaVuSans-BoldOblique-63" transform="translate(660.693359 0)"/>
     <use xlink:href="#DejaVuSans-BoldOblique-65" transform="translate(719.970703 0)"/>
     <use xlink:href="#DejaVuSans-BoldOblique-6c" transform="translate(787.792969 0)"/>
     <use xlink:href="#DejaVuSans-BoldOblique-6c" transform="translate(822.070312 0)"/>
    </g>
   </g>
   <g id="text_15">
    <!-- $\sigma_f \;:\; \mathcal{P} \to \Sigma_f$ -->
    <g style="fill: #1a2433" transform="translate(180.0281 257.317863) scale(0.14 -0.14)">
     <defs>
      <path id="DejaVuSans-Oblique-3c3" d="M 2219 3044 
Q 1744 3044 1422 2700 
Q 1081 2341 969 1747 
Q 844 1119 1044 756 
Q 1241 397 1706 397 
Q 2166 397 2503 759 
Q 2844 1122 2966 1747 
Q 3075 2319 2881 2700 
Q 2700 3044 2219 3044 
z
M 2309 3503 
L 4219 3500 
L 4106 2925 
L 3463 2925 
Q 3706 2438 3575 1747 
Q 3406 888 2884 400 
Q 2359 -91 1609 -91 
Q 856 -91 525 400 
Q 194 888 363 1747 
Q 528 2609 1050 3097 
Q 1484 3503 2309 3503 
z
" transform="scale(0.015625)"/>
      <path id="DejaVuSans-2192" d="M 5050 2147 
L 5050 1866 
L 3822 638 
L 3447 1013 
L 4175 1741 
L 366 1741 
L 366 2272 
L 4175 2272 
L 3447 3000 
L 3822 3375 
L 5050 2147 
z
" transform="scale(0.015625)"/>
     </defs>
     <use xlink:href="#DejaVuSans-Oblique-3c3" transform="translate(0 0.09375)"/>
     <use xlink:href="#DejaVuSans-Oblique-66" transform="translate(63.378906 -16.3125) scale(0.7)"/>
     <use xlink:href="#DejaVuSans-3a" transform="translate(137.298394 0.09375)"/>
     <use xlink:href="#STIXNonUnicode-Italic-e23c" transform="translate(217.531357 0.09375)"/>
     <use xlink:href="#DejaVuSans-2192" transform="translate(303.713776 0.09375)"/>
     <use xlink:href="#DejaVuSans-3a3" transform="translate(406.985261 0.09375)"/>
     <use xlink:href="#DejaVuSans-Oblique-66" transform="translate(471.125886 -16.3125) scale(0.7)"/>
    </g>
   </g>
   <g id="text_16">
    <!-- Offline Build -->
    <g style="fill: #1a2433" transform="translate(7.2 20.318125) scale(0.12 -0.12)">
     <defs>
      <path id="DejaVuSans-Bold-4f" d="M 2719 3878 
Q 2169 3878 1866 3472 
Q 1563 3066 1563 2328 
Q 1563 1594 1866 1187 
Q 2169 781 2719 781 
Q 3272 781 3575 1187 
Q 3878 1594 3878 2328 
Q 3878 3066 3575 3472 
Q 3272 3878 2719 3878 
z
M 2719 4750 
Q 3844 4750 4481 4106 
Q 5119 3463 5119 2328 
Q 5119 1197 4481 553 
Q 3844 -91 2719 -91 
Q 1597 -91 958 553 
Q 319 1197 319 2328 
Q 319 3463 958 4106 
Q 1597 4750 2719 4750 
z
" transform="scale(0.015625)"/>
      <path id="DejaVuSans-Bold-6e" d="M 4056 2131 
L 4056 0 
L 2931 0 
L 2931 347 
L 2931 1631 
Q 2931 2084 2911 2256 
Q 2891 2428 2841 2509 
Q 2775 2619 2662 2680 
Q 2550 2741 2406 2741 
Q 2056 2741 1856 2470 
Q 1656 2200 1656 1722 
L 1656 0 
L 538 0 
L 538 3500 
L 1656 3500 
L 1656 2988 
Q 1909 3294 2193 3439 
Q 2478 3584 2822 3584 
Q 3428 3584 3742 3212 
Q 4056 2841 4056 2131 
z
" transform="scale(0.015625)"/>
      <path id="DejaVuSans-Bold-42" d="M 2456 2859 
Q 2741 2859 2887 2984 
Q 3034 3109 3034 3353 
Q 3034 3594 2887 3720 
Q 2741 3847 2456 3847 
L 1791 3847 
L 1791 2859 
L 2456 2859 
z
M 2497 819 
Q 2859 819 3042 972 
Q 3225 1125 3225 1434 
Q 3225 1738 3044 1889 
Q 2863 2041 2497 2041 
L 1791 2041 
L 1791 819 
L 2497 819 
z
M 3616 2497 
Q 4003 2384 4215 2081 
Q 4428 1778 4428 1338 
Q 4428 663 3972 331 
Q 3516 0 2584 0 
L 588 0 
L 588 4666 
L 2394 4666 
Q 3366 4666 3802 4372 
Q 4238 4078 4238 3431 
Q 4238 3091 4078 2852 
Q 3919 2613 3616 2497 
z
" transform="scale(0.015625)"/>
      <path id="DejaVuSans-Bold-64" d="M 2919 2988 
L 2919 4863 
L 4044 4863 
L 4044 0 
L 2919 0 
L 2919 506 
Q 2688 197 2409 53 
Q 2131 -91 1766 -91 
Q 1119 -91 703 423 
Q 288 938 288 1747 
Q 288 2556 703 3070 
Q 1119 3584 1766 3584 
Q 2128 3584 2408 3439 
Q 2688 3294 2919 2988 
z
M 2181 722 
Q 2541 722 2730 984 
Q 2919 1247 2919 1747 
Q 2919 2247 2730 2509 
Q 2541 2772 2181 2772 
Q 1825 2772 1636 2509 
Q 1447 2247 1447 1747 
Q 1447 1247 1636 984 
Q 1825 722 2181 722 
z
" transform="scale(0.015625)"/>
     </defs>
     <use xlink:href="#DejaVuSans-Bold-4f"/>
     <use xlink:href="#DejaVuSans-Bold-66" transform="translate(85.009766 0)"/>
     <use xlink:href="#DejaVuSans-Bold-66" transform="translate(128.515625 0)"/>
     <use xlink:href="#DejaVuSans-Bold-6c" transform="translate(172.021484 0)"/>
     <use xlink:href="#DejaVuSans-Bold-69" transform="translate(206.298828 0)"/>
     <use xlink:href="#DejaVuSans-Bold-6e" transform="translate(240.576172 0)"/>
     <use xlink:href="#DejaVuSans-Bold-65" transform="translate(311.767578 0)"/>
     <use xlink:href="#DejaVuSans-Bold-20" transform="translate(379.589844 0)"/>
     <use xlink:href="#DejaVuSans-Bold-42" transform="translate(414.404297 0)"/>
     <use xlink:href="#DejaVuSans-Bold-75" transform="translate(490.625 0)"/>
     <use xlink:href="#DejaVuSans-Bold-69" transform="translate(561.816406 0)"/>
     <use xlink:href="#DejaVuSans-Bold-6c" transform="translate(596.09375 0)"/>
     <use xlink:href="#DejaVuSans-Bold-64" transform="translate(630.371094 0)"/>
    </g>
   </g>
  </g>
  <g id="axes_2">
   <g id="patch_39">
    <path d="M 478.596771 87.187085 
L 713.307555 87.187085 
Q 718.696323 87.187085 718.696323 81.798317 
L 718.696323 44.675693 
Q 718.696323 39.286925 713.307555 39.286925 
L 478.596771 39.286925 
Q 473.208003 39.286925 473.208003 44.675693 
L 473.208003 81.798317 
Q 473.208003 87.187085 478.596771 87.187085 
z
" clip-path="url(#p632b0f78f4)" style="fill: #fff3e0; stroke: #c0392b; stroke-width: 1.2; stroke-linejoin: miter"/>
   </g>
   <g id="patch_40">
    <path d="M 554.787963 218.912525 
L 571.253643 218.912525 
L 571.253643 202.446845 
L 554.787963 202.446845 
z
" clip-path="url(#p632b0f78f4)" style="fill: #d6d6d6; stroke: #ffffff; stroke-width: 0.8; stroke-linejoin: miter"/>
   </g>
   <g id="patch_41">
    <path d="M 554.787963 202.446845 
L 571.253643 202.446845 
L 571.253643 185.981165 
L 554.787963 185.981165 
z
" clip-path="url(#p632b0f78f4)" style="fill: #d6d6d6; stroke: #ffffff; stroke-width: 0.8; stroke-linejoin: miter"/>
   </g>
   <g id="patch_42">
    <path d="M 554.787963 185.981165 
L 571.253643 185.981165 
L 571.253643 169.515485 
L 554.787963 169.515485 
z
" clip-path="url(#p632b0f78f4)" style="fill: #d6d6d6; stroke: #ffffff; stroke-width: 0.8; stroke-linejoin: miter"/>
   </g>
   <g id="patch_43">
    <path d="M 554.787963 169.515485 
L 571.253643 169.515485 
L 571.253643 153.049805 
L 554.787963 153.049805 
z
" clip-path="url(#p632b0f78f4)" style="fill: #d6d6d6; stroke: #ffffff; stroke-width: 0.8; stroke-linejoin: miter"/>
   </g>
   <g id="patch_44">
    <path d="M 554.787963 153.049805 
L 571.253643 153.049805 
L 571.253643 136.584125 
L 554.787963 136.584125 
z
" clip-path="url(#p632b0f78f4)" style="fill: #d6d6d6; stroke: #ffffff; stroke-width: 0.8; stroke-linejoin: miter"/>
   </g>
   <g id="patch_45">
    <path d="M 571.253643 218.912525 
L 587.719323 218.912525 
L 587.719323 202.446845 
L 571.253643 202.446845 
z
" clip-path="url(#p632b0f78f4)" style="fill: #d6d6d6; stroke: #ffffff; stroke-width: 0.8; stroke-linejoin: miter"/>
   </g>
   <g id="patch_46">
    <path d="M 571.253643 202.446845 
L 587.719323 202.446845 
L 587.719323 185.981165 
L 571.253643 185.981165 
z
" clip-path="url(#p632b0f78f4)" style="fill: #d6d6d6; stroke: #ffffff; stroke-width: 0.8; stroke-linejoin: miter"/>
   </g>
   <g id="patch_47">
    <path d="M 571.253643 185.981165 
L 587.719323 185.981165 
L 587.719323 169.515485 
L 571.253643 169.515485 
z
" clip-path="url(#p632b0f78f4)" style="fill: #e07a3c; stroke: #ffffff; stroke-width: 0.8; stroke-linejoin: miter"/>
   </g>
   <g id="patch_48">
    <path d="M 571.253643 169.515485 
L 587.719323 169.515485 
L 587.719323 153.049805 
L 571.253643 153.049805 
z
" clip-path="url(#p632b0f78f4)" style="fill: #8e44ad; stroke: #ffffff; stroke-width: 0.8; stroke-linejoin: miter"/>
   </g>
   <g id="patch_49">
    <path d="M 571.253643 153.049805 
L 587.719323 153.049805 
L 587.719323 136.584125 
L 571.253643 136.584125 
z
" clip-path="url(#p632b0f78f4)" style="fill: #e07a3c; stroke: #ffffff; stroke-width: 0.8; stroke-linejoin: miter"/>
   </g>
   <g id="patch_50">
    <path d="M 587.719323 218.912525 
L 604.185003 218.912525 
L 604.185003 202.446845 
L 587.719323 202.446845 
z
" clip-path="url(#p632b0f78f4)" style="fill: #d6d6d6; stroke: #ffffff; stroke-width: 0.8; stroke-linejoin: miter"/>
   </g>
   <g id="patch_51">
    <path d="M 587.719323 202.446845 
L 604.185003 202.446845 
L 604.185003 185.981165 
L 587.719323 185.981165 
z
" clip-path="url(#p632b0f78f4)" style="fill: #1f4e7a; stroke: #ffffff; stroke-width: 0.8; stroke-linejoin: miter"/>
   </g>
   <g id="patch_52">
    <path d="M 587.719323 185.981165 
L 604.185003 185.981165 
L 604.185003 169.515485 
L 587.719323 169.515485 
z
" clip-path="url(#p632b0f78f4)" style="fill: #3d8e5f; stroke: #ffffff; stroke-width: 0.8; stroke-linejoin: miter"/>
   </g>
   <g id="patch_53">
    <path d="M 587.719323 169.515485 
L 604.185003 169.515485 
L 604.185003 153.049805 
L 587.719323 153.049805 
z
" clip-path="url(#p632b0f78f4)" style="fill: #1f4e7a; stroke: #ffffff; stroke-width: 0.8; stroke-linejoin: miter"/>
   </g>
   <g id="patch_54">
    <path d="M 587.719323 153.049805 
L 604.185003 153.049805 
L 604.185003 136.584125 
L 587.719323 136.584125 
z
" clip-path="url(#p632b0f78f4)" style="fill: #3d8e5f; stroke: #ffffff; stroke-width: 0.8; stroke-linejoin: miter"/>
   </g>
   <g id="patch_55">
    <path d="M 604.185003 218.912525 
L 620.650683 218.912525 
L 620.650683 202.446845 
L 604.185003 202.446845 
z
" clip-path="url(#p632b0f78f4)" style="fill: #8e44ad; stroke: #ffffff; stroke-width: 0.8; stroke-linejoin: miter"/>
   </g>
   <g id="patch_56">
    <path d="M 604.185003 202.446845 
L 620.650683 202.446845 
L 620.650683 185.981165 
L 604.185003 185.981165 
z
" clip-path="url(#p632b0f78f4)" style="fill: #e07a3c; stroke: #ffffff; stroke-width: 0.8; stroke-linejoin: miter"/>
   </g>
   <g id="patch_57">
    <path d="M 604.185003 185.981165 
L 620.650683 185.981165 
L 620.650683 169.515485 
L 604.185003 169.515485 
z
" clip-path="url(#p632b0f78f4)" style="fill: #8e44ad; stroke: #ffffff; stroke-width: 0.8; stroke-linejoin: miter"/>
   </g>
   <g id="patch_58">
    <path d="M 604.185003 169.515485 
L 620.650683 169.515485 
L 620.650683 153.049805 
L 604.185003 153.049805 
z
" clip-path="url(#p632b0f78f4)" style="fill: #e07a3c; stroke: #ffffff; stroke-width: 0.8; stroke-linejoin: miter"/>
   </g>
   <g id="patch_59">
    <path d="M 604.185003 153.049805 
L 620.650683 153.049805 
L 620.650683 136.584125 
L 604.185003 136.584125 
z
" clip-path="url(#p632b0f78f4)" style="fill: #8e44ad; stroke: #ffffff; stroke-width: 0.8; stroke-linejoin: miter"/>
   </g>
   <g id="patch_60">
    <path d="M 620.650683 218.912525 
L 637.116363 218.912525 
L 637.116363 202.446845 
L 620.650683 202.446845 
z
" clip-path="url(#p632b0f78f4)" style="fill: #1f4e7a; stroke: #ffffff; stroke-width: 0.8; stroke-linejoin: miter"/>
   </g>
   <g id="patch_61">
    <path d="M 620.650683 202.446845 
L 637.116363 202.446845 
L 637.116363 185.981165 
L 620.650683 185.981165 
z
" clip-path="url(#p632b0f78f4)" style="fill: #3d8e5f; stroke: #ffffff; stroke-width: 0.8; stroke-linejoin: miter"/>
   </g>
   <g id="patch_62">
    <path d="M 620.650683 185.981165 
L 637.116363 185.981165 
L 637.116363 169.515485 
L 620.650683 169.515485 
z
" clip-path="url(#p632b0f78f4)" style="fill: #1f4e7a; stroke: #ffffff; stroke-width: 0.8; stroke-linejoin: miter"/>
   </g>
   <g id="patch_63">
    <path d="M 620.650683 169.515485 
L 637.116363 169.515485 
L 637.116363 153.049805 
L 620.650683 153.049805 
z
" clip-path="url(#p632b0f78f4)" style="fill: #3d8e5f; stroke: #ffffff; stroke-width: 0.8; stroke-linejoin: miter"/>
   </g>
   <g id="patch_64">
    <path d="M 620.650683 153.049805 
L 637.116363 153.049805 
L 637.116363 136.584125 
L 620.650683 136.584125 
z
" clip-path="url(#p632b0f78f4)" style="fill: #1f4e7a; stroke: #ffffff; stroke-width: 0.8; stroke-linejoin: miter"/>
   </g>
   <g id="patch_65">
    <path d="M 681.274323 209.182805 
L 726.180723 209.182805 
Q 729.174483 209.182805 729.174483 206.189045 
L 729.174483 182.238965 
Q 729.174483 179.245205 726.180723 179.245205 
L 681.274323 179.245205 
Q 678.280563 179.245205 678.280563 182.238965 
L 678.280563 206.189045 
Q 678.280563 209.182805 681.274323 209.182805 
z
" clip-path="url(#p632b0f78f4)" style="fill: #1f4e7a"/>
   </g>
   <g id="text_17">
    <!-- ⚠ fault $f_2$ detected -->
    <g style="fill: #7a1f16" transform="translate(541.194663 58.649949) scale(0.105 -0.105)">
     <defs>
      <path id="DejaVuSans-Bold-26a0" d="M 2897 4663 
L 2919 4663 
L 5425 28 
L 5425 0 
L 366 0 
L 341 28 
L 313 28 
Q 2797 4559 2897 4663 
z
M 2869 4075 
L 794 322 
L 794 269 
L 4972 269 
L 4972 297 
Q 2959 3988 2869 4075 
z
M 2897 3381 
Q 3138 3381 3138 3169 
Q 2975 1253 2897 1253 
Q 2825 1253 2656 3197 
Q 2734 3381 2897 3381 
z
M 2894 1022 
Q 2953 1022 3011 990 
Q 3069 959 3101 903 
Q 3134 847 3134 781 
Q 3134 719 3103 662 
Q 3072 606 3012 575 
Q 2953 544 2894 544 
Q 2831 544 2775 575 
Q 2719 606 2686 662 
Q 2653 719 2653 781 
Q 2653 847 2686 903 
Q 2719 959 2775 990 
Q 2831 1022 2894 1022 
z
" transform="scale(0.015625)"/>
     </defs>
     <use xlink:href="#DejaVuSans-Bold-26a0" transform="translate(0 0.015625)"/>
     <use xlink:href="#DejaVuSans-Bold-20" transform="translate(89.648438 0.015625)"/>
     <use xlink:href="#DejaVuSans-Bold-66" transform="translate(124.462891 0.015625)"/>
     <use xlink:href="#DejaVuSans-Bold-61" transform="translate(167.96875 0.015625)"/>
     <use xlink:href="#DejaVuSans-Bold-75" transform="translate(235.449219 0.015625)"/>
     <use xlink:href="#DejaVuSans-Bold-6c" transform="translate(306.640625 0.015625)"/>
     <use xlink:href="#DejaVuSans-Bold-74" transform="translate(340.917969 0.015625)"/>
     <use xlink:href="#DejaVuSans-Bold-20" transform="translate(388.720703 0.015625)"/>
     <use xlink:href="#DejaVuSans-Oblique-66" transform="translate(423.535156 0.015625)"/>
     <use xlink:href="#DejaVuSans-32" transform="translate(458.740234 -16.390625) scale(0.7)"/>
     <use xlink:href="#DejaVuSans-Bold-20" transform="translate(506.010742 0.015625)"/>
     <use xlink:href="#DejaVuSans-Bold-64" transform="translate(540.825195 0.015625)"/>
     <use xlink:href="#DejaVuSans-Bold-65" transform="translate(612.407227 0.015625)"/>
     <use xlink:href="#DejaVuSans-Bold-74" transform="translate(680.229492 0.015625)"/>
     <use xlink:href="#DejaVuSans-Bold-65" transform="translate(728.032227 0.015625)"/>
     <use xlink:href="#DejaVuSans-Bold-63" transform="translate(795.854492 0.015625)"/>
     <use xlink:href="#DejaVuSans-Bold-74" transform="translate(855.131836 0.015625)"/>
     <use xlink:href="#DejaVuSans-Bold-65" transform="translate(902.93457 0.015625)"/>
     <use xlink:href="#DejaVuSans-Bold-64" transform="translate(970.756836 0.015625)"/>
    </g>
   </g>
   <g id="text_18">
    <!-- state readout: $p = (h{=}5\,\mathrm{m},\;v{=}3\,\mathrm{m/s},\;b{=}72\%)$ -->
    <g style="fill: #1a2433" transform="translate(493.612163 77.577045) scale(0.086 -0.086)">
     <defs>
      <path id="DejaVuSans-Oblique-70" d="M 3175 2156 
Q 3175 2616 2975 2859 
Q 2775 3103 2400 3103 
Q 2144 3103 1911 2972 
Q 1678 2841 1497 2591 
Q 1319 2344 1212 1994 
Q 1106 1644 1106 1300 
Q 1106 863 1306 627 
Q 1506 391 1875 391 
Q 2147 391 2380 519 
Q 2613 647 2778 891 
Q 2956 1147 3065 1494 
Q 3175 1841 3175 2156 
z
M 1394 2969 
Q 1625 3272 1939 3428 
Q 2253 3584 2638 3584 
Q 3175 3584 3472 3232 
Q 3769 2881 3769 2247 
Q 3769 1728 3584 1258 
Q 3400 788 3053 416 
Q 2822 169 2531 39 
Q 2241 -91 1919 -91 
Q 1547 -91 1294 64 
Q 1041 219 916 525 
L 556 -1331 
L -19 -1331 
L 922 3500 
L 1497 3500 
L 1394 2969 
z
" transform="scale(0.015625)"/>
      <path id="DejaVuSans-3d" d="M 678 2906 
L 4684 2906 
L 4684 2381 
L 678 2381 
L 678 2906 
z
M 678 1631 
L 4684 1631 
L 4684 1100 
L 678 1100 
L 678 1631 
z
" transform="scale(0.015625)"/>
      <path id="DejaVuSans-28" d="M 1984 4856 
Q 1566 4138 1362 3434 
Q 1159 2731 1159 2009 
Q 1159 1288 1364 580 
Q 1569 -128 1984 -844 
L 1484 -844 
Q 1016 -109 783 600 
Q 550 1309 550 2009 
Q 550 2706 781 3412 
Q 1013 4119 1484 4856 
L 1984 4856 
z
" transform="scale(0.015625)"/>
      <path id="DejaVuSans-Oblique-68" d="M 3566 2113 
L 3156 0 
L 2578 0 
L 2988 2091 
Q 3016 2238 3031 2350 
Q 3047 2463 3047 2528 
Q 3047 2791 2881 2937 
Q 2716 3084 2419 3084 
Q 1956 3084 1617 2771 
Q 1278 2459 1178 1941 
L 800 0 
L 225 0 
L 1172 4863 
L 1747 4863 
L 1375 2950 
Q 1594 3244 1934 3414 
Q 2275 3584 2650 3584 
Q 3113 3584 3367 3334 
Q 3622 3084 3622 2631 
Q 3622 2519 3608 2391 
Q 3594 2263 3566 2113 
z
" transform="scale(0.015625)"/>
      <path id="DejaVuSans-35" d="M 691 4666 
L 3169 4666 
L 3169 4134 
L 1269 4134 
L 1269 2991 
Q 1406 3038 1543 3061 
Q 1681 3084 1819 3084 
Q 2600 3084 3056 2656 
Q 3513 2228 3513 1497 
Q 3513 744 3044 326 
Q 2575 -91 1722 -91 
Q 1428 -91 1123 -41 
Q 819 9 494 109 
L 494 744 
Q 775 591 1075 516 
Q 1375 441 1709 441 
Q 2250 441 2565 725 
Q 2881 1009 2881 1497 
Q 2881 1984 2565 2268 
Q 2250 2553 1709 2553 
Q 1456 2553 1204 2497 
Q 953 2441 691 2322 
L 691 4666 
z
" transform="scale(0.015625)"/>
      <path id="DejaVuSans-2c" d="M 750 794 
L 1409 794 
L 1409 256 
L 897 -744 
L 494 -744 
L 750 256 
L 750 794 
z
" transform="scale(0.015625)"/>
      <path id="DejaVuSans-37" d="M 525 4666 
L 3525 4666 
L 3525 4397 
L 1831 0 
L 1172 0 
L 2766 4134 
L 525 4134 
L 525 4666 
z
" transform="scale(0.015625)"/>
      <path id="DejaVuSans-25" d="M 4653 2053 
Q 4381 2053 4226 1822 
Q 4072 1591 4072 1178 
Q 4072 772 4226 539 
Q 4381 306 4653 306 
Q 4919 306 5073 539 
Q 5228 772 5228 1178 
Q 5228 1588 5073 1820 
Q 4919 2053 4653 2053 
z
M 4653 2450 
Q 5147 2450 5437 2106 
Q 5728 1763 5728 1178 
Q 5728 594 5436 251 
Q 5144 -91 4653 -91 
Q 4153 -91 3862 251 
Q 3572 594 3572 1178 
Q 3572 1766 3864 2108 
Q 4156 2450 4653 2450 
z
M 1428 4353 
Q 1159 4353 1004 4120 
Q 850 3888 850 3481 
Q 850 3069 1003 2837 
Q 1156 2606 1428 2606 
Q 1700 2606 1854 2837 
Q 2009 3069 2009 3481 
Q 2009 3884 1853 4118 
Q 1697 4353 1428 4353 
z
M 4250 4750 
L 4750 4750 
L 1831 -91 
L 1331 -91 
L 4250 4750 
z
M 1428 4750 
Q 1922 4750 2215 4408 
Q 2509 4066 2509 3481 
Q 2509 2891 2217 2550 
Q 1925 2209 1428 2209 
Q 931 2209 642 2551 
Q 353 2894 353 3481 
Q 353 4063 643 4406 
Q 934 4750 1428 4750 
z
" transform="scale(0.015625)"/>
      <path id="DejaVuSans-29" d="M 513 4856 
L 1013 4856 
Q 1481 4119 1714 3412 
Q 1947 2706 1947 2009 
Q 1947 1309 1714 600 
Q 1481 -109 1013 -844 
L 513 -844 
Q 928 -128 1133 580 
Q 1338 1288 1338 2009 
Q 1338 2731 1133 3434 
Q 928 4138 513 4856 
z
" transform="scale(0.015625)"/>
     </defs>
     <use xlink:href="#DejaVuSans-73" transform="translate(0 0.015625)"/>
     <use xlink:href="#DejaVuSans-74" transform="translate(52.099609 0.015625)"/>
     <use xlink:href="#DejaVuSans-61" transform="translate(91.308594 0.015625)"/>
     <use xlink:href="#DejaVuSans-74" transform="translate(152.587891 0.015625)"/>
     <use xlink:href="#DejaVuSans-65" transform="translate(191.796875 0.015625)"/>
     <use xlink:href="#DejaVuSans-20" transform="translate(253.320312 0.015625)"/>
     <use xlink:href="#DejaVuSans-72" transform="translate(285.107422 0.015625)"/>
     <use xlink:href="#DejaVuSans-65" transform="translate(326.220703 0.015625)"/>
     <use xlink:href="#DejaVuSans-61" transform="translate(387.744141 0.015625)"/>
     <use xlink:href="#DejaVuSans-64" transform="translate(449.023438 0.015625)"/>
     <use xlink:href="#DejaVuSans-6f" transform="translate(512.5 0.015625)"/>
     <use xlink:href="#DejaVuSans-75" transform="translate(573.681641 0.015625)"/>
     <use xlink:href="#DejaVuSans-74" transform="translate(637.060547 0.015625)"/>
     <use xlink:href="#DejaVuSans-3a" transform="translate(676.269531 0.015625)"/>
     <use xlink:href="#DejaVuSans-20" transform="translate(709.960938 0.015625)"/>
     <use xlink:href="#DejaVuSans-Oblique-70" transform="translate(741.748047 0.015625)"/>
     <use xlink:href="#DejaVuSans-3d" transform="translate(824.707031 0.015625)"/>
     <use xlink:href="#DejaVuSans-28" transform="translate(927.978516 0.015625)"/>
     <use xlink:href="#DejaVuSans-Oblique-68" transform="translate(966.992188 0.015625)"/>
     <use xlink:href="#DejaVuSans-3d" transform="translate(1049.853516 0.015625)"/>
     <use xlink:href="#DejaVuSans-35" transform="translate(1153.125 0.015625)"/>
     <use xlink:href="#DejaVuSans-6d" transform="translate(1232.983723 0.015625)"/>
     <use xlink:href="#DejaVuSans-2c" transform="translate(1330.395833 0.015625)"/>
     <use xlink:href="#DejaVuSans-Oblique-76" transform="translate(1408.7245 0.015625)"/>
     <use xlink:href="#DejaVuSans-3d" transform="translate(1487.386609 0.015625)"/>
     <use xlink:href="#DejaVuSans-33" transform="translate(1590.658093 0.015625)"/>
     <use xlink:href="#DejaVuSans-6d" transform="translate(1670.516816 0.015625)"/>
     <use xlink:href="#DejaVuSans-2f" transform="translate(1767.928926 0.015625)"/>
     <use xlink:href="#DejaVuSans-73" transform="translate(1801.620332 0.015625)"/>
     <use xlink:href="#DejaVuSans-2c" transform="translate(1853.719941 0.015625)"/>
     <use xlink:href="#DejaVuSans-Oblique-62" transform="translate(1932.048608 0.015625)"/>
     <use xlink:href="#DejaVuSans-3d" transform="translate(2015.007593 0.015625)"/>
     <use xlink:href="#DejaVuSans-37" transform="translate(2118.279077 0.015625)"/>
     <use xlink:href="#DejaVuSans-32" transform="translate(2181.902124 0.015625)"/>
     <use xlink:href="#DejaVuSans-25" transform="translate(2245.525171 0.015625)"/>
     <use xlink:href="#DejaVuSans-29" transform="translate(2340.544702 0.015625)"/>
    </g>
   </g>
   <g id="patch_66">
    <path d="M 595.952163 87.689121 
Q 595.952163 110.388668 595.952163 131.299361 
" style="fill: none; stroke: #1f4e7a; stroke-width: 1.6; stroke-linecap: round"/>
    <path d="M 597.952163 127.299361 
L 595.952163 131.299361 
L 593.952163 127.299361 
" style="fill: none; stroke: #1f4e7a; stroke-width: 1.6; stroke-linecap: round"/>
   </g>
   <g id="text_19">
    <!-- lookup -->
    <g style="fill: #1f4e7a" transform="translate(601.939683 115.255451) scale(0.095 -0.095)">
     <defs>
      <path id="DejaVuSans-Oblique-6b" d="M 1172 4863 
L 1747 4863 
L 1197 2028 
L 3169 3500 
L 3916 3500 
L 1716 1825 
L 3322 0 
L 2625 0 
L 1131 1709 
L 800 0 
L 225 0 
L 1172 4863 
z
" transform="scale(0.015625)"/>
      <path id="DejaVuSans-Oblique-75" d="M 428 1388 
L 838 3500 
L 1416 3500 
L 1006 1409 
Q 975 1256 961 1147 
Q 947 1038 947 966 
Q 947 700 1109 554 
Q 1272 409 1569 409 
Q 2031 409 2368 721 
Q 2706 1034 2809 1563 
L 3194 3500 
L 3769 3500 
L 3091 0 
L 2516 0 
L 2631 550 
Q 2388 244 2052 76 
Q 1716 -91 1338 -91 
Q 878 -91 622 161 
Q 366 413 366 863 
Q 366 956 381 1097 
Q 397 1238 428 1388 
z
" transform="scale(0.015625)"/>
     </defs>
     <use xlink:href="#DejaVuSans-Oblique-6c"/>
     <use xlink:href="#DejaVuSans-Oblique-6f" transform="translate(27.783203 0)"/>
     <use xlink:href="#DejaVuSans-Oblique-6f" transform="translate(88.964844 0)"/>
     <use xlink:href="#DejaVuSans-Oblique-6b" transform="translate(150.146484 0)"/>
     <use xlink:href="#DejaVuSans-Oblique-75" transform="translate(208.056641 0)"/>
     <use xlink:href="#DejaVuSans-Oblique-70" transform="translate(271.435547 0)"/>
    </g>
   </g>
   <g id="patch_67">
    <path d="M 640.611382 194.214005 
Q 669.672612 194.214005 696.944988 194.214005 
" style="fill: none; stroke: #1f4e7a; stroke-width: 1.6; stroke-linecap: round"/>
    <path d="M 692.944988 192.214005 
L 696.944988 194.214005 
L 692.944988 196.214005 
" style="fill: none; stroke: #1f4e7a; stroke-width: 1.6; stroke-linecap: round"/>
   </g>
   <g id="text_20">
    <!-- execute -->
    <g style="fill: #ffffff" transform="translate(684.315648 191.429461) scale(0.087 -0.087)">
     <defs>
      <path id="DejaVuSans-Bold-78" d="M 1422 1791 
L 159 3500 
L 1344 3500 
L 2059 2463 
L 2784 3500 
L 3969 3500 
L 2706 1797 
L 4031 0 
L 2847 0 
L 2059 1106 
L 1281 0 
L 97 0 
L 1422 1791 
z
" transform="scale(0.015625)"/>
     </defs>
     <use xlink:href="#DejaVuSans-Bold-65"/>
     <use xlink:href="#DejaVuSans-Bold-78" transform="translate(67.822266 0)"/>
     <use xlink:href="#DejaVuSans-Bold-65" transform="translate(132.324219 0)"/>
     <use xlink:href="#DejaVuSans-Bold-63" transform="translate(200.146484 0)"/>
     <use xlink:href="#DejaVuSans-Bold-75" transform="translate(259.423828 0)"/>
     <use xlink:href="#DejaVuSans-Bold-74" transform="translate(330.615234 0)"/>
     <use xlink:href="#DejaVuSans-Bold-65" transform="translate(378.417969 0)"/>
    </g>
    <!-- $\sigma_{f_2}(p)$ -->
    <g style="fill: #ffffff" transform="translate(692.156523 201.173189) scale(0.087 -0.087)">
     <use xlink:href="#DejaVuSans-Oblique-3c3" transform="translate(0 0.125)"/>
     <use xlink:href="#DejaVuSans-Oblique-66" transform="translate(63.378906 -16.28125) scale(0.7)"/>
     <use xlink:href="#DejaVuSans-32" transform="translate(88.022461 -27.765625) scale(0.49)"/>
     <use xlink:href="#DejaVuSans-28" transform="translate(123.846191 0.125)"/>
     <use xlink:href="#DejaVuSans-Oblique-70" transform="translate(162.859863 0.125)"/>
     <use xlink:href="#DejaVuSans-29" transform="translate(226.336426 0.125)"/>
    </g>
   </g>
   <g id="text_21">
    <!-- cache miss → online diagnosis/recovery pipeline -->
    <g style="fill: #9aa3ad" transform="translate(493.268178 281.781485) scale(0.085 -0.085)">
     <defs>
      <path id="DejaVuSans-Oblique-20" transform="scale(0.015625)"/>
      <path id="DejaVuSans-Oblique-6d" d="M 5747 2113 
L 5338 0 
L 4763 0 
L 5166 2094 
Q 5191 2228 5203 2325 
Q 5216 2422 5216 2491 
Q 5216 2772 5059 2928 
Q 4903 3084 4622 3084 
Q 4203 3084 3875 2770 
Q 3547 2456 3450 1953 
L 3066 0 
L 2491 0 
L 2900 2094 
Q 2925 2209 2937 2307 
Q 2950 2406 2950 2484 
Q 2950 2769 2794 2926 
Q 2638 3084 2363 3084 
Q 1938 3084 1609 2770 
Q 1281 2456 1184 1953 
L 800 0 
L 225 0 
L 909 3500 
L 1484 3500 
L 1375 2956 
Q 1609 3263 1923 3423 
Q 2238 3584 2597 3584 
Q 2978 3584 3223 3384 
Q 3469 3184 3519 2828 
Q 3781 3197 4126 3390 
Q 4472 3584 4856 3584 
Q 5306 3584 5551 3325 
Q 5797 3066 5797 2591 
Q 5797 2488 5784 2364 
Q 5772 2241 5747 2113 
z
" transform="scale(0.015625)"/>
      <path id="DejaVuSans-Oblique-69" d="M 1172 4863 
L 1747 4863 
L 1606 4134 
L 1031 4134 
L 1172 4863 
z
M 909 3500 
L 1484 3500 
L 800 0 
L 225 0 
L 909 3500 
z
" transform="scale(0.015625)"/>
      <path id="DejaVuSans-Oblique-73" d="M 3200 3397 
L 3091 2853 
Q 2863 2978 2609 3040 
Q 2356 3103 2088 3103 
Q 1634 3103 1373 2948 
Q 1113 2794 1113 2528 
Q 1113 2219 1719 2053 
Q 1766 2041 1788 2034 
L 1972 1978 
Q 2547 1819 2739 1644 
Q 2931 1469 2931 1166 
Q 2931 609 2489 259 
Q 2047 -91 1331 -91 
Q 1053 -91 747 -37 
Q 441 16 72 128 
L 184 722 
Q 500 559 806 475 
Q 1113 391 1394 391 
Q 1816 391 2080 572 
Q 2344 753 2344 1031 
Q 2344 1331 1650 1516 
L 1591 1531 
L 1394 1581 
Q 956 1697 753 1886 
Q 550 2075 550 2369 
Q 550 2928 970 3256 
Q 1391 3584 2113 3584 
Q 2397 3584 2667 3537 
Q 2938 3491 3200 3397 
z
" transform="scale(0.015625)"/>
      <path id="DejaVuSans-Oblique-2192" d="M 5050 2147 
L 5050 1866 
L 3822 638 
L 3447 1013 
L 4175 1741 
L 366 1741 
L 366 2272 
L 4175 2272 
L 3447 3000 
L 3822 3375 
L 5050 2147 
z
" transform="scale(0.015625)"/>
      <path id="DejaVuSans-Oblique-64" d="M 2675 525 
Q 2444 222 2128 65 
Q 1813 -91 1428 -91 
Q 903 -91 598 267 
Q 294 625 294 1247 
Q 294 1766 478 2236 
Q 663 2706 1013 3078 
Q 1244 3325 1534 3454 
Q 1825 3584 2144 3584 
Q 2481 3584 2739 3421 
Q 2997 3259 3138 2956 
L 3513 4863 
L 4091 4863 
L 3144 0 
L 2566 0 
L 2675 525 
z
M 891 1350 
Q 891 897 1095 644 
Q 1300 391 1663 391 
Q 1931 391 2161 520 
Q 2391 650 2566 903 
Q 2750 1166 2856 1509 
Q 2963 1853 2963 2188 
Q 2963 2622 2758 2865 
Q 2553 3109 2194 3109 
Q 1922 3109 1687 2981 
Q 1453 2853 1288 2613 
Q 1106 2353 998 2009 
Q 891 1666 891 1350 
z
" transform="scale(0.015625)"/>
      <path id="DejaVuSans-Oblique-67" d="M 3816 3500 
L 3219 434 
Q 3047 -456 2561 -893 
Q 2075 -1331 1253 -1331 
Q 950 -1331 690 -1286 
Q 431 -1241 206 -1147 
L 313 -588 
Q 525 -725 762 -790 
Q 1000 -856 1269 -856 
Q 1816 -856 2167 -557 
Q 2519 -259 2631 300 
L 2681 563 
Q 2441 288 2122 144 
Q 1803 0 1434 0 
Q 903 0 598 351 
Q 294 703 294 1319 
Q 294 1803 478 2267 
Q 663 2731 997 3091 
Q 1219 3328 1514 3456 
Q 1809 3584 2131 3584 
Q 2484 3584 2746 3420 
Q 3009 3256 3138 2956 
L 3238 3500 
L 3816 3500 
z
M 2950 2216 
Q 2950 2641 2750 2872 
Q 2550 3103 2181 3103 
Q 1953 3103 1747 3012 
Q 1541 2922 1394 2759 
Q 1156 2491 1023 2127 
Q 891 1763 891 1375 
Q 891 944 1092 712 
Q 1294 481 1672 481 
Q 2219 481 2584 976 
Q 2950 1472 2950 2216 
z
" transform="scale(0.015625)"/>
      <path id="DejaVuSans-Oblique-2f" d="M 2175 4666 
L 2731 4666 
L 84 -594 
L -469 -594 
L 2175 4666 
z
" transform="scale(0.015625)"/>
      <path id="DejaVuSans-Oblique-79" d="M 1588 -325 
Q 1188 -997 936 -1164 
Q 684 -1331 294 -1331 
L -159 -1331 
L -63 -850 
L 269 -850 
Q 509 -850 678 -719 
Q 847 -588 1056 -206 
L 1234 128 
L 459 3500 
L 1069 3500 
L 1650 819 
L 3256 3500 
L 3859 3500 
L 1588 -325 
z
" transform="scale(0.015625)"/>
     </defs>
     <use xlink:href="#DejaVuSans-Oblique-63"/>
     <use xlink:href="#DejaVuSans-Oblique-61" transform="translate(54.980469 0)"/>
     <use xlink:href="#DejaVuSans-Oblique-63" transform="translate(116.259766 0)"/>
     <use xlink:href="#DejaVuSans-Oblique-68" transform="translate(171.240234 0)"/>
     <use xlink:href="#DejaVuSans-Oblique-65" transform="translate(234.619141 0)"/>
     <use xlink:href="#DejaVuSans-Oblique-20" transform="translate(296.142578 0)"/>
     <use xlink:href="#DejaVuSans-Oblique-6d" transform="translate(327.929688 0)"/>
     <use xlink:href="#DejaVuSans-Oblique-69" transform="translate(425.341797 0)"/>
     <use xlink:href="#DejaVuSans-Oblique-73" transform="translate(453.125 0)"/>
     <use xlink:href="#DejaVuSans-Oblique-73" transform="translate(505.224609 0)"/>
     <use xlink:href="#DejaVuSans-Oblique-20" transform="translate(557.324219 0)"/>
     <use xlink:href="#DejaVuSans-Oblique-2192" transform="translate(589.111328 0)"/>
     <use xlink:href="#DejaVuSans-Oblique-20" transform="translate(672.900391 0)"/>
     <use xlink:href="#DejaVuSans-Oblique-6f" transform="translate(704.6875 0)"/>
     <use xlink:href="#DejaVuSans-Oblique-6e" transform="translate(765.869141 0)"/>
     <use xlink:href="#DejaVuSans-Oblique-6c" transform="translate(829.248047 0)"/>
     <use xlink:href="#DejaVuSans-Oblique-69" transform="translate(857.03125 0)"/>
     <use xlink:href="#DejaVuSans-Oblique-6e" transform="translate(884.814453 0)"/>
     <use xlink:href="#DejaVuSans-Oblique-65" transform="translate(948.193359 0)"/>
     <use xlink:href="#DejaVuSans-Oblique-20" transform="translate(1009.716797 0)"/>
     <use xlink:href="#DejaVuSans-Oblique-64" transform="translate(1041.503906 0)"/>
     <use xlink:href="#DejaVuSans-Oblique-69" transform="translate(1104.980469 0)"/>
     <use xlink:href="#DejaVuSans-Oblique-61" transform="translate(1132.763672 0)"/>
     <use xlink:href="#DejaVuSans-Oblique-67" transform="translate(1194.042969 0)"/>
     <use xlink:href="#DejaVuSans-Oblique-6e" transform="translate(1257.519531 0)"/>
     <use xlink:href="#DejaVuSans-Oblique-6f" transform="translate(1320.898438 0)"/>
     <use xlink:href="#DejaVuSans-Oblique-73" transform="translate(1382.080078 0)"/>
     <use xlink:href="#DejaVuSans-Oblique-69" transform="translate(1434.179688 0)"/>
     <use xlink:href="#DejaVuSans-Oblique-73" transform="translate(1461.962891 0)"/>
     <use xlink:href="#DejaVuSans-Oblique-2f" transform="translate(1514.0625 0)"/>
     <use xlink:href="#DejaVuSans-Oblique-72" transform="translate(1547.753906 0)"/>
     <use xlink:href="#DejaVuSans-Oblique-65" transform="translate(1588.867188 0)"/>
     <use xlink:href="#DejaVuSans-Oblique-63" transform="translate(1650.390625 0)"/>
     <use xlink:href="#DejaVuSans-Oblique-6f" transform="translate(1705.371094 0)"/>
     <use xlink:href="#DejaVuSans-Oblique-76" transform="translate(1766.552734 0)"/>
     <use xlink:href="#DejaVuSans-Oblique-65" transform="translate(1825.732422 0)"/>
     <use xlink:href="#DejaVuSans-Oblique-72" transform="translate(1887.255859 0)"/>
     <use xlink:href="#DejaVuSans-Oblique-79" transform="translate(1928.369141 0)"/>
     <use xlink:href="#DejaVuSans-Oblique-20" transform="translate(1987.548828 0)"/>
     <use xlink:href="#DejaVuSans-Oblique-70" transform="translate(2019.335938 0)"/>
     <use xlink:href="#DejaVuSans-Oblique-69" transform="translate(2082.8125 0)"/>
     <use xlink:href="#DejaVuSans-Oblique-70" transform="translate(2110.595703 0)"/>
     <use xlink:href="#DejaVuSans-Oblique-65" transform="translate(2174.072266 0)"/>
     <use xlink:href="#DejaVuSans-Oblique-6c" transform="translate(2235.595703 0)"/>
     <use xlink:href="#DejaVuSans-Oblique-69" transform="translate(2263.378906 0)"/>
     <use xlink:href="#DejaVuSans-Oblique-6e" transform="translate(2291.162109 0)"/>
     <use xlink:href="#DejaVuSans-Oblique-65" transform="translate(2354.541016 0)"/>
    </g>
   </g>
   <g id="text_22">
    <!-- Runtime -->
    <g style="fill: #1a2433" transform="translate(446.264163 16.318125) scale(0.12 -0.12)">
     <defs>
      <path id="DejaVuSans-Bold-52" d="M 2297 2597 
Q 2675 2597 2839 2737 
Q 3003 2878 3003 3200 
Q 3003 3519 2839 3656 
Q 2675 3794 2297 3794 
L 1791 3794 
L 1791 2597 
L 2297 2597 
z
M 1791 1766 
L 1791 0 
L 588 0 
L 588 4666 
L 2425 4666 
Q 3347 4666 3776 4356 
Q 4206 4047 4206 3378 
Q 4206 2916 3982 2619 
Q 3759 2322 3309 2181 
Q 3556 2125 3751 1926 
Q 3947 1728 4147 1325 
L 4800 0 
L 3519 0 
L 2950 1159 
Q 2778 1509 2601 1637 
Q 2425 1766 2131 1766 
L 1791 1766 
z
" transform="scale(0.015625)"/>
     </defs>
     <use xlink:href="#DejaVuSans-Bold-52"/>
     <use xlink:href="#DejaVuSans-Bold-75" transform="translate(77.001953 0)"/>
     <use xlink:href="#DejaVuSans-Bold-6e" transform="translate(148.193359 0)"/>
     <use xlink:href="#DejaVuSans-Bold-74" transform="translate(219.384766 0)"/>
     <use xlink:href="#DejaVuSans-Bold-69" transform="translate(267.1875 0)"/>
     <use xlink:href="#DejaVuSans-Bold-6d" transform="translate(301.464844 0)"/>
     <use xlink:href="#DejaVuSans-Bold-65" transform="translate(405.664062 0)"/>
    </g>
   </g>
   <g id="patch_68">
    <path d="M 587.719323 202.446845 
L 604.185003 202.446845 
L 604.185003 185.981165 
L 587.719323 185.981165 
L 587.719323 202.446845 
z
" clip-path="url(#p632b0f78f4)" style="fill: none; stroke: #c0392b; stroke-width: 2.4; stroke-linejoin: miter"/>
   </g>
   <g id="text_23">
    <!-- ✓ -->
    <g style="fill: #ffffff" transform="translate(590.086381 198.07713) scale(0.14 -0.14)">
     <defs>
      <path id="DejaVuSans-Bold-2713" d="M 1416 2044 
Q 1538 2044 1600 1844 
Q 1725 1469 1778 1469 
Q 1819 1469 1863 1531 
Q 2741 2938 3488 3806 
Q 3681 4031 4103 4031 
Q 4203 4031 4237 4012 
Q 4272 3994 4272 3966 
Q 4272 3922 4169 3794 
Q 2963 2344 1931 731 
Q 1859 619 1638 619 
Q 1413 619 1372 638 
Q 1266 684 1122 1116 
Q 959 1594 959 1716 
Q 959 1847 1178 1969 
Q 1313 2044 1416 2044 
z
" transform="scale(0.015625)"/>
     </defs>
     <use xlink:href="#DejaVuSans-Bold-2713"/>
    </g>
   </g>
  </g>
 </g>
 <defs>
  <clipPath id="p93df3c2527">
   <rect x="7.2" y="24.318125" width="388.332896" height="271.833028"/>
  </clipPath>
  <clipPath id="p632b0f78f4">
   <rect x="446.264163" y="24.318125" width="299.376" height="299.376"/>
  </clipPath>
 </defs>
</svg>
