<?xml version="1.0" encoding="utf-8" standalone="no"?>
<!DOCTYPE svg PUBLIC "-//W3C//DTD SVG 1.1//EN"
  "http://www.w3.org/Graphics/SVG/1.1/DTD/svg11.dtd">
<svg xmlns:xlink="http://www.w3.org/1999/xlink" width="430.591875pt" height="421.25pt" viewBox="0 0 430.591875 421.25" xmlns="http://www.w3.org/2000/svg" version="1.1">
 <metadata>
  <rdf:RDF xmlns:dc="http://purl.org/dc/elements/1.1/" xmlns:cc="http://creativecommons.org/ns#" xmlns:rdf="http://www.w3.org/1999/02/22-rdf-syntax-ns#">
   <cc:Work>
    <dc:type rdf:resource="http://purl.org/dc/dcmitype/StillImage"/>
    <dc:date>2026-04-27T01:59:04.348900</dc:date>
    <dc:format>image/svg+xml</dc:format>
    <dc:creator>
     <cc:Agent>
      <dc:title>Matplotlib v3.9.4, https://matplotlib.org/</dc:title>
     </cc:Agent>
    </dc:creator>
   </cc:Work>
  </rdf:RDF>
 </metadata>
 <defs>
  <style type="text/css">*{stroke-linejoin: round; stroke-linecap: butt}</style>
 </defs>
 <g id="figure_1">
  <g id="patch_1">
   <path d="M 0 421.25 
L 430.591875 421.25 
L 430.591875 0 
L 0 0 
z
" style="fill: #ffffff"/>
  </g>
  <g id="patch_2">
   <path d="M 42.315938 385.54 
L 402.675938 385.54 
L 402.675938 25.18 
L 42.315938 25.18 
z
" style="fill: #ffffff"/>
  </g>
  <g id="pane3d_1">
   <g id="patch_3">
    <path d="M 65.867204 292.002195 
L 201.306273 230.51202 
L 200.631187 75.98523 
L 61.2844 124.480416 
" style="fill: #f2f2f2; opacity: 0.5; stroke: #f2f2f2; stroke-linejoin: miter"/>
   </g>
  </g>
  <g id="pane3d_2">
   <g id="patch_4">
    <path d="M 201.306273 230.51202 
L 384.494795 272.403029 
L 388.829651 108.997883 
L 200.631187 75.98523 
" style="fill: #e6e6e6; opacity: 0.5; stroke: #e6e6e6; stroke-linejoin: miter"/>
   </g>
  </g>
  <g id="pane3d_3">
   <g id="patch_5">
    <path d="M 65.867204 292.002195 
L 257.820157 342.319749 
L 384.494795 272.403029 
L 201.306273 230.51202 
" style="fill: #ececec; opacity: 0.5; stroke: #ececec; stroke-linejoin: miter"/>
   </g>
  </g>
  <g id="grid3d_1"/>
  <g id="grid3d_2"/>
  <g id="grid3d_3"/>
  <g id="axis3d_1">
   <g id="line2d_1">
    <path d="M 65.867204 292.002195 
L 257.820157 342.319749 
" style="fill: none; stroke: #000000; stroke-width: 0.8; stroke-linecap: square"/>
   </g>
   <g id="text_1">
    <!-- altitude -->
    <g style="fill: #1a2433" transform="translate(117.177911 351.509297) rotate(-345.311272) scale(0.1 -0.1)">
     <defs>
      <path id="DejaVuSans-61" d="M 2194 1759 
Q 1497 1759 1228 1600 
Q 959 1441 959 1056 
Q 959 750 1161 570 
Q 1363 391 1709 391 
Q 2188 391 2477 730 
Q 2766 1069 2766 1631 
L 2766 1759 
L 2194 1759 
z
M 3341 1997 
L 3341 0 
L 2766 0 
L 2766 531 
Q 2569 213 2275 61 
Q 1981 -91 1556 -91 
Q 1019 -91 701 211 
Q 384 513 384 1019 
Q 384 1609 779 1909 
Q 1175 2209 1959 2209 
L 2766 2209 
L 2766 2266 
Q 2766 2663 2505 2880 
Q 2244 3097 1772 3097 
Q 1472 3097 1187 3025 
Q 903 2953 641 2809 
L 641 3341 
Q 956 3463 1253 3523 
Q 1550 3584 1831 3584 
Q 2591 3584 2966 3190 
Q 3341 2797 3341 1997 
z
" transform="scale(0.015625)"/>
      <path id="DejaVuSans-6c" d="M 603 4863 
L 1178 4863 
L 1178 0 
L 603 0 
L 603 4863 
z
" transform="scale(0.015625)"/>
      <path id="DejaVuSans-74" d="M 1172 4494 
L 1172 3500 
L 2356 3500 
L 2356 3053 
L 1172 3053 
L 1172 1153 
Q 1172 725 1289 603 
Q 1406 481 1766 481 
L 2356 481 
L 2356 0 
L 1766 0 
Q 1100 0 847 248 
Q 594 497 594 1153 
L 594 3053 
L 172 3053 
L 172 3500 
L 594 3500 
L 594 4494 
L 1172 4494 
z
" transform="scale(0.015625)"/>
      <path id="DejaVuSans-69" d="M 603 3500 
L 1178 3500 
L 1178 0 
L 603 0 
L 603 3500 
z
M 603 4863 
L 1178 4863 
L 1178 4134 
L 603 4134 
L 603 4863 
z
" transform="scale(0.015625)"/>
      <path id="DejaVuSans-75" d="M 544 1381 
L 544 3500 
L 1119 3500 
L 1119 1403 
Q 1119 906 1312 657 
Q 1506 409 1894 409 
Q 2359 409 2629 706 
Q 2900 1003 2900 1516 
L 2900 3500 
L 3475 3500 
L 3475 0 
L 2900 0 
L 2900 538 
Q 2691 219 2414 64 
Q 2138 -91 1772 -91 
Q 1169 -91 856 284 
Q 544 659 544 1381 
z
M 1991 3584 
L 1991 3584 
z
" transform="scale(0.015625)"/>
      <path id="DejaVuSans-64" d="M 2906 2969 
L 2906 4863 
L 3481 4863 
L 3481 0 
L 2906 0 
L 2906 525 
Q 2725 213 2448 61 
Q 2172 -91 1784 -91 
Q 1150 -91 751 415 
Q 353 922 353 1747 
Q 353 2572 751 3078 
Q 1150 3584 1784 3584 
Q 2172 3584 2448 3432 
Q 2725 3281 2906 2969 
z
M 947 1747 
Q 947 1113 1208 752 
Q 1469 391 1925 391 
Q 2381 391 2643 752 
Q 2906 1113 2906 1747 
Q 2906 2381 2643 2742 
Q 2381 3103 1925 3103 
Q 1469 3103 1208 2742 
Q 947 2381 947 1747 
z
" transform="scale(0.015625)"/>
      <path id="DejaVuSans-65" d="M 3597 1894 
L 3597 1613 
L 953 1613 
Q 991 1019 1311 708 
Q 1631 397 2203 397 
Q 2534 397 2845 478 
Q 3156 559 3463 722 
L 3463 178 
Q 3153 47 2828 -22 
Q 2503 -91 2169 -91 
Q 1331 -91 842 396 
Q 353 884 353 1716 
Q 353 2575 817 3079 
Q 1281 3584 2069 3584 
Q 2775 3584 3186 3129 
Q 3597 2675 3597 1894 
z
M 3022 2063 
Q 3016 2534 2758 2815 
Q 2500 3097 2075 3097 
Q 1594 3097 1305 2825 
Q 1016 2553 972 2059 
L 3022 2063 
z
" transform="scale(0.015625)"/>
     </defs>
     <use xlink:href="#DejaVuSans-61"/>
     <use xlink:href="#DejaVuSans-6c" x="61.279297"/>
     <use xlink:href="#DejaVuSans-74" x="89.0625"/>
     <use xlink:href="#DejaVuSans-69" x="128.271484"/>
     <use xlink:href="#DejaVuSans-74" x="156.054688"/>
     <use xlink:href="#DejaVuSans-75" x="195.263672"/>
     <use xlink:href="#DejaVuSans-64" x="258.642578"/>
     <use xlink:href="#DejaVuSans-65" x="322.119141"/>
    </g>
   </g>
  </g>
  <g id="axis3d_2">
   <g id="line2d_2">
    <path d="M 384.494795 272.403029 
L 257.820157 342.319749 
" style="fill: none; stroke: #000000; stroke-width: 0.8; stroke-linecap: square"/>
   </g>
   <g id="text_2">
    <!-- speed -->
    <g style="fill: #1a2433" transform="translate(342.916725 348.754992) rotate(-28.896035) scale(0.1 -0.1)">
     <defs>
      <path id="DejaVuSans-73" d="M 2834 3397 
L 2834 2853 
Q 2591 2978 2328 3040 
Q 2066 3103 1784 3103 
Q 1356 3103 1142 2972 
Q 928 2841 928 2578 
Q 928 2378 1081 2264 
Q 1234 2150 1697 2047 
L 1894 2003 
Q 2506 1872 2764 1633 
Q 3022 1394 3022 966 
Q 3022 478 2636 193 
Q 2250 -91 1575 -91 
Q 1294 -91 989 -36 
Q 684 19 347 128 
L 347 722 
Q 666 556 975 473 
Q 1284 391 1588 391 
Q 1994 391 2212 530 
Q 2431 669 2431 922 
Q 2431 1156 2273 1281 
Q 2116 1406 1581 1522 
L 1381 1569 
Q 847 1681 609 1914 
Q 372 2147 372 2553 
Q 372 3047 722 3315 
Q 1072 3584 1716 3584 
Q 2034 3584 2315 3537 
Q 2597 3491 2834 3397 
z
" transform="scale(0.015625)"/>
      <path id="DejaVuSans-70" d="M 1159 525 
L 1159 -1331 
L 581 -1331 
L 581 3500 
L 1159 3500 
L 1159 2969 
Q 1341 3281 1617 3432 
Q 1894 3584 2278 3584 
Q 2916 3584 3314 3078 
Q 3713 2572 3713 1747 
Q 3713 922 3314 415 
Q 2916 -91 2278 -91 
Q 1894 -91 1617 61 
Q 1341 213 1159 525 
z
M 3116 1747 
Q 3116 2381 2855 2742 
Q 2594 3103 2138 3103 
Q 1681 3103 1420 2742 
Q 1159 2381 1159 1747 
Q 1159 1113 1420 752 
Q 1681 391 2138 391 
Q 2594 391 2855 752 
Q 3116 1113 3116 1747 
z
" transform="scale(0.015625)"/>
     </defs>
     <use xlink:href="#DejaVuSans-73"/>
     <use xlink:href="#DejaVuSans-70" x="52.099609"/>
     <use xlink:href="#DejaVuSans-65" x="115.576172"/>
     <use xlink:href="#DejaVuSans-65" x="177.099609"/>
     <use xlink:href="#DejaVuSans-64" x="238.623047"/>
    </g>
   </g>
  </g>
  <g id="axis3d_3">
   <g id="line2d_3">
    <path d="M 384.494795 272.403029 
L 388.829651 108.997883 
" style="fill: none; stroke: #000000; stroke-width: 0.8; stroke-linecap: square"/>
   </g>
   <g id="text_3">
    <!-- battery -->
    <g style="fill: #1a2433" transform="translate(437.244898 207.49505) rotate(-88.480398) scale(0.1 -0.1)">
     <defs>
      <path id="DejaVuSans-62" d="M 3116 1747 
Q 3116 2381 2855 2742 
Q 2594 3103 2138 3103 
Q 1681 3103 1420 2742 
Q 1159 2381 1159 1747 
Q 1159 1113 1420 752 
Q 1681 391 2138 391 
Q 2594 391 2855 752 
Q 3116 1113 3116 1747 
z
M 1159 2969 
Q 1341 3281 1617 3432 
Q 1894 3584 2278 3584 
Q 2916 3584 3314 3078 
Q 3713 2572 3713 1747 
Q 3713 922 3314 415 
Q 2916 -91 2278 -91 
Q 1894 -91 1617 61 
Q 1341 213 1159 525 
L 1159 0 
L 581 0 
L 581 4863 
L 1159 4863 
L 1159 2969 
z
" transform="scale(0.015625)"/>
      <path id="DejaVuSans-72" d="M 2631 2963 
Q 2534 3019 2420 3045 
Q 2306 3072 2169 3072 
Q 1681 3072 1420 2755 
Q 1159 2438 1159 1844 
L 1159 0 
L 581 0 
L 581 3500 
L 1159 3500 
L 1159 2956 
Q 1341 3275 1631 3429 
Q 1922 3584 2338 3584 
Q 2397 3584 2469 3576 
Q 2541 3569 2628 3553 
L 2631 2963 
z
" transform="scale(0.015625)"/>
      <path id="DejaVuSans-79" d="M 2059 -325 
Q 1816 -950 1584 -1140 
Q 1353 -1331 966 -1331 
L 506 -1331 
L 506 -850 
L 844 -850 
Q 1081 -850 1212 -737 
Q 1344 -625 1503 -206 
L 1606 56 
L 191 3500 
L 800 3500 
L 1894 763 
L 2988 3500 
L 3597 3500 
L 2059 -325 
z
" transform="scale(0.015625)"/>
     </defs>
     <use xlink:href="#DejaVuSans-62"/>
     <use xlink:href="#DejaVuSans-61" x="63.476562"/>
     <use xlink:href="#DejaVuSans-74" x="124.755859"/>
     <use xlink:href="#DejaVuSans-74" x="163.964844"/>
     <use xlink:href="#DejaVuSans-65" x="203.173828"/>
     <use xlink:href="#DejaVuSans-72" x="264.697266"/>
     <use xlink:href="#DejaVuSans-79" x="305.810547"/>
    </g>
   </g>
  </g>
  <g id="axes_1">
   <g id="line2d_4">
    <path d="M 70.761604 289.228819 
L 66.456067 126.847316 
" clip-path="url(#p492381cf9f)" style="fill: none; stroke: #9aa3ad; stroke-width: 0.8; stroke-linecap: square"/>
   </g>
   <g id="line2d_5">
    <path d="M 202.030861 229.677258 
L 201.393254 79.53425 
" clip-path="url(#p492381cf9f)" style="fill: none; stroke: #9aa3ad; stroke-width: 0.8; stroke-linecap: square"/>
   </g>
   <g id="line2d_6">
    <path d="M 70.761604 289.228819 
L 202.030861 229.677258 
" clip-path="url(#p492381cf9f)" style="fill: none; stroke: #9aa3ad; stroke-width: 0.8; stroke-linecap: square"/>
   </g>
   <g id="line2d_7">
    <path d="M 66.456067 126.847316 
L 201.393254 79.53425 
" clip-path="url(#p492381cf9f)" style="fill: none; stroke: #9aa3ad; stroke-width: 0.8; stroke-linecap: square"/>
   </g>
   <g id="line2d_8">
    <path d="M 70.761604 289.228819 
L 256.835164 337.732541 
" clip-path="url(#p492381cf9f)" style="fill: none; stroke: #9aa3ad; stroke-width: 0.8; stroke-linecap: square"/>
   </g>
   <g id="line2d_9">
    <path d="M 66.456067 126.847316 
L 257.701429 165.541926 
" clip-path="url(#p492381cf9f)" style="fill: none; stroke: #9aa3ad; stroke-width: 0.8; stroke-linecap: square"/>
   </g>
   <g id="line2d_10">
    <path d="M 256.835164 337.732541 
L 257.701429 165.541926 
" clip-path="url(#p492381cf9f)" style="fill: none; stroke: #9aa3ad; stroke-width: 0.8; stroke-linecap: square"/>
   </g>
   <g id="line2d_11">
    <path d="M 379.857847 270.280852 
L 383.93731 111.770092 
" clip-path="url(#p492381cf9f)" style="fill: none; stroke: #9aa3ad; stroke-width: 0.8; stroke-linecap: square"/>
   </g>
   <g id="line2d_12">
    <path d="M 256.835164 337.732541 
L 379.857847 270.280852 
" clip-path="url(#p492381cf9f)" style="fill: none; stroke: #9aa3ad; stroke-width: 0.8; stroke-linecap: square"/>
   </g>
   <g id="line2d_13">
    <path d="M 257.701429 165.541926 
L 383.93731 111.770092 
" clip-path="url(#p492381cf9f)" style="fill: none; stroke: #9aa3ad; stroke-width: 0.8; stroke-linecap: square"/>
   </g>
   <g id="line2d_14">
    <path d="M 202.030861 229.677258 
L 379.857847 270.280852 
" clip-path="url(#p492381cf9f)" style="fill: none; stroke: #9aa3ad; stroke-width: 0.8; stroke-linecap: square"/>
   </g>
   <g id="line2d_15">
    <path d="M 201.393254 79.53425 
L 383.93731 111.770092 
" clip-path="url(#p492381cf9f)" style="fill: none; stroke: #9aa3ad; stroke-width: 0.8; stroke-linecap: square"/>
   </g>
   <g id="Poly3DCollection_1">
    <defs>
     <path id="mf827d3dbfe" d="M 235.167074 -214.249788 
L 235.202522 -241.460043 
L 266.907912 -234.841866 
L 266.72713 -207.36906 
z
" style="stroke: #ffffff; stroke-opacity: 0.6; stroke-width: 0.4"/>
    </defs>
    <g clip-path="url(#p492381cf9f)">
     <use xlink:href="#mf827d3dbfe" x="0" y="421.25" style="fill: #5d3319; fill-opacity: 0.55; stroke: #ffffff; stroke-opacity: 0.6; stroke-width: 0.4"/>
    </g>
   </g>
   <g id="text_4">
    <!-- current $p$ -->
    <g style="fill: #c0392b" transform="translate(263.604813 184.634538) scale(0.09 -0.09)">
     <defs>
      <path id="DejaVuSans-Bold-63" d="M 3366 3391 
L 3366 2478 
Q 3138 2634 2908 2709 
Q 2678 2784 2431 2784 
Q 1963 2784 1702 2511 
Q 1441 2238 1441 1747 
Q 1441 1256 1702 982 
Q 1963 709 2431 709 
Q 2694 709 2930 787 
Q 3166 866 3366 1019 
L 3366 103 
Q 3103 6 2833 -42 
Q 2563 -91 2291 -91 
Q 1344 -91 809 395 
Q 275 881 275 1747 
Q 275 2613 809 3098 
Q 1344 3584 2291 3584 
Q 2566 3584 2833 3536 
Q 3100 3488 3366 3391 
z
" transform="scale(0.015625)"/>
      <path id="DejaVuSans-Bold-75" d="M 500 1363 
L 500 3500 
L 1625 3500 
L 1625 3150 
Q 1625 2866 1622 2436 
Q 1619 2006 1619 1863 
Q 1619 1441 1641 1255 
Q 1663 1069 1716 984 
Q 1784 875 1895 815 
Q 2006 756 2150 756 
Q 2500 756 2700 1025 
Q 2900 1294 2900 1772 
L 2900 3500 
L 4019 3500 
L 4019 0 
L 2900 0 
L 2900 506 
Q 2647 200 2364 54 
Q 2081 -91 1741 -91 
Q 1134 -91 817 281 
Q 500 653 500 1363 
z
" transform="scale(0.015625)"/>
      <path id="DejaVuSans-Bold-72" d="M 3138 2547 
Q 2991 2616 2845 2648 
Q 2700 2681 2553 2681 
Q 2122 2681 1889 2404 
Q 1656 2128 1656 1613 
L 1656 0 
L 538 0 
L 538 3500 
L 1656 3500 
L 1656 2925 
Q 1872 3269 2151 3426 
Q 2431 3584 2822 3584 
Q 2878 3584 2943 3579 
Q 3009 3575 3134 3559 
L 3138 2547 
z
" transform="scale(0.015625)"/>
      <path id="DejaVuSans-Bold-65" d="M 4031 1759 
L 4031 1441 
L 1416 1441 
Q 1456 1047 1700 850 
Q 1944 653 2381 653 
Q 2734 653 3104 758 
Q 3475 863 3866 1075 
L 3866 213 
Q 3469 63 3072 -14 
Q 2675 -91 2278 -91 
Q 1328 -91 801 392 
Q 275 875 275 1747 
Q 275 2603 792 3093 
Q 1309 3584 2216 3584 
Q 3041 3584 3536 3087 
Q 4031 2591 4031 1759 
z
M 2881 2131 
Q 2881 2450 2695 2645 
Q 2509 2841 2209 2841 
Q 1884 2841 1681 2658 
Q 1478 2475 1428 2131 
L 2881 2131 
z
" transform="scale(0.015625)"/>
      <path id="DejaVuSans-Bold-6e" d="M 4056 2131 
L 4056 0 
L 2931 0 
L 2931 347 
L 2931 1631 
Q 2931 2084 2911 2256 
Q 2891 2428 2841 2509 
Q 2775 2619 2662 2680 
Q 2550 2741 2406 2741 
Q 2056 2741 1856 2470 
Q 1656 2200 1656 1722 
L 1656 0 
L 538 0 
L 538 3500 
L 1656 3500 
L 1656 2988 
Q 1909 3294 2193 3439 
Q 2478 3584 2822 3584 
Q 3428 3584 3742 3212 
Q 4056 2841 4056 2131 
z
" transform="scale(0.015625)"/>
      <path id="DejaVuSans-Bold-74" d="M 1759 4494 
L 1759 3500 
L 2913 3500 
L 2913 2700 
L 1759 2700 
L 1759 1216 
Q 1759 972 1856 886 
Q 1953 800 2241 800 
L 2816 800 
L 2816 0 
L 1856 0 
Q 1194 0 917 276 
Q 641 553 641 1216 
L 641 2700 
L 84 2700 
L 84 3500 
L 641 3500 
L 641 4494 
L 1759 4494 
z
" transform="scale(0.015625)"/>
      <path id="DejaVuSans-Bold-20" transform="scale(0.015625)"/>
      <path id="DejaVuSans-Oblique-70" d="M 3175 2156 
Q 3175 2616 2975 2859 
Q 2775 3103 2400 3103 
Q 2144 3103 1911 2972 
Q 1678 2841 1497 2591 
Q 1319 2344 1212 1994 
Q 1106 1644 1106 1300 
Q 1106 863 1306 627 
Q 1506 391 1875 391 
Q 2147 391 2380 519 
Q 2613 647 2778 891 
Q 2956 1147 3065 1494 
Q 3175 1841 3175 2156 
z
M 1394 2969 
Q 1625 3272 1939 3428 
Q 2253 3584 2638 3584 
Q 3175 3584 3472 3232 
Q 3769 2881 3769 2247 
Q 3769 1728 3584 1258 
Q 3400 788 3053 416 
Q 2822 169 2531 39 
Q 2241 -91 1919 -91 
Q 1547 -91 1294 64 
Q 1041 219 916 525 
L 556 -1331 
L -19 -1331 
L 922 3500 
L 1497 3500 
L 1394 2969 
z
" transform="scale(0.015625)"/>
     </defs>
     <use xlink:href="#DejaVuSans-Bold-63" transform="translate(0 0.78125)"/>
     <use xlink:href="#DejaVuSans-Bold-75" transform="translate(59.277344 0.78125)"/>
     <use xlink:href="#DejaVuSans-Bold-72" transform="translate(130.46875 0.78125)"/>
     <use xlink:href="#DejaVuSans-Bold-72" transform="translate(179.785156 0.78125)"/>
     <use xlink:href="#DejaVuSans-Bold-65" transform="translate(229.101562 0.78125)"/>
     <use xlink:href="#DejaVuSans-Bold-6e" transform="translate(296.923828 0.78125)"/>
     <use xlink:href="#DejaVuSans-Bold-74" transform="translate(368.115234 0.78125)"/>
     <use xlink:href="#DejaVuSans-Bold-20" transform="translate(415.917969 0.78125)"/>
     <use xlink:href="#DejaVuSans-Oblique-70" transform="translate(450.732422 0.78125)"/>
    </g>
   </g>
   <g id="text_5">
    <!-- Certified region in $\mathcal{P}$ for fault $f$  —  voxel colour = backup strategy assigned -->
    <g style="fill: #1a2433" transform="translate(24.570938 15.18) scale(0.105 -0.105)">
     <defs>
      <path id="DejaVuSans-43" d="M 4122 4306 
L 4122 3641 
Q 3803 3938 3442 4084 
Q 3081 4231 2675 4231 
Q 1875 4231 1450 3742 
Q 1025 3253 1025 2328 
Q 1025 1406 1450 917 
Q 1875 428 2675 428 
Q 3081 428 3442 575 
Q 3803 722 4122 1019 
L 4122 359 
Q 3791 134 3420 21 
Q 3050 -91 2638 -91 
Q 1578 -91 968 557 
Q 359 1206 359 2328 
Q 359 3453 968 4101 
Q 1578 4750 2638 4750 
Q 3056 4750 3426 4639 
Q 3797 4528 4122 4306 
z
" transform="scale(0.015625)"/>
      <path id="DejaVuSans-66" d="M 2375 4863 
L 2375 4384 
L 1825 4384 
Q 1516 4384 1395 4259 
Q 1275 4134 1275 3809 
L 1275 3500 
L 2222 3500 
L 2222 3053 
L 1275 3053 
L 1275 0 
L 697 0 
L 697 3053 
L 147 3053 
L 147 3500 
L 697 3500 
L 697 3744 
Q 697 4328 969 4595 
Q 1241 4863 1831 4863 
L 2375 4863 
z
" transform="scale(0.015625)"/>
      <path id="DejaVuSans-20" transform="scale(0.015625)"/>
      <path id="DejaVuSans-67" d="M 2906 1791 
Q 2906 2416 2648 2759 
Q 2391 3103 1925 3103 
Q 1463 3103 1205 2759 
Q 947 2416 947 1791 
Q 947 1169 1205 825 
Q 1463 481 1925 481 
Q 2391 481 2648 825 
Q 2906 1169 2906 1791 
z
M 3481 434 
Q 3481 -459 3084 -895 
Q 2688 -1331 1869 -1331 
Q 1566 -1331 1297 -1286 
Q 1028 -1241 775 -1147 
L 775 -588 
Q 1028 -725 1275 -790 
Q 1522 -856 1778 -856 
Q 2344 -856 2625 -561 
Q 2906 -266 2906 331 
L 2906 616 
Q 2728 306 2450 153 
Q 2172 0 1784 0 
Q 1141 0 747 490 
Q 353 981 353 1791 
Q 353 2603 747 3093 
Q 1141 3584 1784 3584 
Q 2172 3584 2450 3431 
Q 2728 3278 2906 2969 
L 2906 3500 
L 3481 3500 
L 3481 434 
z
" transform="scale(0.015625)"/>
      <path id="DejaVuSans-6f" d="M 1959 3097 
Q 1497 3097 1228 2736 
Q 959 2375 959 1747 
Q 959 1119 1226 758 
Q 1494 397 1959 397 
Q 2419 397 2687 759 
Q 2956 1122 2956 1747 
Q 2956 2369 2687 2733 
Q 2419 3097 1959 3097 
z
M 1959 3584 
Q 2709 3584 3137 3096 
Q 3566 2609 3566 1747 
Q 3566 888 3137 398 
Q 2709 -91 1959 -91 
Q 1206 -91 779 398 
Q 353 888 353 1747 
Q 353 2609 779 3096 
Q 1206 3584 1959 3584 
z
" transform="scale(0.015625)"/>
      <path id="DejaVuSans-6e" d="M 3513 2113 
L 3513 0 
L 2938 0 
L 2938 2094 
Q 2938 2591 2744 2837 
Q 2550 3084 2163 3084 
Q 1697 3084 1428 2787 
Q 1159 2491 1159 1978 
L 1159 0 
L 581 0 
L 581 3500 
L 1159 3500 
L 1159 2956 
Q 1366 3272 1645 3428 
Q 1925 3584 2291 3584 
Q 2894 3584 3203 3211 
Q 3513 2838 3513 2113 
z
" transform="scale(0.015625)"/>
      <path id="STIXNonUnicode-Italic-e23c" d="M 1856 4237 
L 2490 4237 
Q 3014 4237 3385 4189 
Q 3757 4141 3981 4057 
Q 4205 3974 4329 3840 
Q 4454 3706 4496 3562 
Q 4538 3418 4538 3213 
Q 4538 3008 4480 2800 
Q 4422 2592 4249 2342 
Q 4077 2093 3808 1904 
Q 3539 1715 3075 1587 
Q 2611 1459 2010 1459 
L 2067 1613 
Q 2912 1696 3395 2121 
Q 3878 2547 3878 3187 
Q 3878 3622 3622 3801 
Q 3366 3981 2739 3981 
Q 2579 3981 2512 3904 
Q 2445 3827 2381 3597 
L 1574 762 
Q 1357 0 352 0 
L 403 154 
Q 595 154 700 317 
Q 806 480 928 902 
L 1498 2854 
Q 1690 3533 1690 3661 
Q 1690 3770 1626 3824 
Q 1562 3878 1395 3878 
Q 1203 3878 1017 3817 
Q 832 3757 739 3699 
Q 646 3642 508 3533 
Q 371 3424 358 3418 
L 243 3539 
Q 973 4237 1856 4237 
z
" transform="scale(0.015625)"/>
      <path id="DejaVuSans-Oblique-66" d="M 3059 4863 
L 2969 4384 
L 2419 4384 
Q 2106 4384 1964 4261 
Q 1822 4138 1753 3809 
L 1691 3500 
L 2638 3500 
L 2553 3053 
L 1606 3053 
L 1013 0 
L 434 0 
L 1031 3053 
L 481 3053 
L 563 3500 
L 1113 3500 
L 1159 3744 
Q 1278 4363 1576 4613 
Q 1875 4863 2516 4863 
L 3059 4863 
z
" transform="scale(0.015625)"/>
      <path id="DejaVuSansDisplay-2014" d="M 313 1978 
L 6088 1978 
L 6088 1528 
L 313 1528 
L 313 1978 
z
" transform="scale(0.015625)"/>
      <path id="DejaVuSans-76" d="M 191 3500 
L 800 3500 
L 1894 563 
L 2988 3500 
L 3597 3500 
L 2284 0 
L 1503 0 
L 191 3500 
z
" transform="scale(0.015625)"/>
      <path id="DejaVuSans-78" d="M 3513 3500 
L 2247 1797 
L 3578 0 
L 2900 0 
L 1881 1375 
L 863 0 
L 184 0 
L 1544 1831 
L 300 3500 
L 978 3500 
L 1906 2253 
L 2834 3500 
L 3513 3500 
z
" transform="scale(0.015625)"/>
      <path id="DejaVuSans-63" d="M 3122 3366 
L 3122 2828 
Q 2878 2963 2633 3030 
Q 2388 3097 2138 3097 
Q 1578 3097 1268 2742 
Q 959 2388 959 1747 
Q 959 1106 1268 751 
Q 1578 397 2138 397 
Q 2388 397 2633 464 
Q 2878 531 3122 666 
L 3122 134 
Q 2881 22 2623 -34 
Q 2366 -91 2075 -91 
Q 1284 -91 818 406 
Q 353 903 353 1747 
Q 353 2603 823 3093 
Q 1294 3584 2113 3584 
Q 2378 3584 2631 3529 
Q 2884 3475 3122 3366 
z
" transform="scale(0.015625)"/>
      <path id="DejaVuSans-3d" d="M 678 2906 
L 4684 2906 
L 4684 2381 
L 678 2381 
L 678 2906 
z
M 678 1631 
L 4684 1631 
L 4684 1100 
L 678 1100 
L 678 1631 
z
" transform="scale(0.015625)"/>
      <path id="DejaVuSans-6b" d="M 581 4863 
L 1159 4863 
L 1159 1991 
L 2875 3500 
L 3609 3500 
L 1753 1863 
L 3688 0 
L 2938 0 
L 1159 1709 
L 1159 0 
L 581 0 
L 581 4863 
z
" transform="scale(0.015625)"/>
     </defs>
     <use xlink:href="#DejaVuSans-43" transform="translate(0 0.015625)"/>
     <use xlink:href="#DejaVuSans-65" transform="translate(69.824219 0.015625)"/>
     <use xlink:href="#DejaVuSans-72" transform="translate(131.347656 0.015625)"/>
     <use xlink:href="#DejaVuSans-74" transform="translate(172.460938 0.015625)"/>
     <use xlink:href="#DejaVuSans-69" transform="translate(211.669922 0.015625)"/>
     <use xlink:href="#DejaVuSans-66" transform="translate(239.453125 0.015625)"/>
     <use xlink:href="#DejaVuSans-69" transform="translate(274.658203 0.015625)"/>
     <use xlink:href="#DejaVuSans-65" transform="translate(302.441406 0.015625)"/>
     <use xlink:href="#DejaVuSans-64" transform="translate(363.964844 0.015625)"/>
     <use xlink:href="#DejaVuSans-20" transform="translate(427.441406 0.015625)"/>
     <use xlink:href="#DejaVuSans-72" transform="translate(459.228516 0.015625)"/>
     <use xlink:href="#DejaVuSans-65" transform="translate(500.341797 0.015625)"/>
     <use xlink:href="#DejaVuSans-67" transform="translate(561.865234 0.015625)"/>
     <use xlink:href="#DejaVuSans-69" transform="translate(625.341797 0.015625)"/>
     <use xlink:href="#DejaVuSans-6f" transform="translate(653.125 0.015625)"/>
     <use xlink:href="#DejaVuSans-6e" transform="translate(714.306641 0.015625)"/>
     <use xlink:href="#DejaVuSans-20" transform="translate(777.685547 0.015625)"/>
     <use xlink:href="#DejaVuSans-69" transform="translate(809.472656 0.015625)"/>
     <use xlink:href="#DejaVuSans-6e" transform="translate(837.255859 0.015625)"/>
     <use xlink:href="#DejaVuSans-20" transform="translate(900.634766 0.015625)"/>
     <use xlink:href="#STIXNonUnicode-Italic-e23c" transform="translate(932.421875 0.015625)"/>
     <use xlink:href="#DejaVuSans-20" transform="translate(999.121872 0.015625)"/>
     <use xlink:href="#DejaVuSans-66" transform="translate(1030.908981 0.015625)"/>
     <use xlink:href="#DejaVuSans-6f" transform="translate(1066.114059 0.015625)"/>
     <use xlink:href="#DejaVuSans-72" transform="translate(1127.2957 0.015625)"/>
     <use xlink:href="#DejaVuSans-20" transform="translate(1168.408981 0.015625)"/>
     <use xlink:href="#DejaVuSans-66" transform="translate(1200.196091 0.015625)"/>
     <use xlink:href="#DejaVuSans-61" transform="translate(1235.401169 0.015625)"/>
     <use xlink:href="#DejaVuSans-75" transform="translate(1296.680466 0.015625)"/>
     <use xlink:href="#DejaVuSans-6c" transform="translate(1360.059372 0.015625)"/>
     <use xlink:href="#DejaVuSans-74" transform="translate(1387.842575 0.015625)"/>
     <use xlink:href="#DejaVuSans-20" transform="translate(1427.051559 0.015625)"/>
     <use xlink:href="#DejaVuSans-Oblique-66" transform="translate(1458.838669 0.015625)"/>
     <use xlink:href="#DejaVuSans-20" transform="translate(1494.043747 0.015625)"/>
     <use xlink:href="#DejaVuSans-20" transform="translate(1525.830856 0.015625)"/>
     <use xlink:href="#DejaVuSansDisplay-2014" transform="translate(1557.617966 0.015625)"/>
     <use xlink:href="#DejaVuSans-20" transform="translate(1657.617966 0.015625)"/>
     <use xlink:href="#DejaVuSans-20" transform="translate(1689.405075 0.015625)"/>
     <use xlink:href="#DejaVuSans-76" transform="translate(1721.192184 0.015625)"/>
     <use xlink:href="#DejaVuSans-6f" transform="translate(1780.371872 0.015625)"/>
     <use xlink:href="#DejaVuSans-78" transform="translate(1841.553513 0.015625)"/>
     <use xlink:href="#DejaVuSans-65" transform="translate(1900.7332 0.015625)"/>
     <use xlink:href="#DejaVuSans-6c" transform="translate(1962.256638 0.015625)"/>
     <use xlink:href="#DejaVuSans-20" transform="translate(1990.039841 0.015625)"/>
     <use xlink:href="#DejaVuSans-63" transform="translate(2021.82695 0.015625)"/>
     <use xlink:href="#DejaVuSans-6f" transform="translate(2076.807419 0.015625)"/>
     <use xlink:href="#DejaVuSans-6c" transform="translate(2137.989059 0.015625)"/>
     <use xlink:href="#DejaVuSans-6f" transform="translate(2165.772263 0.015625)"/>
     <use xlink:href="#DejaVuSans-75" transform="translate(2226.953903 0.015625)"/>
     <use xlink:href="#DejaVuSans-72" transform="translate(2290.332809 0.015625)"/>
     <use xlink:href="#DejaVuSans-20" transform="translate(2331.446091 0.015625)"/>
     <use xlink:href="#DejaVuSans-3d" transform="translate(2363.2332 0.015625)"/>
     <use xlink:href="#DejaVuSans-20" transform="translate(2447.022263 0.015625)"/>
     <use xlink:href="#DejaVuSans-62" transform="translate(2478.809372 0.015625)"/>
     <use xlink:href="#DejaVuSans-61" transform="translate(2542.285934 0.015625)"/>
     <use xlink:href="#DejaVuSans-63" transform="translate(2603.565231 0.015625)"/>
     <use xlink:href="#DejaVuSans-6b" transform="translate(2658.5457 0.015625)"/>
     <use xlink:href="#DejaVuSans-75" transform="translate(2716.455856 0.015625)"/>
     <use xlink:href="#DejaVuSans-70" transform="translate(2779.834763 0.015625)"/>
     <use xlink:href="#DejaVuSans-20" transform="translate(2843.311325 0.015625)"/>
     <use xlink:href="#DejaVuSans-73" transform="translate(2875.098434 0.015625)"/>
     <use xlink:href="#DejaVuSans-74" transform="translate(2927.198044 0.015625)"/>
     <use xlink:href="#DejaVuSans-72" transform="translate(2966.407028 0.015625)"/>
     <use xlink:href="#DejaVuSans-61" transform="translate(3007.520309 0.015625)"/>
     <use xlink:href="#DejaVuSans-74" transform="translate(3068.799606 0.015625)"/>
     <use xlink:href="#DejaVuSans-65" transform="translate(3108.008591 0.015625)"/>
     <use xlink:href="#DejaVuSans-67" transform="translate(3169.532028 0.015625)"/>
     <use xlink:href="#DejaVuSans-79" transform="translate(3233.008591 0.015625)"/>
     <use xlink:href="#DejaVuSans-20" transform="translate(3292.188278 0.015625)"/>
     <use xlink:href="#DejaVuSans-61" transform="translate(3323.975388 0.015625)"/>
     <use xlink:href="#DejaVuSans-73" transform="translate(3385.254684 0.015625)"/>
     <use xlink:href="#DejaVuSans-73" transform="translate(3437.354294 0.015625)"/>
     <use xlink:href="#DejaVuSans-69" transform="translate(3489.453903 0.015625)"/>
     <use xlink:href="#DejaVuSans-67" transform="translate(3517.237106 0.015625)"/>
     <use xlink:href="#DejaVuSans-6e" transform="translate(3580.713669 0.015625)"/>
     <use xlink:href="#DejaVuSans-65" transform="translate(3644.092575 0.015625)"/>
     <use xlink:href="#DejaVuSans-64" transform="translate(3705.616013 0.015625)"/>
    </g>
   </g>
   <g id="Poly3DCollection_2">
    <path d="M 204.063357 146.115794 
L 203.957647 118.673 
L 235.274393 124.62082 
L 235.238294 152.331298 
z
" clip-path="url(#p492381cf9f)" style="fill: #0d2033; fill-opacity: 0.55; stroke: #ffffff; stroke-opacity: 0.6; stroke-width: 0.4"/>
    <path d="M 181.387426 127.206802 
L 203.957647 118.673 
L 204.063357 146.115794 
L 181.598264 155.033474 
z
" clip-path="url(#p492381cf9f)" style="fill: #1b456c; fill-opacity: 0.55; stroke: #ffffff; stroke-opacity: 0.6; stroke-width: 0.4"/>
   </g>
   <g id="Poly3DCollection_3">
    <defs>
     <path id="m468683aa50" d="M 235.202522 -241.460043 
L 235.238294 -268.918702 
L 267.090363 -262.568194 
L 266.907912 -234.841866 
z
" style="stroke: #ffffff; stroke-opacity: 0.6; stroke-width: 0.4"/>
    </defs>
    <g clip-path="url(#p492381cf9f)">
     <use xlink:href="#m468683aa50" x="0" y="421.25" style="fill: #5d3319; fill-opacity: 0.55; stroke: #ffffff; stroke-opacity: 0.6; stroke-width: 0.4"/>
    </g>
   </g>
   <g id="Poly3DCollection_4">
    <path d="M 204.271939 200.264451 
L 204.168117 173.31184 
L 235.202522 179.789957 
L 235.167074 207.000212 
z
" clip-path="url(#p492381cf9f)" style="fill: #0d2033; fill-opacity: 0.55; stroke: #ffffff; stroke-opacity: 0.6; stroke-width: 0.4"/>
    <path d="M 181.807177 182.606107 
L 204.168117 173.31184 
L 204.271939 200.264451 
L 182.014191 209.928164 
z
" clip-path="url(#p492381cf9f)" style="fill: #1b456c; fill-opacity: 0.55; stroke: #ffffff; stroke-opacity: 0.6; stroke-width: 0.4"/>
    <path d="M 204.271939 200.264451 
L 235.167074 207.000212 
L 213.145704 216.872393 
L 182.014191 209.928164 
z
" clip-path="url(#p492381cf9f)" style="fill: #112a41; fill-opacity: 0.55; stroke: #ffffff; stroke-opacity: 0.6; stroke-width: 0.4"/>
    <path d="M 213.145704 216.872393 
L 213.080089 189.285644 
L 181.807177 182.606107 
L 182.014191 209.928164 
z
" clip-path="url(#p492381cf9f)" style="fill: #1b456c; fill-opacity: 0.55; stroke: #ffffff; stroke-opacity: 0.6; stroke-width: 0.4"/>
   </g>
   <g id="Poly3DCollection_5">
    <defs>
     <path id="m7ac2df96b5" d="M 235.238294 -268.918702 
L 235.274393 -296.62918 
L 267.274506 -290.551571 
L 267.090363 -262.568194 
z
" style="stroke: #ffffff; stroke-opacity: 0.6; stroke-width: 0.4"/>
    </defs>
    <g clip-path="url(#p492381cf9f)">
     <use xlink:href="#m7ac2df96b5" x="0" y="421.25" style="fill: #5d3319; fill-opacity: 0.55; stroke: #ffffff; stroke-opacity: 0.6; stroke-width: 0.4"/>
    </g>
   </g>
   <g id="Poly3DCollection_6">
    <path d="M 204.168117 173.31184 
L 204.063357 146.115794 
L 235.238294 152.331298 
L 235.202522 179.789957 
z
" clip-path="url(#p492381cf9f)" style="fill: #0d2033; fill-opacity: 0.55; stroke: #ffffff; stroke-opacity: 0.6; stroke-width: 0.4"/>
    <path d="M 181.598264 155.033474 
L 204.063357 146.115794 
L 204.168117 173.31184 
L 181.807177 182.606107 
z
" clip-path="url(#p492381cf9f)" style="fill: #1b456c; fill-opacity: 0.55; stroke: #ffffff; stroke-opacity: 0.6; stroke-width: 0.4"/>
    <path d="M 213.080089 189.285644 
L 213.013867 161.443131 
L 181.598264 155.033474 
L 181.807177 182.606107 
z
" clip-path="url(#p492381cf9f)" style="fill: #1b456c; fill-opacity: 0.55; stroke: #ffffff; stroke-opacity: 0.6; stroke-width: 0.4"/>
   </g>
   <g id="Poly3DCollection_7">
    <defs>
     <path id="m1657a5d78c" d="M 266.72713 -207.36906 
L 266.907912 -234.841866 
L 299.306286 -228.079035 
L 298.973804 -200.338636 
z
" style="stroke: #ffffff; stroke-opacity: 0.6; stroke-width: 0.4"/>
    </defs>
    <g clip-path="url(#p492381cf9f)">
     <use xlink:href="#m1657a5d78c" x="0" y="421.25" style="fill: #193b28; fill-opacity: 0.55; stroke: #ffffff; stroke-opacity: 0.6; stroke-width: 0.4"/>
    </g>
   </g>
   <g id="Poly3DCollection_8">
    <path d="M 235.131946 233.965421 
L 235.167074 207.000212 
L 266.72713 213.88094 
L 266.547993 241.103683 
z
" clip-path="url(#p492381cf9f)" style="fill: #5d3319; fill-opacity: 0.55; stroke: #ffffff; stroke-opacity: 0.6; stroke-width: 0.4"/>
    <path d="M 213.145704 216.872393 
L 235.167074 207.000212 
L 235.131946 233.965421 
L 213.210718 244.206887 
z
" clip-path="url(#p492381cf9f)" style="fill: #c66c35; fill-opacity: 0.55; stroke: #ffffff; stroke-opacity: 0.6; stroke-width: 0.4"/>
    <path d="M 235.131946 233.965421 
L 266.547993 241.103683 
L 244.876375 251.567459 
L 213.210718 244.206887 
z
" clip-path="url(#p492381cf9f)" style="fill: #774120; fill-opacity: 0.55; stroke: #ffffff; stroke-opacity: 0.6; stroke-width: 0.4"/>
    <path d="M 244.876375 251.567459 
L 244.957681 223.968407 
L 213.145704 216.872393 
L 213.210718 244.206887 
z
" clip-path="url(#p492381cf9f)" style="fill: #c66c35; fill-opacity: 0.55; stroke: #ffffff; stroke-opacity: 0.6; stroke-width: 0.4"/>
   </g>
   <g id="Poly3DCollection_9">
    <defs>
     <path id="m1f878395ef" d="M 266.907912 -234.841866 
L 267.090363 -262.568194 
L 299.64187 -256.078236 
L 299.306286 -228.079035 
z
" style="stroke: #ffffff; stroke-opacity: 0.6; stroke-width: 0.4"/>
    </defs>
    <g clip-path="url(#p492381cf9f)">
     <use xlink:href="#m1f878395ef" x="0" y="421.25" style="fill: #193b28; fill-opacity: 0.55; stroke: #ffffff; stroke-opacity: 0.6; stroke-width: 0.4"/>
    </g>
   </g>
   <g id="Poly3DCollection_10">
    <path d="M 266.547993 241.103683 
L 266.72713 213.88094 
L 298.973804 220.911364 
L 298.644381 248.396531 
z
" clip-path="url(#p492381cf9f)" style="fill: #193b28; fill-opacity: 0.55; stroke: #ffffff; stroke-opacity: 0.6; stroke-width: 0.4"/>
    <path d="M 266.547993 241.103683 
L 298.644381 248.396531 
L 277.238549 259.089935 
L 244.876375 251.567459 
z
" clip-path="url(#p492381cf9f)" style="fill: #214c33; fill-opacity: 0.55; stroke: #ffffff; stroke-opacity: 0.6; stroke-width: 0.4"/>
   </g>
   <g id="Poly3DCollection_11">
    <path d="M 203.957647 118.673 
L 203.850973 90.980085 
L 235.310825 96.655043 
L 235.274393 124.62082 
z
" clip-path="url(#p492381cf9f)" style="fill: #0d2033; fill-opacity: 0.55; stroke: #ffffff; stroke-opacity: 0.6; stroke-width: 0.4"/>
    <path d="M 181.174637 99.122564 
L 203.850973 90.980085 
L 203.957647 118.673 
L 181.387426 127.206802 
z
" clip-path="url(#p492381cf9f)" style="fill: #1b456c; fill-opacity: 0.55; stroke: #ffffff; stroke-opacity: 0.6; stroke-width: 0.4"/>
    <path d="M 181.174637 99.122564 
L 212.879562 104.976453 
L 235.310825 96.655043 
L 203.850973 90.980085 
z
" clip-path="url(#p492381cf9f)" style="fill: #183c5e; fill-opacity: 0.55; stroke: #ffffff; stroke-opacity: 0.6; stroke-width: 0.4"/>
   </g>
   <g id="Poly3DCollection_12">
    <defs>
     <path id="mf598e83b54" d="M 267.090363 -262.568194 
L 267.274506 -290.551571 
L 299.980599 -284.33988 
L 299.64187 -256.078236 
z
" style="stroke: #ffffff; stroke-opacity: 0.6; stroke-width: 0.4"/>
    </defs>
    <g clip-path="url(#p492381cf9f)">
     <use xlink:href="#mf598e83b54" x="0" y="421.25" style="fill: #193b28; fill-opacity: 0.55; stroke: #ffffff; stroke-opacity: 0.6; stroke-width: 0.4"/>
    </g>
   </g>
   <g id="Poly3DCollection_13">
    <defs>
     <path id="m3fe4135742" d="M 298.973804 -200.338636 
L 299.306286 -228.079035 
L 332.420614 -221.166755 
L 331.92975 -193.153576 
z
" style="stroke: #ffffff; stroke-opacity: 0.6; stroke-width: 0.4"/>
    </defs>
    <g clip-path="url(#p492381cf9f)">
     <use xlink:href="#m3fe4135742" x="0" y="421.25" style="fill: #3b1c48; fill-opacity: 0.55; stroke: #ffffff; stroke-opacity: 0.6; stroke-width: 0.4"/>
    </g>
   </g>
   <g id="Poly3DCollection_14">
    <defs>
     <path id="mbc9a14db00" d="M 299.306286 -228.079035 
L 299.64187 -256.078236 
L 332.916107 -249.444184 
L 332.420614 -221.166755 
z
" style="stroke: #ffffff; stroke-opacity: 0.6; stroke-width: 0.4"/>
    </defs>
    <g clip-path="url(#p492381cf9f)">
     <use xlink:href="#mbc9a14db00" x="0" y="421.25" style="fill: #3b1c48; fill-opacity: 0.55; stroke: #ffffff; stroke-opacity: 0.6; stroke-width: 0.4"/>
    </g>
   </g>
   <g id="Poly3DCollection_15">
    <path d="M 298.644381 248.396531 
L 298.973804 220.911364 
L 331.92975 228.096424 
L 331.443453 255.849041 
z
" clip-path="url(#p492381cf9f)" style="fill: #3b1c48; fill-opacity: 0.55; stroke: #ffffff; stroke-opacity: 0.6; stroke-width: 0.4"/>
    <path d="M 298.644381 248.396531 
L 331.443453 255.849041 
L 310.320478 266.779715 
L 277.238549 259.089935 
z
" clip-path="url(#p492381cf9f)" style="fill: #4c245c; fill-opacity: 0.55; stroke: #ffffff; stroke-opacity: 0.6; stroke-width: 0.4"/>
   </g>
   <g id="Poly3DCollection_16">
    <path d="M 235.274393 124.62082 
L 235.310825 96.655043 
L 267.460363 102.454411 
L 267.274506 130.698429 
z
" clip-path="url(#p492381cf9f)" style="fill: #5d3319; fill-opacity: 0.55; stroke: #ffffff; stroke-opacity: 0.6; stroke-width: 0.4"/>
    <path d="M 212.879562 104.976453 
L 245.2906 110.960716 
L 267.460363 102.454411 
L 235.310825 96.655043 
z
" clip-path="url(#p492381cf9f)" style="fill: #ac5e2e; fill-opacity: 0.55; stroke: #ffffff; stroke-opacity: 0.6; stroke-width: 0.4"/>
   </g>
   <g id="Poly3DCollection_17">
    <path d="M 158.107198 136.009057 
L 181.387426 127.206802 
L 181.598264 155.033474 
L 158.429762 164.230376 
z
" clip-path="url(#p492381cf9f)" style="fill: #367d54; fill-opacity: 0.55; stroke: #ffffff; stroke-opacity: 0.6; stroke-width: 0.4"/>
    <path d="M 181.598264 155.033474 
L 213.013867 161.443131 
L 190.085854 170.843428 
L 158.429762 164.230376 
z
" clip-path="url(#p492381cf9f)" style="fill: #214c33; fill-opacity: 0.55; stroke: #ffffff; stroke-opacity: 0.6; stroke-width: 0.4"/>
    <path d="M 190.085854 170.843428 
L 189.909472 142.339121 
L 158.107198 136.009057 
L 158.429762 164.230376 
z
" clip-path="url(#p492381cf9f)" style="fill: #367d54; fill-opacity: 0.55; stroke: #ffffff; stroke-opacity: 0.6; stroke-width: 0.4"/>
   </g>
   <g id="Poly3DCollection_18">
    <path d="M 190.260582 199.080539 
L 213.080089 189.285644 
L 213.145704 216.872393 
L 190.43368 227.054194 
z
" clip-path="url(#p492381cf9f)" style="fill: #7d3c99; fill-opacity: 0.55; stroke: #ffffff; stroke-opacity: 0.6; stroke-width: 0.4"/>
    <path d="M 213.145704 216.872393 
L 244.957681 223.968407 
L 222.4979 234.375759 
L 190.43368 227.054194 
z
" clip-path="url(#p492381cf9f)" style="fill: #4c245c; fill-opacity: 0.55; stroke: #ffffff; stroke-opacity: 0.6; stroke-width: 0.4"/>
    <path d="M 222.4979 234.375759 
L 222.474831 206.124763 
L 190.260582 199.080539 
L 190.43368 227.054194 
z
" clip-path="url(#p492381cf9f)" style="fill: #7d3c99; fill-opacity: 0.55; stroke: #ffffff; stroke-opacity: 0.6; stroke-width: 0.4"/>
   </g>
   <g id="Poly3DCollection_19">
    <path d="M 157.781602 107.522391 
L 181.174637 99.122564 
L 181.387426 127.206802 
L 158.107198 136.009057 
z
" clip-path="url(#p492381cf9f)" style="fill: #367d54; fill-opacity: 0.55; stroke: #ffffff; stroke-opacity: 0.6; stroke-width: 0.4"/>
    <path d="M 157.781602 107.522391 
L 189.731414 113.563808 
L 212.879562 104.976453 
L 181.174637 99.122564 
z
" clip-path="url(#p492381cf9f)" style="fill: #2f6d49; fill-opacity: 0.55; stroke: #ffffff; stroke-opacity: 0.6; stroke-width: 0.4"/>
   </g>
   <g id="Poly3DCollection_20">
    <path d="M 190.085854 170.843428 
L 213.013867 161.443131 
L 213.080089 189.285644 
L 190.260582 199.080539 
z
" clip-path="url(#p492381cf9f)" style="fill: #7d3c99; fill-opacity: 0.55; stroke: #ffffff; stroke-opacity: 0.6; stroke-width: 0.4"/>
    <path d="M 222.474831 206.124763 
L 222.451542 177.604717 
L 190.085854 170.843428 
L 190.260582 199.080539 
z
" clip-path="url(#p492381cf9f)" style="fill: #7d3c99; fill-opacity: 0.55; stroke: #ffffff; stroke-opacity: 0.6; stroke-width: 0.4"/>
   </g>
   <g id="Poly3DCollection_21">
    <path d="M 222.4979 234.375759 
L 244.957681 223.968407 
L 244.876375 251.567459 
L 222.520753 262.361494 
z
" clip-path="url(#p492381cf9f)" style="fill: #1b456c; fill-opacity: 0.55; stroke: #ffffff; stroke-opacity: 0.6; stroke-width: 0.4"/>
    <path d="M 244.876375 251.567459 
L 277.238549 259.089935 
L 255.149554 270.124616 
L 222.520753 262.361494 
z
" clip-path="url(#p492381cf9f)" style="fill: #112a41; fill-opacity: 0.55; stroke: #ffffff; stroke-opacity: 0.6; stroke-width: 0.4"/>
    <path d="M 255.149554 270.124616 
L 255.282078 241.86172 
L 222.4979 234.375759 
L 222.520753 262.361494 
z
" clip-path="url(#p492381cf9f)" style="fill: #1b456c; fill-opacity: 0.55; stroke: #ffffff; stroke-opacity: 0.6; stroke-width: 0.4"/>
   </g>
   <g id="Poly3DCollection_22">
    <path d="M 267.274506 130.698429 
L 267.460363 102.454411 
L 300.322518 108.382327 
L 299.980599 136.91012 
z
" clip-path="url(#p492381cf9f)" style="fill: #193b28; fill-opacity: 0.55; stroke: #ffffff; stroke-opacity: 0.6; stroke-width: 0.4"/>
    <path d="M 245.2906 110.960716 
L 278.431606 117.079758 
L 300.322518 108.382327 
L 267.460363 102.454411 
z
" clip-path="url(#p492381cf9f)" style="fill: #2f6d49; fill-opacity: 0.55; stroke: #ffffff; stroke-opacity: 0.6; stroke-width: 0.4"/>
    <path d="M 278.18845 146.022751 
L 299.980599 136.91012 
L 300.322518 108.382327 
L 278.431606 117.079758 
z
" clip-path="url(#p492381cf9f)" style="fill: #193b28; fill-opacity: 0.55; stroke: #ffffff; stroke-opacity: 0.6; stroke-width: 0.4"/>
   </g>
   <g id="Poly3DCollection_23">
    <path d="M 331.443453 255.849041 
L 331.92975 228.096424 
L 365.61863 235.441278 
L 364.968539 263.466513 
z
" clip-path="url(#p492381cf9f)" style="fill: #0d2033; fill-opacity: 0.55; stroke: #ffffff; stroke-opacity: 0.6; stroke-width: 0.4"/>
    <path d="M 331.443453 255.849041 
L 364.968539 263.466513 
L 344.146443 274.642443 
L 310.320478 266.779715 
z
" clip-path="url(#p492381cf9f)" style="fill: #112a41; fill-opacity: 0.55; stroke: #ffffff; stroke-opacity: 0.6; stroke-width: 0.4"/>
    <path d="M 344.146443 274.642443 
L 364.968539 263.466513 
L 365.61863 235.441278 
L 344.707065 246.218613 
z
" clip-path="url(#p492381cf9f)" style="fill: #0d2033; fill-opacity: 0.55; stroke: #ffffff; stroke-opacity: 0.6; stroke-width: 0.4"/>
   </g>
   <g id="Poly3DCollection_24">
    <defs>
     <path id="m36bc2371f2" d="M 277.238549 -162.160065 
L 310.320478 -154.470285 
L 288.51575 -143.186819 
L 255.149554 -151.125384 
z
" style="stroke: #ffffff; stroke-opacity: 0.6; stroke-width: 0.4"/>
    </defs>
    <g clip-path="url(#p492381cf9f)">
     <use xlink:href="#m36bc2371f2" x="0" y="421.25" style="fill: #774120; fill-opacity: 0.55; stroke: #ffffff; stroke-opacity: 0.6; stroke-width: 0.4"/>
    </g>
   </g>
   <g id="Poly3DCollection_25">
    <defs>
     <path id="m8baef45e1a" d="M 189.731414 -307.686192 
L 222.404292 -301.508049 
L 245.2906 -310.289284 
L 212.879562 -316.273547 
z
" style="stroke: #ffffff; stroke-opacity: 0.6; stroke-width: 0.4"/>
    </defs>
    <g clip-path="url(#p492381cf9f)">
     <use xlink:href="#m8baef45e1a" x="0" y="421.25" style="fill: #6d3485; fill-opacity: 0.55; stroke: #ffffff; stroke-opacity: 0.6; stroke-width: 0.4"/>
    </g>
   </g>
   <g id="Poly3DCollection_26">
    <path d="M 299.64187 165.171764 
L 299.980599 136.91012 
L 333.416297 143.260381 
L 332.916107 171.805816 
z
" clip-path="url(#p492381cf9f)" style="fill: #3b1c48; fill-opacity: 0.55; stroke: #ffffff; stroke-opacity: 0.6; stroke-width: 0.4"/>
    <path d="M 278.18845 146.022751 
L 311.91838 152.579093 
L 333.416297 143.260381 
L 299.980599 136.91012 
z
" clip-path="url(#p492381cf9f)" style="fill: #6d3485; fill-opacity: 0.55; stroke: #ffffff; stroke-opacity: 0.6; stroke-width: 0.4"/>
    <path d="M 311.513161 181.539728 
L 332.916107 171.805816 
L 333.416297 143.260381 
L 311.91838 152.579093 
z
" clip-path="url(#p492381cf9f)" style="fill: #3b1c48; fill-opacity: 0.55; stroke: #ffffff; stroke-opacity: 0.6; stroke-width: 0.4"/>
   </g>
   <g id="Poly3DCollection_27">
    <path d="M 331.92975 228.096424 
L 332.420614 200.083245 
L 366.274893 207.149981 
L 365.61863 235.441278 
z
" clip-path="url(#p492381cf9f)" style="fill: #0d2033; fill-opacity: 0.55; stroke: #ffffff; stroke-opacity: 0.6; stroke-width: 0.4"/>
    <path d="M 344.707065 246.218613 
L 365.61863 235.441278 
L 366.274893 207.149981 
L 345.273096 217.520561 
z
" clip-path="url(#p492381cf9f)" style="fill: #0d2033; fill-opacity: 0.55; stroke: #ffffff; stroke-opacity: 0.6; stroke-width: 0.4"/>
   </g>
   <g id="Poly3DCollection_28">
    <path d="M 133.637345 116.191961 
L 157.781602 107.522391 
L 158.107198 136.009057 
L 134.082925 145.092636 
z
" clip-path="url(#p492381cf9f)" style="fill: #1b456c; fill-opacity: 0.55; stroke: #ffffff; stroke-opacity: 0.6; stroke-width: 0.4"/>
    <path d="M 158.107198 136.009057 
L 189.909472 142.339121 
L 166.127296 151.627791 
L 134.082925 145.092636 
z
" clip-path="url(#p492381cf9f)" style="fill: #112a41; fill-opacity: 0.55; stroke: #ffffff; stroke-opacity: 0.6; stroke-width: 0.4"/>
    <path d="M 133.637345 116.191961 
L 165.831455 122.430066 
L 189.731414 113.563808 
L 157.781602 107.522391 
z
" clip-path="url(#p492381cf9f)" style="fill: #183c5e; fill-opacity: 0.55; stroke: #ffffff; stroke-opacity: 0.6; stroke-width: 0.4"/>
    <path d="M 166.127296 151.627791 
L 165.831455 122.430066 
L 133.637345 116.191961 
L 134.082925 145.092636 
z
" clip-path="url(#p492381cf9f)" style="fill: #1b456c; fill-opacity: 0.55; stroke: #ffffff; stroke-opacity: 0.6; stroke-width: 0.4"/>
   </g>
   <g id="Path3DCollection_1">
    <defs>
     <path id="mb28340943b" d="M 0 4.472136 
C 1.186024 4.472136 2.323632 4.000923 3.162278 3.162278 
C 4.000923 2.323632 4.472136 1.186024 4.472136 0 
C 4.472136 -1.186024 4.000923 -2.323632 3.162278 -3.162278 
C 2.323632 -4.000923 1.186024 -4.472136 0 -4.472136 
C -1.186024 -4.472136 -2.323632 -4.000923 -3.162278 -3.162278 
C -4.000923 -2.323632 -4.472136 -1.186024 -4.472136 0 
C -4.472136 1.186024 -4.000923 2.323632 -3.162278 3.162278 
C -2.323632 4.000923 -1.186024 4.472136 0 4.472136 
z
" style="stroke: #ffffff; stroke-width: 1.2"/>
    </defs>
    <g clip-path="url(#p492381cf9f)">
     <use xlink:href="#mb28340943b" x="261.613805" y="203.638248" style="fill: #c0392b; stroke: #ffffff; stroke-width: 1.2"/>
    </g>
   </g>
   <g id="Poly3DCollection_29">
    <path d="M 332.420614 200.083245 
L 332.916107 171.805816 
L 366.937416 178.588816 
L 366.274893 207.149981 
z
" clip-path="url(#p492381cf9f)" style="fill: #0d2033; fill-opacity: 0.55; stroke: #ffffff; stroke-opacity: 0.6; stroke-width: 0.4"/>
    <path d="M 311.513161 181.539728 
L 345.844615 188.5443 
L 366.937416 178.588816 
L 332.916107 171.805816 
z
" clip-path="url(#p492381cf9f)" style="fill: #183c5e; fill-opacity: 0.55; stroke: #ffffff; stroke-opacity: 0.6; stroke-width: 0.4"/>
    <path d="M 345.273096 217.520561 
L 366.274893 207.149981 
L 366.937416 178.588816 
L 345.844615 188.5443 
z
" clip-path="url(#p492381cf9f)" style="fill: #0d2033; fill-opacity: 0.55; stroke: #ffffff; stroke-opacity: 0.6; stroke-width: 0.4"/>
   </g>
   <g id="Poly3DCollection_30">
    <defs>
     <path id="m92418b7fec" d="M 222.404292 -301.508049 
L 255.825062 -295.188486 
L 278.431606 -304.170242 
L 245.2906 -310.289284 
z
" style="stroke: #ffffff; stroke-opacity: 0.6; stroke-width: 0.4"/>
    </defs>
    <g clip-path="url(#p492381cf9f)">
     <use xlink:href="#m92418b7fec" x="0" y="421.25" style="fill: #183c5e; fill-opacity: 0.55; stroke: #ffffff; stroke-opacity: 0.6; stroke-width: 0.4"/>
    </g>
   </g>
   <g id="Poly3DCollection_31">
    <path d="M 166.127296 151.627791 
L 189.909472 142.339121 
L 190.085854 170.843428 
L 166.420306 180.546109 
z
" clip-path="url(#p492381cf9f)" style="fill: #c66c35; fill-opacity: 0.55; stroke: #ffffff; stroke-opacity: 0.6; stroke-width: 0.4"/>
    <path d="M 190.085854 170.843428 
L 222.451542 177.604717 
L 199.042928 187.527898 
L 166.420306 180.546109 
z
" clip-path="url(#p492381cf9f)" style="fill: #774120; fill-opacity: 0.55; stroke: #ffffff; stroke-opacity: 0.6; stroke-width: 0.4"/>
    <path d="M 199.042928 187.527898 
L 198.905201 158.312544 
L 166.127296 151.627791 
L 166.420306 180.546109 
z
" clip-path="url(#p492381cf9f)" style="fill: #c66c35; fill-opacity: 0.55; stroke: #ffffff; stroke-opacity: 0.6; stroke-width: 0.4"/>
   </g>
   <g id="Poly3DCollection_32">
    <path d="M 199.179329 216.461853 
L 222.474831 206.124763 
L 222.4979 234.375759 
L 199.314422 245.118456 
z
" clip-path="url(#p492381cf9f)" style="fill: #367d54; fill-opacity: 0.55; stroke: #ffffff; stroke-opacity: 0.6; stroke-width: 0.4"/>
    <path d="M 222.4979 234.375759 
L 255.282078 241.86172 
L 232.368293 252.84897 
L 199.314422 245.118456 
z
" clip-path="url(#p492381cf9f)" style="fill: #214c33; fill-opacity: 0.55; stroke: #ffffff; stroke-opacity: 0.6; stroke-width: 0.4"/>
    <path d="M 232.368293 252.84897 
L 232.392662 223.901467 
L 199.179329 216.461853 
L 199.314422 245.118456 
z
" clip-path="url(#p492381cf9f)" style="fill: #367d54; fill-opacity: 0.55; stroke: #ffffff; stroke-opacity: 0.6; stroke-width: 0.4"/>
   </g>
   <g id="Poly3DCollection_33">
    <path d="M 310.320478 266.779715 
L 344.146443 274.642443 
L 322.644623 286.183204 
L 288.51575 278.063181 
z
" clip-path="url(#p492381cf9f)" style="fill: #214c33; fill-opacity: 0.55; stroke: #ffffff; stroke-opacity: 0.6; stroke-width: 0.4"/>
    <path d="M 322.644623 286.183204 
L 344.146443 274.642443 
L 344.707065 246.218613 
L 323.109526 257.349483 
z
" clip-path="url(#p492381cf9f)" style="fill: #193b28; fill-opacity: 0.55; stroke: #ffffff; stroke-opacity: 0.6; stroke-width: 0.4"/>
   </g>
   <g id="Poly3DCollection_34">
    <defs>
     <path id="mc094bc2262" d="M 165.831455 -298.819934 
L 198.766128 -292.438334 
L 222.404292 -301.508049 
L 189.731414 -307.686192 
z
" style="stroke: #ffffff; stroke-opacity: 0.6; stroke-width: 0.4"/>
    </defs>
    <g clip-path="url(#p492381cf9f)">
     <use xlink:href="#mc094bc2262" x="0" y="421.25" style="fill: #ac5e2e; fill-opacity: 0.55; stroke: #ffffff; stroke-opacity: 0.6; stroke-width: 0.4"/>
    </g>
   </g>
   <g id="Poly3DCollection_35">
    <path d="M 199.042928 187.527898 
L 222.451542 177.604717 
L 222.474831 206.124763 
L 199.179329 216.461853 
z
" clip-path="url(#p492381cf9f)" style="fill: #367d54; fill-opacity: 0.55; stroke: #ffffff; stroke-opacity: 0.6; stroke-width: 0.4"/>
    <path d="M 232.392662 223.901467 
L 232.417269 194.670567 
L 199.042928 187.527898 
L 199.179329 216.461853 
z
" clip-path="url(#p492381cf9f)" style="fill: #367d54; fill-opacity: 0.55; stroke: #ffffff; stroke-opacity: 0.6; stroke-width: 0.4"/>
   </g>
   <g id="Poly3DCollection_36">
    <defs>
     <path id="mf721de92cf" d="M 323.109526 -163.900517 
L 344.707065 -175.031387 
L 345.273096 -203.729439 
L 323.578987 -193.016998 
z
" style="stroke: #ffffff; stroke-opacity: 0.6; stroke-width: 0.4"/>
    </defs>
    <g clip-path="url(#p492381cf9f)">
     <use xlink:href="#mf721de92cf" x="0" y="421.25" style="fill: #193b28; fill-opacity: 0.55; stroke: #ffffff; stroke-opacity: 0.6; stroke-width: 0.4"/>
    </g>
   </g>
   <g id="Poly3DCollection_37">
    <path d="M 232.368293 252.84897 
L 255.282078 241.86172 
L 255.149554 270.124616 
L 232.34416 281.517178 
z
" clip-path="url(#p492381cf9f)" style="fill: #7d3c99; fill-opacity: 0.55; stroke: #ffffff; stroke-opacity: 0.6; stroke-width: 0.4"/>
    <path d="M 255.149554 270.124616 
L 288.51575 278.063181 
L 265.99572 289.7168 
L 232.34416 281.517178 
z
" clip-path="url(#p492381cf9f)" style="fill: #4c245c; fill-opacity: 0.55; stroke: #ffffff; stroke-opacity: 0.6; stroke-width: 0.4"/>
    <path d="M 265.99572 289.7168 
L 266.185142 260.757926 
L 232.368293 252.84897 
L 232.34416 281.517178 
z
" clip-path="url(#p492381cf9f)" style="fill: #7d3c99; fill-opacity: 0.55; stroke: #ffffff; stroke-opacity: 0.6; stroke-width: 0.4"/>
   </g>
   <g id="Poly3DCollection_38">
    <path d="M 278.18845 146.022751 
L 278.431606 117.079758 
L 312.327521 123.338183 
L 311.91838 152.579093 
z
" clip-path="url(#p492381cf9f)" style="fill: #5d3319; fill-opacity: 0.55; stroke: #ffffff; stroke-opacity: 0.6; stroke-width: 0.4"/>
    <path d="M 255.825062 126.061514 
L 290.019703 132.527408 
L 312.327521 123.338183 
L 278.431606 117.079758 
z
" clip-path="url(#p492381cf9f)" style="fill: #ac5e2e; fill-opacity: 0.55; stroke: #ffffff; stroke-opacity: 0.6; stroke-width: 0.4"/>
    <path d="M 289.713023 162.204459 
L 311.91838 152.579093 
L 312.327521 123.338183 
L 290.019703 132.527408 
z
" clip-path="url(#p492381cf9f)" style="fill: #5d3319; fill-opacity: 0.55; stroke: #ffffff; stroke-opacity: 0.6; stroke-width: 0.4"/>
   </g>
   <g id="Poly3DCollection_39">
    <defs>
     <path id="m55be653762" d="M 323.578987 -193.016998 
L 345.273096 -203.729439 
L 345.844615 -232.7057 
L 324.053074 -222.420421 
z
" style="stroke: #ffffff; stroke-opacity: 0.6; stroke-width: 0.4"/>
    </defs>
    <g clip-path="url(#p492381cf9f)">
     <use xlink:href="#m55be653762" x="0" y="421.25" style="fill: #193b28; fill-opacity: 0.55; stroke: #ffffff; stroke-opacity: 0.6; stroke-width: 0.4"/>
    </g>
   </g>
   <g id="Poly3DCollection_40">
    <defs>
     <path id="m307e79ac43" d="M 198.766128 -292.438334 
L 232.467213 -285.90823 
L 255.825062 -295.188486 
L 222.404292 -301.508049 
z
" style="stroke: #ffffff; stroke-opacity: 0.6; stroke-width: 0.4"/>
    </defs>
    <g clip-path="url(#p492381cf9f)">
     <use xlink:href="#m307e79ac43" x="0" y="421.25" style="fill: #2f6d49; fill-opacity: 0.55; stroke: #ffffff; stroke-opacity: 0.6; stroke-width: 0.4"/>
    </g>
   </g>
   <g id="Poly3DCollection_41">
    <path d="M 311.513161 181.539728 
L 311.91838 152.579093 
L 346.421701 159.285765 
L 345.844615 188.5443 
z
" clip-path="url(#p492381cf9f)" style="fill: #193b28; fill-opacity: 0.55; stroke: #ffffff; stroke-opacity: 0.6; stroke-width: 0.4"/>
    <path d="M 289.713023 162.204459 
L 324.531857 169.134953 
L 346.421701 159.285765 
L 311.91838 152.579093 
z
" clip-path="url(#p492381cf9f)" style="fill: #2f6d49; fill-opacity: 0.55; stroke: #ffffff; stroke-opacity: 0.6; stroke-width: 0.4"/>
    <path d="M 324.053074 198.829579 
L 345.844615 188.5443 
L 346.421701 159.285765 
L 324.531857 169.134953 
z
" clip-path="url(#p492381cf9f)" style="fill: #193b28; fill-opacity: 0.55; stroke: #ffffff; stroke-opacity: 0.6; stroke-width: 0.4"/>
   </g>
   <g id="Poly3DCollection_42">
    <path d="M 288.51575 278.063181 
L 322.644623 286.183204 
L 300.429244 298.106956 
L 265.99572 289.7168 
z
" clip-path="url(#p492381cf9f)" style="fill: #112a41; fill-opacity: 0.55; stroke: #ffffff; stroke-opacity: 0.6; stroke-width: 0.4"/>
    <path d="M 300.429244 298.106956 
L 322.644623 286.183204 
L 323.109526 257.349483 
L 300.791694 268.851575 
z
" clip-path="url(#p492381cf9f)" style="fill: #0d2033; fill-opacity: 0.55; stroke: #ffffff; stroke-opacity: 0.6; stroke-width: 0.4"/>
   </g>
   <g id="Poly3DCollection_43">
    <path d="M 141.142456 131.589037 
L 165.831455 122.430066 
L 166.127296 151.627791 
L 141.563805 161.221621 
z
" clip-path="url(#p492381cf9f)" style="fill: #7d3c99; fill-opacity: 0.55; stroke: #ffffff; stroke-opacity: 0.6; stroke-width: 0.4"/>
    <path d="M 166.127296 151.627791 
L 198.905201 158.312544 
L 174.600585 168.12909 
L 141.563805 161.221621 
z
" clip-path="url(#p492381cf9f)" style="fill: #4c245c; fill-opacity: 0.55; stroke: #ffffff; stroke-opacity: 0.6; stroke-width: 0.4"/>
    <path d="M 141.142456 131.589037 
L 174.33844 138.184312 
L 198.766128 128.811666 
L 165.831455 122.430066 
z
" clip-path="url(#p492381cf9f)" style="fill: #6d3485; fill-opacity: 0.55; stroke: #ffffff; stroke-opacity: 0.6; stroke-width: 0.4"/>
    <path d="M 174.600585 168.12909 
L 174.33844 138.184312 
L 141.142456 131.589037 
L 141.563805 161.221621 
z
" clip-path="url(#p492381cf9f)" style="fill: #7d3c99; fill-opacity: 0.55; stroke: #ffffff; stroke-opacity: 0.6; stroke-width: 0.4"/>
   </g>
   <g id="Poly3DCollection_44">
    <defs>
     <path id="mc1b6f075e7" d="M 300.791694 -152.398425 
L 323.109526 -163.900517 
L 323.578987 -193.016998 
L 301.157758 -181.94551 
z
" style="stroke: #ffffff; stroke-opacity: 0.6; stroke-width: 0.4"/>
    </defs>
    <g clip-path="url(#p492381cf9f)">
     <use xlink:href="#mc1b6f075e7" x="0" y="421.25" style="fill: #0d2033; fill-opacity: 0.55; stroke: #ffffff; stroke-opacity: 0.6; stroke-width: 0.4"/>
    </g>
   </g>
   <g id="Poly3DCollection_45">
    <defs>
     <path id="mac2e0216ec" d="M 232.467213 -285.90823 
L 266.961779 -279.224377 
L 290.019703 -288.722592 
L 255.825062 -295.188486 
z
" style="stroke: #ffffff; stroke-opacity: 0.6; stroke-width: 0.4"/>
    </defs>
    <g clip-path="url(#p492381cf9f)">
     <use xlink:href="#mac2e0216ec" x="0" y="421.25" style="fill: #6d3485; fill-opacity: 0.55; stroke: #ffffff; stroke-opacity: 0.6; stroke-width: 0.4"/>
    </g>
   </g>
   <g id="Poly3DCollection_46">
    <path d="M 174.600585 168.12909 
L 198.905201 158.312544 
L 199.042928 187.527898 
L 174.86015 197.779256 
z
" clip-path="url(#p492381cf9f)" style="fill: #1b456c; fill-opacity: 0.55; stroke: #ffffff; stroke-opacity: 0.6; stroke-width: 0.4"/>
    <path d="M 199.042928 187.527898 
L 232.417269 194.670567 
L 208.509549 205.161506 
L 174.86015 197.779256 
z
" clip-path="url(#p492381cf9f)" style="fill: #112a41; fill-opacity: 0.55; stroke: #ffffff; stroke-opacity: 0.6; stroke-width: 0.4"/>
    <path d="M 208.509549 205.161506 
L 208.415234 175.1992 
L 174.600585 168.12909 
L 174.86015 197.779256 
z
" clip-path="url(#p492381cf9f)" style="fill: #1b456c; fill-opacity: 0.55; stroke: #ffffff; stroke-opacity: 0.6; stroke-width: 0.4"/>
   </g>
   <g id="Poly3DCollection_47">
    <defs>
     <path id="m32c3f80d94" d="M 301.157758 -181.94551 
L 323.578987 -193.016998 
L 324.053074 -222.420421 
L 301.52749 -211.788684 
z
" style="stroke: #ffffff; stroke-opacity: 0.6; stroke-width: 0.4"/>
    </defs>
    <g clip-path="url(#p492381cf9f)">
     <use xlink:href="#m32c3f80d94" x="0" y="421.25" style="fill: #0d2033; fill-opacity: 0.55; stroke: #ffffff; stroke-opacity: 0.6; stroke-width: 0.4"/>
    </g>
   </g>
   <g id="Poly3DCollection_48">
    <path d="M 208.602929 234.827051 
L 232.392662 223.901467 
L 232.368293 252.84897 
L 208.695389 264.200221 
z
" clip-path="url(#p492381cf9f)" style="fill: #c66c35; fill-opacity: 0.55; stroke: #ffffff; stroke-opacity: 0.6; stroke-width: 0.4"/>
    <path d="M 232.368293 252.84897 
L 266.185142 260.757926 
L 242.801179 272.37493 
L 208.695389 264.200221 
z
" clip-path="url(#p492381cf9f)" style="fill: #774120; fill-opacity: 0.55; stroke: #ffffff; stroke-opacity: 0.6; stroke-width: 0.4"/>
    <path d="M 242.801179 272.37493 
L 242.878521 242.696303 
L 208.602929 234.827051 
L 208.695389 264.200221 
z
" clip-path="url(#p492381cf9f)" style="fill: #c66c35; fill-opacity: 0.55; stroke: #ffffff; stroke-opacity: 0.6; stroke-width: 0.4"/>
   </g>
   <g id="Poly3DCollection_49">
    <defs>
     <path id="me6f0c67054" d="M 174.33844 -283.065688 
L 208.319972 -276.314343 
L 232.467213 -285.90823 
L 198.766128 -292.438334 
z
" style="stroke: #ffffff; stroke-opacity: 0.6; stroke-width: 0.4"/>
    </defs>
    <g clip-path="url(#p492381cf9f)">
     <use xlink:href="#me6f0c67054" x="0" y="421.25" style="fill: #183c5e; fill-opacity: 0.55; stroke: #ffffff; stroke-opacity: 0.6; stroke-width: 0.4"/>
    </g>
   </g>
   <g id="Poly3DCollection_50">
    <defs>
     <path id="m7266a67624" d="M 301.52749 -211.788684 
L 324.053074 -222.420421 
L 324.531857 -252.115047 
L 301.900945 -241.93242 
z
" style="stroke: #ffffff; stroke-opacity: 0.6; stroke-width: 0.4"/>
    </defs>
    <g clip-path="url(#p492381cf9f)">
     <use xlink:href="#m7266a67624" x="0" y="421.25" style="fill: #0d2033; fill-opacity: 0.55; stroke: #ffffff; stroke-opacity: 0.6; stroke-width: 0.4"/>
    </g>
   </g>
   <g id="Poly3DCollection_51">
    <path d="M 208.509549 205.161506 
L 232.417269 194.670567 
L 232.392662 223.901467 
L 208.602929 234.827051 
z
" clip-path="url(#p492381cf9f)" style="fill: #c66c35; fill-opacity: 0.55; stroke: #ffffff; stroke-opacity: 0.6; stroke-width: 0.4"/>
    <path d="M 242.878521 242.696303 
L 242.956642 212.71876 
L 208.509549 205.161506 
L 208.602929 234.827051 
z
" clip-path="url(#p492381cf9f)" style="fill: #c66c35; fill-opacity: 0.55; stroke: #ffffff; stroke-opacity: 0.6; stroke-width: 0.4"/>
   </g>
   <g id="Poly3DCollection_52">
    <path d="M 242.801179 272.37493 
L 266.185142 260.757926 
L 265.99572 289.7168 
L 242.724605 301.759089 
z
" clip-path="url(#p492381cf9f)" style="fill: #367d54; fill-opacity: 0.55; stroke: #ffffff; stroke-opacity: 0.6; stroke-width: 0.4"/>
    <path d="M 265.99572 289.7168 
L 300.429244 298.106956 
L 277.464186 310.433087 
L 242.724605 301.759089 
z
" clip-path="url(#p492381cf9f)" style="fill: #214c33; fill-opacity: 0.55; stroke: #ffffff; stroke-opacity: 0.6; stroke-width: 0.4"/>
    <path d="M 277.464186 310.433087 
L 300.429244 298.106956 
L 300.791694 268.851575 
L 277.716927 280.743774 
z
" clip-path="url(#p492381cf9f)" style="fill: #193b28; fill-opacity: 0.55; stroke: #ffffff; stroke-opacity: 0.6; stroke-width: 0.4"/>
    <path d="M 277.464186 310.433087 
L 277.716927 280.743774 
L 242.801179 272.37493 
L 242.724605 301.759089 
z
" clip-path="url(#p492381cf9f)" style="fill: #367d54; fill-opacity: 0.55; stroke: #ffffff; stroke-opacity: 0.6; stroke-width: 0.4"/>
   </g>
   <g id="Poly3DCollection_53">
    <path d="M 289.713023 162.204459 
L 290.019703 132.527408 
L 325.015406 139.144776 
L 324.531857 169.134953 
z
" clip-path="url(#p492381cf9f)" style="fill: #0d2033; fill-opacity: 0.55; stroke: #ffffff; stroke-opacity: 0.6; stroke-width: 0.4"/>
    <path d="M 266.961779 142.025623 
L 302.278181 148.868719 
L 325.015406 139.144776 
L 290.019703 132.527408 
z
" clip-path="url(#p492381cf9f)" style="fill: #183c5e; fill-opacity: 0.55; stroke: #ffffff; stroke-opacity: 0.6; stroke-width: 0.4"/>
    <path d="M 301.900945 179.31758 
L 324.531857 169.134953 
L 325.015406 139.144776 
L 302.278181 148.868719 
z
" clip-path="url(#p492381cf9f)" style="fill: #0d2033; fill-opacity: 0.55; stroke: #ffffff; stroke-opacity: 0.6; stroke-width: 0.4"/>
   </g>
   <g id="Poly3DCollection_54">
    <defs>
     <path id="m9c1f61f48f" d="M 277.716927 -140.506226 
L 300.791694 -152.398425 
L 301.157758 -181.94551 
L 277.97223 -170.496615 
z
" style="stroke: #ffffff; stroke-opacity: 0.6; stroke-width: 0.4"/>
    </defs>
    <g clip-path="url(#p492381cf9f)">
     <use xlink:href="#m9c1f61f48f" x="0" y="421.25" style="fill: #193b28; fill-opacity: 0.55; stroke: #ffffff; stroke-opacity: 0.6; stroke-width: 0.4"/>
    </g>
   </g>
   <g id="Poly3DCollection_55">
    <defs>
     <path id="mdfc307aafa" d="M 208.319972 -276.314343 
L 243.115268 -269.401322 
L 266.961779 -279.224377 
L 232.467213 -285.90823 
z
" style="stroke: #ffffff; stroke-opacity: 0.6; stroke-width: 0.4"/>
    </defs>
    <g clip-path="url(#p492381cf9f)">
     <use xlink:href="#mdfc307aafa" x="0" y="421.25" style="fill: #ac5e2e; fill-opacity: 0.55; stroke: #ffffff; stroke-opacity: 0.6; stroke-width: 0.4"/>
    </g>
   </g>
   <g id="Poly3DCollection_56">
    <defs>
     <path id="m5cd4bfc012" d="M 277.97223 -170.496615 
L 301.157758 -181.94551 
L 301.52749 -211.788684 
L 278.230136 -200.792684 
z
" style="stroke: #ffffff; stroke-opacity: 0.6; stroke-width: 0.4"/>
    </defs>
    <g clip-path="url(#p492381cf9f)">
     <use xlink:href="#m5cd4bfc012" x="0" y="421.25" style="fill: #193b28; fill-opacity: 0.55; stroke: #ffffff; stroke-opacity: 0.6; stroke-width: 0.4"/>
    </g>
   </g>
   <g id="Poly3DCollection_57">
    <path d="M 149.081001 147.875325 
L 174.33844 138.184312 
L 174.600585 168.12909 
L 149.474548 178.277406 
z
" clip-path="url(#p492381cf9f)" style="fill: #367d54; fill-opacity: 0.55; stroke: #ffffff; stroke-opacity: 0.6; stroke-width: 0.4"/>
    <path d="M 174.600585 168.12909 
L 208.415234 175.1992 
L 183.566593 185.589937 
L 149.474548 178.277406 
z
" clip-path="url(#p492381cf9f)" style="fill: #214c33; fill-opacity: 0.55; stroke: #ffffff; stroke-opacity: 0.6; stroke-width: 0.4"/>
    <path d="M 149.081001 147.875325 
L 183.342634 154.859348 
L 208.319972 144.935657 
L 174.33844 138.184312 
z
" clip-path="url(#p492381cf9f)" style="fill: #2f6d49; fill-opacity: 0.55; stroke: #ffffff; stroke-opacity: 0.6; stroke-width: 0.4"/>
    <path d="M 183.566593 185.589937 
L 183.342634 154.859348 
L 149.081001 147.875325 
L 149.474548 178.277406 
z
" clip-path="url(#p492381cf9f)" style="fill: #367d54; fill-opacity: 0.55; stroke: #ffffff; stroke-opacity: 0.6; stroke-width: 0.4"/>
   </g>
   <g id="Poly3DCollection_58">
    <defs>
     <path id="m212eb4d61d" d="M 278.230136 -200.792684 
L 301.52749 -211.788684 
L 301.900945 -241.93242 
L 278.490684 -231.39913 
z
" style="stroke: #ffffff; stroke-opacity: 0.6; stroke-width: 0.4"/>
    </defs>
    <g clip-path="url(#p492381cf9f)">
     <use xlink:href="#m212eb4d61d" x="0" y="421.25" style="fill: #193b28; fill-opacity: 0.55; stroke: #ffffff; stroke-opacity: 0.6; stroke-width: 0.4"/>
    </g>
   </g>
   <g id="Poly3DCollection_59">
    <path d="M 243.115268 151.848678 
L 278.753915 158.929254 
L 302.278181 148.868719 
L 266.961779 142.025623 
z
" clip-path="url(#p492381cf9f)" style="fill: #2f6d49; fill-opacity: 0.55; stroke: #ffffff; stroke-opacity: 0.6; stroke-width: 0.4"/>
    <path d="M 278.490684 189.85087 
L 301.900945 179.31758 
L 302.278181 148.868719 
L 278.753915 158.929254 
z
" clip-path="url(#p492381cf9f)" style="fill: #193b28; fill-opacity: 0.55; stroke: #ffffff; stroke-opacity: 0.6; stroke-width: 0.4"/>
   </g>
   <g id="Poly3DCollection_60">
    <path d="M 183.566593 185.589937 
L 208.415234 175.1992 
L 208.509549 205.161506 
L 183.788285 216.009435 
z
" clip-path="url(#p492381cf9f)" style="fill: #7d3c99; fill-opacity: 0.55; stroke: #ffffff; stroke-opacity: 0.6; stroke-width: 0.4"/>
    <path d="M 208.509549 205.161506 
L 242.956642 212.71876 
L 218.530468 223.827615 
L 183.788285 216.009435 
z
" clip-path="url(#p492381cf9f)" style="fill: #4c245c; fill-opacity: 0.55; stroke: #ffffff; stroke-opacity: 0.6; stroke-width: 0.4"/>
    <path d="M 218.530468 223.827615 
L 218.484976 193.079712 
L 183.566593 185.589937 
L 183.788285 216.009435 
z
" clip-path="url(#p492381cf9f)" style="fill: #7d3c99; fill-opacity: 0.55; stroke: #ffffff; stroke-opacity: 0.6; stroke-width: 0.4"/>
   </g>
   <g id="Poly3DCollection_61">
    <path d="M 218.575497 254.262106 
L 242.878521 242.696303 
L 242.801179 272.37493 
L 218.620069 284.387951 
z
" clip-path="url(#p492381cf9f)" style="fill: #1b456c; fill-opacity: 0.55; stroke: #ffffff; stroke-opacity: 0.6; stroke-width: 0.4"/>
    <path d="M 242.801179 272.37493 
L 277.716927 280.743774 
L 253.846051 293.046269 
L 218.620069 284.387951 
z
" clip-path="url(#p492381cf9f)" style="fill: #112a41; fill-opacity: 0.55; stroke: #ffffff; stroke-opacity: 0.6; stroke-width: 0.4"/>
    <path d="M 253.846051 293.046269 
L 277.716927 280.743774 
L 277.97223 250.753385 
L 253.982647 262.599319 
z
" clip-path="url(#p492381cf9f)" style="fill: #0d2033; fill-opacity: 0.55; stroke: #ffffff; stroke-opacity: 0.6; stroke-width: 0.4"/>
    <path d="M 253.846051 293.046269 
L 253.982647 262.599319 
L 218.575497 254.262106 
L 218.620069 284.387951 
z
" clip-path="url(#p492381cf9f)" style="fill: #1b456c; fill-opacity: 0.55; stroke: #ffffff; stroke-opacity: 0.6; stroke-width: 0.4"/>
   </g>
   <g id="Poly3DCollection_62">
    <path d="M 183.342634 154.859348 
L 218.439013 162.01353 
L 243.115268 151.848678 
L 208.319972 144.935657 
z
" clip-path="url(#p492381cf9f)" style="fill: #6d3485; fill-opacity: 0.55; stroke: #ffffff; stroke-opacity: 0.6; stroke-width: 0.4"/>
    <path d="M 218.484976 193.079712 
L 218.439013 162.01353 
L 183.342634 154.859348 
L 183.566593 185.589937 
z
" clip-path="url(#p492381cf9f)" style="fill: #7d3c99; fill-opacity: 0.55; stroke: #ffffff; stroke-opacity: 0.6; stroke-width: 0.4"/>
   </g>
   <g id="Poly3DCollection_63">
    <path d="M 218.530468 223.827615 
L 242.956642 212.71876 
L 242.878521 242.696303 
L 218.575497 254.262106 
z
" clip-path="url(#p492381cf9f)" style="fill: #1b456c; fill-opacity: 0.55; stroke: #ffffff; stroke-opacity: 0.6; stroke-width: 0.4"/>
    <path d="M 253.982647 262.599319 
L 277.97223 250.753385 
L 278.230136 220.457316 
L 254.120659 231.836626 
z
" clip-path="url(#p492381cf9f)" style="fill: #0d2033; fill-opacity: 0.55; stroke: #ffffff; stroke-opacity: 0.6; stroke-width: 0.4"/>
    <path d="M 253.982647 262.599319 
L 254.120659 231.836626 
L 218.530468 223.827615 
L 218.575497 254.262106 
z
" clip-path="url(#p492381cf9f)" style="fill: #1b456c; fill-opacity: 0.55; stroke: #ffffff; stroke-opacity: 0.6; stroke-width: 0.4"/>
   </g>
   <g id="Poly3DCollection_64">
    <path d="M 254.120659 231.836626 
L 278.230136 220.457316 
L 278.490684 189.85087 
L 254.260109 200.753255 
z
" clip-path="url(#p492381cf9f)" style="fill: #0d2033; fill-opacity: 0.55; stroke: #ffffff; stroke-opacity: 0.6; stroke-width: 0.4"/>
    <path d="M 254.120659 231.836626 
L 254.260109 200.753255 
L 218.484976 193.079712 
L 218.530468 223.827615 
z
" clip-path="url(#p492381cf9f)" style="fill: #1b456c; fill-opacity: 0.55; stroke: #ffffff; stroke-opacity: 0.6; stroke-width: 0.4"/>
   </g>
   <g id="Poly3DCollection_65">
    <path d="M 218.439013 162.01353 
L 254.401021 169.344164 
L 278.753915 158.929254 
L 243.115268 151.848678 
z
" clip-path="url(#p492381cf9f)" style="fill: #183c5e; fill-opacity: 0.55; stroke: #ffffff; stroke-opacity: 0.6; stroke-width: 0.4"/>
    <path d="M 254.260109 200.753255 
L 278.490684 189.85087 
L 278.753915 158.929254 
L 254.401021 169.344164 
z
" clip-path="url(#p492381cf9f)" style="fill: #0d2033; fill-opacity: 0.55; stroke: #ffffff; stroke-opacity: 0.6; stroke-width: 0.4"/>
    <path d="M 254.260109 200.753255 
L 254.401021 169.344164 
L 218.439013 162.01353 
L 218.484976 193.079712 
z
" clip-path="url(#p492381cf9f)" style="fill: #1b456c; fill-opacity: 0.55; stroke: #ffffff; stroke-opacity: 0.6; stroke-width: 0.4"/>
   </g>
  </g>
  <g id="legend_1">
   <g id="patch_6">
    <path d="M 10.6 408.882266 
L 27.6 408.882266 
L 27.6 402.932266 
L 10.6 402.932266 
z
" style="fill: #1f4e7a; opacity: 0.6"/>
   </g>
   <g id="text_6">
    <!-- aggressive descent -->
    <g transform="translate(34.4 408.882266) scale(0.085 -0.085)">
     <use xlink:href="#DejaVuSans-61"/>
     <use xlink:href="#DejaVuSans-67" x="61.279297"/>
     <use xlink:href="#DejaVuSans-67" x="124.755859"/>
     <use xlink:href="#DejaVuSans-72" x="188.232422"/>
     <use xlink:href="#DejaVuSans-65" x="227.095703"/>
     <use xlink:href="#DejaVuSans-73" x="288.619141"/>
     <use xlink:href="#DejaVuSans-73" x="340.71875"/>
     <use xlink:href="#DejaVuSans-69" x="392.818359"/>
     <use xlink:href="#DejaVuSans-76" x="420.601562"/>
     <use xlink:href="#DejaVuSans-65" x="479.78125"/>
     <use xlink:href="#DejaVuSans-20" x="541.304688"/>
     <use xlink:href="#DejaVuSans-64" x="573.091797"/>
     <use xlink:href="#DejaVuSans-65" x="636.568359"/>
     <use xlink:href="#DejaVuSans-73" x="698.091797"/>
     <use xlink:href="#DejaVuSans-63" x="750.191406"/>
     <use xlink:href="#DejaVuSans-65" x="805.171875"/>
     <use xlink:href="#DejaVuSans-6e" x="866.695312"/>
     <use xlink:href="#DejaVuSans-74" x="930.074219"/>
    </g>
   </g>
   <g id="patch_7">
    <path d="M 133.791563 408.882266 
L 150.791563 408.882266 
L 150.791563 402.932266 
L 133.791563 402.932266 
z
" style="fill: #e07a3c; opacity: 0.6"/>
   </g>
   <g id="text_7">
    <!-- inertial RTL -->
    <g transform="translate(157.591563 408.882266) scale(0.085 -0.085)">
     <defs>
      <path id="DejaVuSans-52" d="M 2841 2188 
Q 3044 2119 3236 1894 
Q 3428 1669 3622 1275 
L 4263 0 
L 3584 0 
L 2988 1197 
Q 2756 1666 2539 1819 
Q 2322 1972 1947 1972 
L 1259 1972 
L 1259 0 
L 628 0 
L 628 4666 
L 2053 4666 
Q 2853 4666 3247 4331 
Q 3641 3997 3641 3322 
Q 3641 2881 3436 2590 
Q 3231 2300 2841 2188 
z
M 1259 4147 
L 1259 2491 
L 2053 2491 
Q 2509 2491 2742 2702 
Q 2975 2913 2975 3322 
Q 2975 3731 2742 3939 
Q 2509 4147 2053 4147 
L 1259 4147 
z
" transform="scale(0.015625)"/>
      <path id="DejaVuSans-54" d="M -19 4666 
L 3928 4666 
L 3928 4134 
L 2272 4134 
L 2272 0 
L 1638 0 
L 1638 4134 
L -19 4134 
L -19 4666 
z
" transform="scale(0.015625)"/>
      <path id="DejaVuSans-4c" d="M 628 4666 
L 1259 4666 
L 1259 531 
L 3531 531 
L 3531 0 
L 628 0 
L 628 4666 
z
" transform="scale(0.015625)"/>
     </defs>
     <use xlink:href="#DejaVuSans-69"/>
     <use xlink:href="#DejaVuSans-6e" x="27.783203"/>
     <use xlink:href="#DejaVuSans-65" x="91.162109"/>
     <use xlink:href="#DejaVuSans-72" x="152.685547"/>
     <use xlink:href="#DejaVuSans-74" x="193.798828"/>
     <use xlink:href="#DejaVuSans-69" x="233.007812"/>
     <use xlink:href="#DejaVuSans-61" x="260.791016"/>
     <use xlink:href="#DejaVuSans-6c" x="322.070312"/>
     <use xlink:href="#DejaVuSans-20" x="349.853516"/>
     <use xlink:href="#DejaVuSans-52" x="381.640625"/>
     <use xlink:href="#DejaVuSans-54" x="443.873047"/>
     <use xlink:href="#DejaVuSans-4c" x="504.957031"/>
    </g>
   </g>
   <g id="patch_8">
    <path d="M 222.247344 408.882266 
L 239.247344 408.882266 
L 239.247344 402.932266 
L 222.247344 402.932266 
z
" style="fill: #3d8e5f; opacity: 0.6"/>
   </g>
   <g id="text_8">
    <!-- min-effort glide -->
    <g transform="translate(246.047344 408.882266) scale(0.085 -0.085)">
     <defs>
      <path id="DejaVuSans-6d" d="M 3328 2828 
Q 3544 3216 3844 3400 
Q 4144 3584 4550 3584 
Q 5097 3584 5394 3201 
Q 5691 2819 5691 2113 
L 5691 0 
L 5113 0 
L 5113 2094 
Q 5113 2597 4934 2840 
Q 4756 3084 4391 3084 
Q 3944 3084 3684 2787 
Q 3425 2491 3425 1978 
L 3425 0 
L 2847 0 
L 2847 2094 
Q 2847 2600 2669 2842 
Q 2491 3084 2119 3084 
Q 1678 3084 1418 2786 
Q 1159 2488 1159 1978 
L 1159 0 
L 581 0 
L 581 3500 
L 1159 3500 
L 1159 2956 
Q 1356 3278 1631 3431 
Q 1906 3584 2284 3584 
Q 2666 3584 2933 3390 
Q 3200 3197 3328 2828 
z
" transform="scale(0.015625)"/>
      <path id="DejaVuSans-2d" d="M 313 2009 
L 1997 2009 
L 1997 1497 
L 313 1497 
L 313 2009 
z
" transform="scale(0.015625)"/>
     </defs>
     <use xlink:href="#DejaVuSans-6d"/>
     <use xlink:href="#DejaVuSans-69" x="97.412109"/>
     <use xlink:href="#DejaVuSans-6e" x="125.195312"/>
     <use xlink:href="#DejaVuSans-2d" x="188.574219"/>
     <use xlink:href="#DejaVuSans-65" x="224.658203"/>
     <use xlink:href="#DejaVuSans-66" x="286.181641"/>
     <use xlink:href="#DejaVuSans-66" x="321.386719"/>
     <use xlink:href="#DejaVuSans-6f" x="356.591797"/>
     <use xlink:href="#DejaVuSans-72" x="417.773438"/>
     <use xlink:href="#DejaVuSans-74" x="458.886719"/>
     <use xlink:href="#DejaVuSans-20" x="498.095703"/>
     <use xlink:href="#DejaVuSans-67" x="529.882812"/>
     <use xlink:href="#DejaVuSans-6c" x="593.359375"/>
     <use xlink:href="#DejaVuSans-69" x="621.142578"/>
     <use xlink:href="#DejaVuSans-64" x="648.925781"/>
     <use xlink:href="#DejaVuSans-65" x="712.402344"/>
    </g>
   </g>
   <g id="patch_9">
    <path d="M 328.830703 408.882266 
L 345.830703 408.882266 
L 345.830703 402.932266 
L 328.830703 402.932266 
z
" style="fill: #8e44ad; opacity: 0.6"/>
   </g>
   <g id="text_9">
    <!-- hover &amp; reroute -->
    <g transform="translate(352.630703 408.882266) scale(0.085 -0.085)">
     <defs>
      <path id="DejaVuSans-68" d="M 3513 2113 
L 3513 0 
L 2938 0 
L 2938 2094 
Q 2938 2591 2744 2837 
Q 2550 3084 2163 3084 
Q 1697 3084 1428 2787 
Q 1159 2491 1159 1978 
L 1159 0 
L 581 0 
L 581 4863 
L 1159 4863 
L 1159 2956 
Q 1366 3272 1645 3428 
Q 1925 3584 2291 3584 
Q 2894 3584 3203 3211 
Q 3513 2838 3513 2113 
z
" transform="scale(0.015625)"/>
      <path id="DejaVuSans-26" d="M 1556 2509 
Q 1272 2256 1139 2004 
Q 1006 1753 1006 1478 
Q 1006 1022 1337 719 
Q 1669 416 2169 416 
Q 2466 416 2725 514 
Q 2984 613 3213 813 
L 1556 2509 
z
M 1997 2859 
L 3584 1234 
Q 3769 1513 3872 1830 
Q 3975 2147 3994 2503 
L 4575 2503 
Q 4538 2091 4375 1687 
Q 4213 1284 3922 891 
L 4794 0 
L 4006 0 
L 3559 459 
Q 3234 181 2878 45 
Q 2522 -91 2113 -91 
Q 1359 -91 881 339 
Q 403 769 403 1441 
Q 403 1841 612 2192 
Q 822 2544 1241 2853 
Q 1091 3050 1012 3245 
Q 934 3441 934 3628 
Q 934 4134 1281 4442 
Q 1628 4750 2203 4750 
Q 2463 4750 2720 4694 
Q 2978 4638 3244 4525 
L 3244 3956 
Q 2972 4103 2725 4179 
Q 2478 4256 2266 4256 
Q 1938 4256 1733 4082 
Q 1528 3909 1528 3634 
Q 1528 3475 1620 3314 
Q 1713 3153 1997 2859 
z
" transform="scale(0.015625)"/>
     </defs>
     <use xlink:href="#DejaVuSans-68"/>
     <use xlink:href="#DejaVuSans-6f" x="63.378906"/>
     <use xlink:href="#DejaVuSans-76" x="124.560547"/>
     <use xlink:href="#DejaVuSans-65" x="183.740234"/>
     <use xlink:href="#DejaVuSans-72" x="245.263672"/>
     <use xlink:href="#DejaVuSans-20" x="286.376953"/>
     <use xlink:href="#DejaVuSans-26" x="318.164062"/>
     <use xlink:href="#DejaVuSans-20" x="396.142578"/>
     <use xlink:href="#DejaVuSans-72" x="427.929688"/>
     <use xlink:href="#DejaVuSans-65" x="466.792969"/>
     <use xlink:href="#DejaVuSans-72" x="528.316406"/>
     <use xlink:href="#DejaVuSans-6f" x="567.179688"/>
     <use xlink:href="#DejaVuSans-75" x="628.361328"/>
     <use xlink:href="#DejaVuSans-74" x="691.740234"/>
     <use xlink:href="#DejaVuSans-65" x="730.949219"/>
    </g>
   </g>
  </g>
 </g>
 <defs>
  <clipPath id="p492381cf9f">
   <rect x="42.315938" y="25.18" width="360.36" height="360.36"/>
  </clipPath>
 </defs>
</svg>
